<?xml version="1.0" encoding="UTF-8" standalone="no"?>
<svg
   xmlns:dc="http://purl.org/dc/elements/1.1/"
   xmlns:cc="http://creativecommons.org/ns#"
   xmlns:rdf="http://www.w3.org/1999/02/22-rdf-syntax-ns#"
   xmlns:svg="http://www.w3.org/2000/svg"
   xmlns="http://www.w3.org/2000/svg"
   xmlns:sodipodi="http://sodipodi.sourceforge.net/DTD/sodipodi-0.dtd"
   xmlns:inkscape="http://www.inkscape.org/namespaces/inkscape"
   version="1.1"
   id="svg2"
   xml:space="preserve"
   width="1698.8344"
   height="1421.8224"
   viewBox="0 0 1698.8344 1421.8224"
   sodipodi:docname="linearly_sep_shatter.svg"
   inkscape:version="1.0.1 (1.0.1+r75)"><metadata
     id="metadata8"><rdf:RDF><cc:Work
         rdf:about=""><dc:format>image/svg+xml</dc:format><dc:type
           rdf:resource="http://purl.org/dc/dcmitype/StillImage" /><dc:title></dc:title></cc:Work></rdf:RDF></metadata><defs
     id="defs6" /><sodipodi:namedview
     pagecolor="#ffffff"
     bordercolor="#666666"
     borderopacity="1"
     objecttolerance="10"
     gridtolerance="10"
     guidetolerance="10"
     inkscape:pageopacity="0"
     inkscape:pageshadow="2"
     inkscape:window-width="1867"
     inkscape:window-height="1052"
     id="namedview4"
     showgrid="false"
     inkscape:zoom="0.99871827"
     inkscape:cx="769.36181"
     inkscape:cy="694.78237"
     inkscape:window-x="53"
     inkscape:window-y="0"
     inkscape:window-maximized="1"
     inkscape:current-layer="g12" /><g
     id="g10"
     inkscape:groupmode="layer"
     inkscape:label="linearly_sep"
     transform="matrix(1.3333333,0,0,1.3333333,0,7.5455605e-6)"><g
       id="g12"><g
         id="g186"
         transform="matrix(1,0,0,-1,-502.00673,375.83182)"><path
           d="m 982.789,-209.898 h 265.023"
           style="fill:none;stroke:#000000;stroke-width:0.8;stroke-linecap:butt;stroke-linejoin:miter;stroke-miterlimit:10;stroke-dasharray:none;stroke-opacity:1"
           id="path188" /></g><path
         d="m 737.25127,582.17982 9.617,3.535 -9.617,3.535 c 1.539,-2.09 1.527,-4.941 0,-7.07"
         style="fill:#000000;fill-opacity:1;fill-rule:evenodd;stroke:none"
         id="path190" /><g
         id="g192"
         transform="matrix(1,0,0,-1,-502.00673,375.83182)"><path
           d="M 1005.254,-232.41 V -24.641"
           style="fill:none;stroke:#000000;stroke-width:0.947469;stroke-linecap:butt;stroke-linejoin:miter;stroke-miterlimit:10;stroke-dasharray:none;stroke-opacity:1"
           id="path194" /></g><path
         d="m 499.04427,410.60182 4.183,-11.391 4.192,11.391 c -2.473,-1.821 -5.86,-1.809 -8.375,0"
         style="fill:#000000;fill-opacity:1;fill-rule:evenodd;stroke:none"
         id="path196" /><g
         id="g198"
         transform="translate(-502.00673,375.83182)"><path
           d="m 1055.363,81.875 c -12.886,12.883 -12.886,12.883 -12.886,12.883"
           style="fill:#000000;fill-opacity:1;fill-rule:nonzero;stroke:#0000ff;stroke-width:3.25057;stroke-linecap:butt;stroke-linejoin:miter;stroke-miterlimit:4;stroke-dasharray:none;stroke-opacity:1"
           id="path200" /></g><g
         id="g202"
         transform="translate(-502.00673,375.83182)"><path
           d="M 1055.363,94.758 C 1042.477,81.875 1042.477,81.875 1042.477,81.875"
           style="fill:#000000;fill-opacity:1;fill-rule:nonzero;stroke:#0000ff;stroke-width:3.25057;stroke-linecap:butt;stroke-linejoin:miter;stroke-miterlimit:4;stroke-dasharray:none;stroke-opacity:1"
           id="path204" /></g><g
         id="g206"
         transform="translate(-502.00673,375.83182)"><path
           d="m 1101.109,170.281 c 0,-2.996 2.43,-5.433 5.43,-5.433 2.996,0 5.43,2.437 5.43,5.433 0,3 -2.434,5.434 -5.43,5.434 -3,0 -5.43,-2.434 -5.43,-5.426"
           style="fill:none;stroke:#ff0000;stroke-width:0.996124;stroke-linecap:round;stroke-linejoin:round;stroke-miterlimit:10;stroke-dasharray:none;stroke-opacity:1"
           id="path208" /></g><g
         id="g210"
         transform="translate(-502.00673,375.83182)"><path
           d="m 1180.672,19.031 c 0,-2.996 2.43,-5.441 5.43,-5.441 2.996,0 5.429,2.445 5.429,5.441 0,2.996 -2.433,5.43 -5.429,5.43 -3,0 -5.43,-2.434 -5.43,-5.426"
           style="fill:none;stroke:#ff0000;stroke-width:0.996124;stroke-linecap:round;stroke-linejoin:round;stroke-miterlimit:10;stroke-dasharray:none;stroke-opacity:1"
           id="path212" /></g><g
         id="g214"
         transform="translate(-502.00673,375.83182)"><path
           d="m 1241.84,91.141 c -12.887,12.882 -12.887,12.882 -12.887,12.882"
           style="fill:#000000;fill-opacity:1;fill-rule:nonzero;stroke:#0000ff;stroke-width:3.25057;stroke-linecap:butt;stroke-linejoin:miter;stroke-miterlimit:4;stroke-dasharray:none;stroke-opacity:1"
           id="path216" /></g><g
         id="g218"
         transform="translate(-502.00673,375.83182)"><path
           d="M 1241.84,104.023 C 1228.953,91.141 1228.953,91.141 1228.953,91.141"
           style="fill:#000000;fill-opacity:1;fill-rule:nonzero;stroke:#0000ff;stroke-width:3.25057;stroke-linecap:butt;stroke-linejoin:miter;stroke-miterlimit:4;stroke-dasharray:none;stroke-opacity:1"
           id="path220" /></g><g
         id="g222"
         transform="matrix(1,0,0,-1,-502.00673,375.83182)"><path
           d="m 982.789,-209.898 h 265.023"
           style="fill:none;stroke:#000000;stroke-width:0.8;stroke-linecap:butt;stroke-linejoin:miter;stroke-miterlimit:10;stroke-dasharray:none;stroke-opacity:1"
           id="path224" /></g><path
         d="m 737.25127,582.17982 9.617,3.535 -9.617,3.535 c 1.539,-2.086 1.527,-4.941 0,-7.07"
         style="fill:#000000;fill-opacity:1;fill-rule:evenodd;stroke:none"
         id="path226" /><g
         id="g228"
         transform="matrix(1,0,0,-1,-502.00673,375.83182)"><path
           d="M 1005.254,-232.41 V -24.641"
           style="fill:none;stroke:#000000;stroke-width:0.947469;stroke-linecap:butt;stroke-linejoin:miter;stroke-miterlimit:10;stroke-dasharray:none;stroke-opacity:1"
           id="path230" /></g><path
         d="m 499.04427,410.60182 4.187,-11.395 4.188,11.395 c -2.473,-1.821 -5.856,-1.809 -8.375,0"
         style="fill:#000000;fill-opacity:1;fill-rule:evenodd;stroke:none"
         id="path232" /><path
         d="m 752.20027,598.08582 0.063,-0.192 v -0.097 l 0.066,-0.258 0.059,-0.129 0.031,-0.133 0.035,-0.16 0.062,-0.129 0.067,-0.156 0.258,-0.645 0.289,-0.484 0.097,-0.129 0.098,-0.164 0.129,-0.129 0.098,-0.16 0.129,-0.133 0.164,-0.129 0.128,-0.093 0.161,-0.098 0.129,-0.098 0.097,-0.031 0.098,-0.066 0.066,-0.024 0.192,-0.066 h 0.097 l 0.059,-0.031 0.098,-0.036 h 0.226 l 0.094,-0.031 h 0.098 c 0.164,0 0.941,0 1.617,0.414 -0.903,0.16 -1.551,0.973 -1.551,1.746 0,0.512 0.355,1.125 1.227,1.125 0.707,0 1.742,-0.582 1.742,-1.867 0,-1.676 -1.903,-2.129 -3,-2.129 -1.871,0 -3,1.707 -3.383,2.449 -0.809,-2.125 -2.516,-2.449 -3.453,-2.449 -3.356,0 -5.192,4.16 -5.192,4.934 0,0.324 0.325,0.324 0.387,0.324 0.262,0 0.359,-0.066 0.422,-0.355 1.094,-3.387 3.227,-4.192 4.32,-4.192 0.614,0 1.707,0.285 1.707,2.16 0,0.996 -0.543,3.121 -1.707,7.61 -0.519,1.996 -1.644,3.347 -3.066,3.347 -0.192,0 -0.93,0 -1.61,-0.418 0.809,-0.164 1.512,-0.836 1.512,-1.738 0,-0.875 -0.703,-1.125 -1.187,-1.125 -0.969,0 -1.774,0.832 -1.774,1.867 0,1.481 1.61,2.094 3.028,2.094 2.128,0 3.289,-2.223 3.386,-2.418 0.356,1.191 1.512,2.418 3.453,2.418 3.317,0 5.153,-4.125 5.153,-4.934 0,-0.32 -0.285,-0.32 -0.383,-0.32 -0.289,0 -0.355,0.129 -0.418,0.356 -1.066,3.453 -3.258,4.218 -4.289,4.218 -1.258,0 -1.777,-1.027 -1.777,-2.125 0,-0.711 0.195,-1.418 0.55,-2.804 z"
         style="fill:#000000;fill-opacity:1;fill-rule:evenodd;stroke:none"
         id="path234" /><path
         d="m 767.38027,598.31182 v -0.289 l -0.032,-0.031 v -0.129 l -0.035,-0.035 v -0.031 l -0.062,-0.063 h -0.031 l -0.036,-0.035 h -0.121 l -0.031,-0.031 h -0.324 c -1.453,1.422 -3.485,1.453 -4.422,1.453 v 0.805 c 0.551,0 2.035,0 3.258,-0.641 v 11.442 c 0,0.742 0,1.027 -2.254,1.027 h -0.844 v 0.808 c 0.391,-0.031 3.164,-0.097 4.004,-0.097 0.711,0 3.543,0.066 4.027,0.097 v -0.808 h -0.836 c -2.261,0 -2.261,-0.285 -2.261,-1.027 z"
         style="fill:#000000;fill-opacity:1;fill-rule:evenodd;stroke:none"
         id="path236" /><path
         d="m 477.57927,380.34382 0.066,-0.196 v -0.093 l 0.063,-0.258 0.066,-0.133 0.031,-0.129 0.036,-0.16 0.062,-0.129 0.067,-0.16 0.062,-0.156 0.195,-0.485 0.289,-0.488 0.098,-0.129 0.098,-0.16 0.129,-0.129 0.097,-0.16 0.129,-0.133 0.16,-0.129 0.125,-0.094 0.161,-0.097 0.128,-0.098 0.098,-0.031 0.102,-0.067 0.062,-0.031 0.192,-0.066 h 0.097 l 0.067,-0.031 0.097,-0.032 h 0.227 l 0.094,-0.031 h 0.097 c 0.164,0 0.938,0 1.61,0.418 -0.899,0.16 -1.543,0.969 -1.543,1.746 0,0.512 0.355,1.125 1.218,1.125 0.715,0 1.746,-0.582 1.746,-1.871 0,-1.672 -1.906,-2.125 -2.996,-2.125 -1.871,0 -3,1.707 -3.39,2.449 -0.801,-2.125 -2.516,-2.449 -3.446,-2.449 -3.355,0 -5.191,4.156 -5.191,4.934 0,0.324 0.324,0.324 0.387,0.324 0.254,0 0.351,-0.067 0.414,-0.356 1.101,-3.39 3.226,-4.195 4.328,-4.195 0.605,0 1.707,0.289 1.707,2.164 0,0.996 -0.551,3.121 -1.707,7.609 -0.52,1.997 -1.652,3.348 -3.066,3.348 -0.192,0 -0.938,0 -1.61,-0.418 0.801,-0.164 1.512,-0.836 1.512,-1.742 0,-0.871 -0.711,-1.129 -1.195,-1.129 -0.961,0 -1.774,0.84 -1.774,1.875 0,1.481 1.617,2.094 3.035,2.094 2.125,0 3.289,-2.223 3.387,-2.418 0.348,1.187 1.512,2.418 3.445,2.418 3.325,0 5.16,-4.125 5.16,-4.934 0,-0.324 -0.289,-0.324 -0.386,-0.324 -0.293,0 -0.36,0.129 -0.422,0.359 -1.059,3.446 -3.254,4.219 -4.285,4.219 -1.254,0 -1.774,-1.027 -1.774,-2.129 0,-0.707 0.196,-1.414 0.551,-2.804 z"
         style="fill:#000000;fill-opacity:1;fill-rule:evenodd;stroke:none"
         id="path238" /><path
         d="m 496.59827,390.72682 h -0.765 c -0.067,0.515 -0.293,1.835 -0.582,2.062 -0.196,0.129 -1.934,0.129 -2.258,0.129 h -4.125 c 2.352,-2.094 3.156,-2.707 4.512,-3.774 1.675,-1.32 3.218,-2.71 3.218,-4.835 0,-2.711 -2.382,-4.383 -5.281,-4.383 -2.804,0 -4.672,1.965 -4.672,4.027 0,1.129 0.961,1.258 1.192,1.258 0.515,0 1.191,-0.387 1.191,-1.195 0,-0.414 -0.16,-1.188 -1.324,-1.188 0.68,-1.609 2.223,-2.094 3.293,-2.094 2.254,0 3.41,1.739 3.41,3.575 0,1.937 -1.414,3.484 -2.125,4.293 l -5.418,5.343 c -0.219,0.196 -0.219,0.227 -0.219,0.875 h 9.282 z"
         style="fill:#000000;fill-opacity:1;fill-rule:evenodd;stroke:none"
         id="path240" /><g
         id="g1338"
         transform="matrix(0.32701261,0,0,0.32701261,466.10174,348.62214)"><path
           d="m 696.04669,191.75179 c 19.111,2.5267 36.775,11.664 52.65,22.238 13.59,9.571 26.753,20.028 38.107,32.201 5.7939,7.3218 11.926,14.732 15.694,23.321 5.4787,15.043 2.0651,32.94299 -8.0578,45.198 -4.4177,4.2576 -11.098,5.1236 -16.601,2.5536 -21.743,-6.9028 -40.216,-21.13501 -57.517,-35.515 -9.9343,-9.4051 -22.148,-16.377 -30.396,-27.536 -10.93,-12.094 -22.59,-25.753 -23.87,-42.742 4.31,-12.175 17.22,-20.267 29.99,-19.717 z m -33.155,19.548 c 4.6262,2.471 2.0668,8.2991 1.1937,12.145 1.3916,7.257 6.1133,13.669 10.065,19.857 17.407,23.556 40.424,42.327 63.989,59.529 8.7377,6.61999 18.805,11.369 29.005,15.476 6.2541,3.1141 13.157,6.0419 18.084,10.978 2.8672,6.6007 -3.3111,12.092 -5.2672,17.91299 -1.944,6.49881 -6.0613,11.80901 -10.086,17.097 -5.4278,9.01281 -8.0163,20.184 -16.497,27.08301 -11.322,1.71489 -22.336,-5.044 -33.503,-2.63121 -13.221,5.59701 -26.202,14.44901 -32.534,27.66601 -0.88294,14.707 5.892,29.789 1.4828,44.375 -8.4705,16.87399 -24.871,27.417 -38.153,40.111 -7.5267,5.50029 -16.651,8.5011 -25.498,10.941 -14.28697,1.9154 -27.45997,-5.5357 -40.63397,-9.7516 -15.603,-6.2547 -28.155,-17.802 -41.531,-27.531 -14.38,-7.9776 -25.09,-24.863 -21.279,-41.641 2.1404,-14.567 4.467,-29.12201 4.8113,-43.869 0.3831,-8.8607 3.4427,-17.372 8.5488,-24.57101 10.865,-19.63299 27.508,-37.91499 28.836,-61.26799 -0.3917,-3.61761 1.7066,-9.86871 6.4281,-8.13591 10.675,7.59951 15.112,20.95901 24.969,29.47501 19.749,20.007 40.71097,39.095 62.60797,56.606 8.2762,5.50039 16.905,10.74499 23.823,17.93299 3.1978,1.7979 9.764,-3.6774 4.8637,-5.6493 -11.766,-9.19789 -25.075,-16.62799 -35.597,-27.37999 -23.164,-14.35901 -41.66297,-34.867 -59.43497,-55.209 -5.568,-6.90591 -9.6046,-15.859 -7.7017,-24.86001 -0.7285,-13.09599 9.9397,-22.71699 19.311,-30.11399 10.041,-8.2438 19.60197,-17.004 28.67597,-26.312 7.5774,-7.3597 17.305,-11.788 26.319,-17.055 1.4721,-0.47585 3.2502,-1.8523 4.7031,-1.2062 z m -17.2,43.334 c -2.0003,1.5343 -1.9426,4.1109 0.68124,4.7688 30.84,21.292 54.911,50.58 78.333,79.423 2.2203,2.9306 3.455,6.4442 4.2203,10.008 -18.582,-5.96901 -31.725,-21.369 -48.481,-30.559 -11.554,-7.4439 -22.999,-15.169 -34.358,-22.83 -7.368,-3.23901 -14.804,-10.036 -23.292,-7.72191 -5.48841,3.70661 -1.7628,11.952 3.0968,14.547 14.778,13.09701 28.13,27.68601 41.615,42.07 5.5525,6.41801 10.511,13.62501 12.874,21.86601 3.2346,-1.13841 3.0996,-4.4941 1.5531,-6.9687 -5.9025,-13.104 -17.853,-22.054 -25.91,-33.735 -5.8337,-8.108 -12.533,-15.67501 -17.846,-24.115 -1.2351,-2.5443 -1.5114,-5.39781 -1.825,-8.1672 12.533,5.02299 21.484,15.777 33.088,22.338 17.945,11.866 35.982,23.726 52.912,36.976 4.547,2.234 9.1319,6.411 14.364,5.6469 1.2306,-11.793 -8.3291,-20.842 -14.693,-29.623 -22.232,-27.567 -50.221,-50.047 -76.332,-73.924 z m -74.15297,102.28999 c -2.9217,0.39561 -3.6197,4.86221 -0.4594,5.84061 24.758,23.22999 54.71399,41.35299 75.49099,68.656 2.3662,2.9885 2.0473,8.5862 -2.5734,8.8094 -13.443,3.8427 -25.854,-5.1604 -37.57199,-10.236 12.32099,6.3312 25.16699,11.778 37.88799,17.38099 4.9796,2.24901 10.569,1.18011 15.581,2.24241 2.8555,-2.8884 -1.2215,-7.13361 -2.5516,-9.911 -8.442,-12.791 -20.493,-22.569 -30.3,-34.26401 -17.76399,-16.69399 -35.35999,-33.96199 -54.89099,-48.486 -0.2015,-0.0406 -0.4079,-0.0507 -0.6125,-0.0328 z m -14.577,50.391 c -2.8822,0.0173 -6.6521,0.58653 -7.8297,3.65161 15.317,17.486 33.253,32.405 52.967,44.561 3.314,1.82839 8.3901,5.4532 6.3984,9.6969 -3.8262,3.9567 -9.3866,6.7344 -13.141,10.15 4.4898,2.2476 9.7585,-0.55812 14.536,0.53594 3.9218,-1.9577 1.6926,-7.418 2.0281,-10.928 -3.518,-13.588 -17.517,-19.76001 -26.864,-28.603 -7.0561,-5.987 -15.93,-10.798 -20.646,-19.014 -0.2605,-1.9571 -1.1484,-5.5567 2.0375,-4.3562 7.9085,0.74514 14.403,6.0322 21.875,8.3203 4.6647,2.0115 9.2363,4.2316 13.781,6.4984 -14.652,-7.774 -28.033,-19.67001 -45.144,-20.512 z"
           fill="#fcce9c"
           id="path2"
           style="stroke-width:0.999998" /><path
           d="m 730.96669,394.96378 c 8.9888,1.03181 10.648,11.97201 17.428,16.30201 9.1964,7.3596 15.319,18.072 25.946,23.664 10.529,6.39009 17.201,17.147 25.47,25.977 15.621,22.176 38.941,36.999 58.544,55.314 2.7244,2.9429 8.2951,5.4354 4.9648,9.793 -6.0015,13.522 -19.937,20.63 -32.094,27.467 -1.297,4.1131 -2.7174,10.128 -8.2812,9.7969 -11.013,-1.0198 -17.993,-11.29101 -25.412,-18.33501 -10.14,-11.02599 -21.012,-21.35799 -29.952,-33.44199 -8.1804,-8.9008 -17.411,-16.744 -25.621,-25.655 -12.791,-12.435 -25.08,-25.43 -38.026,-37.677 -5.6366,-3.40661 -11.221,-8.5031 -10.846,-15.676 -3.2267,-21.129 18.17,-38.11001 37.879,-37.529 z"
           fill="#fa0101"
           id="path4"
           style="stroke-width:0.999998" /><path
           d="m 869.22669,539.36379 c 10.411,0.0423 20.726,3.09009 29.151,9.291 5.1042,3.0017 11.257,6.1056 12.465,12.573 2.1483,6.9258 -1.6841,15.162 -8.927,17.027 -8.5456,4.4712 -16.685,9.8494 -23.018,17.281 -5.2523,5.0321 -10.405,10.86099 -16.802,14.216 -5.8355,-0.45885 -9.8233,-5.6687 -14.518,-8.55911 -9.4449,-7.6614 -19.753,-17.78899 -19.595,-30.84399 0.99652,-12.528 12.683,-20.193 22.317,-26.319 5.689,-3.3564 12.361,-4.7726 18.927,-4.6656 z m 60.478,35.20599 c 14.342,0.5238 25.501,11.70401 33.375,22.64201 2.1123,3.51889 0.79277,8.40559 -3.1953,9.9234 -6.0096,4.1 -13.851,4.4942 -19.78,8.4578 -13.97,13.072 -21.098,32.73399 -37.614,43.15899 -4.9636,1.17971 -6.5845,-5.2518 -9.3109,-8.00779 -8.4444,-10.552 -22.088,-18.952 -23.756,-33.486 1.4377,-10.087 12.379,-13.711 19.075,-19.662 12.013,-9.8052 24.397,-23.35 41.206,-23.02701 z m 46.55,32.71001 c 12.114,1.5223 19.835,12.338 30.20601,17.677 6.921,4.5058 15.023,8.899 18.873,16.55899 2.2668,4.76271 -0.6552,9.79731 -4.7031,12.46601 -6.5626,5.33119 -16.054,9.1078 -17.983,18.225 -10.25701,13.61299 -22.82301,25.495 -31.28901,40.418 -2.5252,4.1634 -7.2802,10.3 -12.799,7.3804 -11.287,-8.5613 -20.715,-19.251 -29.936,-29.93 -6.7282,-6.9981 -15.413,-13.165 -19.348,-22.288 0.22994,-12.31001 11.784,-19.35101 19.502,-27.178 4.7716,-5.3974 7.8437,-12.095 13.35,-16.927 8.993,-9.121 20.931,-16.51 34.127,-16.403 z m 59.23101,47.788 c 6.4399,0.83344 11.676,5.5725 17.073,8.91409 10.101,7.49271 19.513,16.32501 26.612,26.71701 1.7834,3.3074 -1.9528,5.7332 -4.9047,5.7344 -7.9055,1.5946 -17.533,2.5888 -21.635,10.641 -9.3558,12.861 -18.547,26.154 -24.876,40.781 -4.0273,12.798 -1.6686,26.187 -1.4062,39.27999 -9.048,1.9137 -15.662,-6.4998 -20.706,-12.525 -7.01861,-14.04799 -22.84301,-21.05799 -29.68601,-35.29199 -5.0828,-8.4059 -5.4521,-20.429 2.1953,-27.466 10.242,-11.755 27.32301,-18.71 31.02201,-35.09101 0.123,-3.8142 4.9962,-4.425 6.9047,-7.51879 5.3426,-5.7636 10.379,-14.531 19.406,-14.175 z m 48.347,43.345 c 3.8467,0.006 8.4113,0.86088 9.2391,5.2641 5.1306,13.585 1.1289,28.949 -5.4645,41.295 -6.4735,10.605 -15.646,19.22899 -22.357,29.67199 -6.7686,8.08391 -15.745,13.97601 -24.311,19.917 -4.284,1.53291 -8.9372,-1.7028 -11.555,-4.51089 -1.767,-7.72281 5.2144,-14.062 4.1808,-21.789 0.2928,-9.3834 3.3468,-18.53301 8.9457,-26.071 4.9186,-9.4189 7.8511,-20.011 15.009,-28.123 5.9094,-8.62991 15.409,-15.911 26.312,-15.65501 z"
           fill="#fdfccf"
           id="path6"
           style="stroke-width:0.999998" /><g
           fill="#050301"
           id="g14"
           transform="matrix(-1,0,0,1,1113.5067,177.46379)"><path
             d="m 415.76,6.61 c 27.17,-3.58 51.76,13.53 71.01,30.62 27.1,23.19 47.4,52.87 69.03,80.96 11.93,13.96 20.84,30.22 27.95,47.07 7.77,24.45 11.46,49.88 17.3,74.78 4.91,19.48 -0.7,39.64 -10.41,56.6 -9.29,10.63 -18.42,21.81 -30.34,29.66 -27.28,16.44 -61.08,22.04 -92.06,14.46 -16.61,-8.34 -32.08,-19.67 -43.71,-34.29 -4.69,-4.84 -8.02,-11.71 -14.5,-14.36 -4,1.66 -6.69,5.29 -9.74,8.18 -17.13,19.18 -37.17,35.67 -53.01,56 -4.27,6.93 -11.8,10.86 -16.73,17.25 -3.84,5.3 -10.46,7.48 -14.33,12.74 -10.46,16.02 -23.09,30.95 -38.73,42.19 -6.39,4.78 -9.19,12.67 -15.13,17.87 -2.55,2.19 -4.77,4.76 -6.23,7.82 -5.98,11.53 -16.33,19.93 -22.87,31.09 -3.3,5.9 -9.6,9.11 -14.46,13.55 -14.51,13.17 -31.38,25.83 -37.72,45.21 -11.84,16.02 -29.48,26.62 -41.69,42.39 -16.94,15.18 -35.28,28.68 -53.45,42.31 -9.28,-2.83 -19.21,-3.96 -27.83,-8.59 C 51.22,614.59 46.35,607.08 40.22,600.8 30.2,590.74 20.53,579.33 16.82,565.33 10.09,553.84 3.16,539.86 8.45,526.51 11.27,515.68 19.2,507.33 25.14,498.15 33.59,485.33 47,477.29 58.23,467.21 c 18.1,-13.12 34.63,-28.07 52.32,-41.66 10.03,-7.31 21.92,-12.32 29.93,-22.16 12.34,-8.8 28.12,-11.5 40.63,-20.31 18.79,-9.66 33.36,-25.25 49.93,-38.04 26.8,-23.46 52.74,-47.97 79.68,-71.31 10.94,-6.21 15.83,-18.23 23.26,-27.75 3.85,-7.6 11.27,-13.04 13.97,-21.24 2.41,-9.98 1.96,-21.04 -4.08,-29.68 -8.04,-11.45 -16.54,-22.61 -26,-32.92 -9.43,-9.79 -16.08,-21.89 -21.06,-34.45 -4.6,-21.6 3.84,-43.77 17.63,-60.25 7.3,-8.02 14.28,-16.38 22.42,-23.58 23,-18.06 49.29,-33.82 78.9,-37.25 m -3,9.92 c -29.37,6.51 -54.53,24.9 -76.38,44.84 -9.18,7.62 -15.85,17.77 -22.34,27.65 -7.3,14.96 -4.24,33.33 5.45,46.46 3.08,2.87 7.52,5.11 11.8,3.9 22.55,-5.82 41.35,-20.63 59.33,-34.76 8.94,-9.5 21.02,-15.57 29.09,-25.93 11.41,-12.86 24.53,-26.4 26.11,-44.46 -4.72,-12.85 -19.69,-20.79 -33.06,-17.7 m 38.66,18.69 c -4.77,2.61 0.87,9.07 -0.6,13.02 -8.08,20.43 -24.24,35.94 -39.8,50.78 -15.76,13.44 -31.72,26.94 -49.8,37.2 -10.83,4.59 -21.86,8.77 -31.33,15.93 -1.5,2.99 -0.49,6.84 1.29,9.49 4.36,6.16 5.21,14.14 10.49,19.74 8,9.28 9.64,22.97 19.12,30.99 10.68,1.24 21.29,-4.42 32.13,-3.12 14.19,5.82 28.14,15.05 34.83,29.3 0.88,14.5 -5.24,28.79 -2,43.3 7.63,16.08 22.86,26.08 35.41,37.97 6.72,6.75 16.25,9.15 24.87,12.48 13.52,3.23 26.04,-3.79 38.55,-7.7 16.39,-5.79 29.88,-17.1 43.19,-27.84 13.32,-6.8 24.26,-20.89 23.06,-36.43 -1.37,-10.31 -2.96,-20.6 -4.35,-30.91 -1.38,-13.04 0.43,-27.9 -8.01,-38.97 -11.05,-20.97 -28.8,-39.54 -30.53,-64.28 0.31,-2.19 -0.63,-8.85 -4.5,-6.94 -9.14,7.09 -13.44,18.54 -21.71,26.5 -19.51,20.25 -40.53,38.9 -62.06,56.95 -8.34,6.41 -18.01,10.99 -25.27,18.77 -3.73,4.75 -10.62,0.71 -11.43,-4.3 12.09,-10.46 26.81,-17.59 37.82,-29.39 22.25,-13.39 39.72,-32.88 57.08,-51.87 6.16,-7.38 12.41,-16.3 10.11,-26.57 1.3,-17.92 -17.02,-26.78 -27.7,-37.59 -11.32,-8.28 -19.16,-20.62 -31.7,-27.32 -5.75,-2.81 -11.35,-7.37 -17.16,-9.19 M 382.56,219.5 c -6.7,0.77 -8.64,9.13 -13.11,12.96 -5.96,5.69 -12.24,11.09 -17.45,17.53 -6.15,7.1 -15.72,10.05 -21.66,17.36 -6.78,8.23 -14.64,15.57 -20.34,24.64 -17.65,19.87 -39.88,34.97 -58.94,53.32 4.6,13.49 18.45,21.67 30.71,27.9 4.01,1.43 2.87,6.84 5.56,9.59 4.18,2.69 9.06,-0.56 12.69,-2.77 9.92,-8.02 17.93,-18.08 26.87,-27.13 10.21,-9.24 16.75,-21.78 27.8,-30.21 16.64,-17.35 34.07,-33.91 50.84,-51.14 4.52,-4.68 12.75,-7.24 12.54,-14.84 C 422.72,235.86 401.81,219 382.56,219.5 M 233.12,364.83 c -8.96,1.37 -15.93,7.33 -23.55,11.67 -7.23,4.52 -8.18,17.12 -0.37,21.45 6.34,2.58 11.81,6.73 17.64,10.22 8.12,7.52 15.31,16.25 24.52,22.52 4.02,0 7.09,-4.02 10.52,-5.78 9.51,-7.45 20.08,-16.51 22.02,-29.13 0.98,-12.09 -9.65,-20.16 -18.69,-25.98 -9.39,-6.9 -20.61,-7.41 -32.09,-4.97 m -55.21,34.69 c -10.27,2.84 -18.17,10.82 -24.64,18.92 -2.11,2.15 -3.53,6.67 -0.55,8.68 5.99,4.52 13.7,5.72 20.43,8.62 14.46,12.79 21.63,32.32 37.59,43.65 2.87,1.86 4.49,-1.88 5.92,-3.72 7.83,-12.33 23.44,-20.06 25.84,-35.61 -1.47,-9.99 -12.92,-12.97 -19.2,-19.35 -12.97,-10.53 -26.9,-25.72 -45.39,-21.19 m -40.48,31.89 c -8.21,0.75 -14.19,6.96 -20.59,11.44 -7.55,5.9 -16.71,9.61 -23.33,16.67 -3.26,2.66 -5.69,7.13 -3.86,11.37 6.37,8.8 19.95,11.23 22.49,22.9 9.55,13.01 21.81,23.99 29.75,38.25 2.79,3.53 7.05,12.52 12.82,8.79 8.88,-7.41 17.39,-15.42 24.64,-24.46 7.3,-9.08 17.73,-15.5 23.28,-25.96 -0.53,-15.61 -18.36,-20.88 -24.4,-33.62 -9.42,-12.96 -23.95,-25.36 -40.8,-25.38 m -61.7,48.07 c -15.44,7.56 -28.79,19.7 -39.35,33.27 -2.54,4.19 1.15,4.01 3.2,4.66 6.55,1.49 14.02,2.04 19.2,6.86 10.3,13.08 19.32,27.14 27.07,41.88 5.83,13.3 3.37,28.09 2.96,42.09 7.23,1.03 12.54,-6.46 17.31,-11.14 6.33,-14.09 21.67,-20.66 28.86,-34.12 4.37,-6.54 6.46,-15.29 2.89,-22.66 -10.09,-15.73 -32.38,-22.21 -35.44,-42.52 -9.87,-4.95 -13.86,-20.9 -26.7,-18.32 m -50.76,43.69 c -0.4,0.16 -1.21,0.49 -1.61,0.66 -5.81,10.3 -3.87,23.24 -0.13,33.94 4.19,13.34 15.38,22.68 23.1,33.9 6.08,10.15 16.62,16.38 25.78,23.38 3.51,2.46 7.54,-0.84 10.44,-2.77 1.59,-6.91 -4.43,-12.21 -4.07,-18.99 -0.38,-8.44 -1.68,-17.07 -6.62,-24.18 -6.61,-9.34 -8.3,-21.26 -16.09,-29.9 -6.4,-10.35 -17.93,-19.12 -30.8,-16.04 z"
             id="path8" /><path
             d="m 467.35,75.4 c 1.95,-0.24 4.31,3.82 3.36,6.07 -28.63,18.81 -51.1,45.24 -72.99,71.24 -3.56,5.32 -9.18,9.65 -10.78,16.07 16.19,-5.92 28.05,-19.62 43.02,-27.8 11.75,-8.01 23.94,-15.25 35.28,-23.77 7.96,-3.39 15.14,-9.79 24.3,-9.13 7.81,2.05 6.52,12.53 0.93,16.41 -12.91,10.72 -23.91,23.4 -35.74,35.25 -8.69,9.08 -17.66,18.86 -20.58,31.41 -2.8,-1.51 -6.93,-3.66 -4.79,-7.79 2.21,-7.75 8.04,-13.87 13.09,-19.92 10.78,-11.45 19.66,-24.47 29.29,-36.85 1.98,-2.3 3.14,-5.17 3.47,-8.2 -7.74,3.38 -13.66,9.55 -20.47,14.35 -20.64,14.4 -42.3,27.28 -61.81,43.23 -5.33,2.53 -11.39,7.88 -17.45,6.25 -1.68,-6.52 1.24,-12.85 4.46,-18.31 23.62,-34.49 56.94,-60.51 87.41,-88.51 z"
             id="path10" /><path
             d="m 539.73,178.44 c 3.78,-2.23 7.72,2.38 6.03,5.93 -23.7,22.54 -51.79,40.22 -73.32,65.02 -1.93,3.21 -6.95,6.75 -4.88,11.01 12.72,5.22 24.73,-2.71 35.85,-8 16.9,-6.92 30.67,-21.04 49.25,-23.8 4.61,-0.83 12.32,-0.56 13.49,5.32 -15.13,17.11 -32.41,32.4 -52.08,44.12 -2.68,2.51 -8.19,4.12 -7.96,8.56 4.26,4.16 9.57,7.08 14.25,10.72 -2.12,5.91 -11.41,1.31 -15.98,2.81 -6.39,-0.1 -4.33,-8.77 -4.39,-12.82 2.84,-11.64 13.24,-18.36 22.23,-25.07 7.84,-7.64 17.88,-12.76 24.66,-21.51 0.92,-0.98 0.85,-2.36 0.83,-3.6 -5.81,0.05 -10.63,3.75 -15.87,5.76 -16.21,6.15 -30.97,15.5 -47.13,21.81 -8.88,3.86 -17.51,9.71 -27.77,8.33 -5.7,2.81 -6.92,-2.49 -5.21,-6.13 7.42,-15.25 21.5,-25.32 31.82,-38.35 18.16,-17.3 36.41,-34.64 56.18,-50.11 z"
             id="path12" /></g></g></g></g></svg>
