<?xml version="1.0" encoding="UTF-8" standalone="no"?>
<svg xmlns:rdf="http://www.w3.org/1999/02/22-rdf-syntax-ns#" xmlns="http://www.w3.org/2000/svg" height="635pt" width="609pt" version="1.1" xmlns:cc="http://creativecommons.org/ns#" xmlns:dc="http://purl.org/dc/elements/1.1/" viewBox="0 0 609 635">
<path d="m417.46 14.288c-19.111 2.5267-36.775 11.664-52.65 22.238-13.59 9.571-26.753 20.028-38.107 32.201-5.7939 7.3218-11.926 14.732-15.694 23.321-5.4787 15.043-2.0651 32.943 8.0578 45.198 4.4177 4.2576 11.098 5.1236 16.601 2.5536 21.743-6.9028 40.216-21.135 57.517-35.515 9.9343-9.4051 22.148-16.377 30.396-27.536 10.93-12.094 22.59-25.753 23.87-42.742-4.31-12.175-17.22-20.267-29.99-19.717zm33.155 19.548c-4.6262 2.471-2.0668 8.2991-1.1937 12.145-1.3916 7.257-6.1133 13.669-10.065 19.857-17.407 23.556-40.424 42.327-63.989 59.529-8.7377 6.62-18.805 11.369-29.005 15.476-6.2541 3.1141-13.157 6.0419-18.084 10.978-2.8672 6.6007 3.3111 12.092 5.2672 17.913 1.944 6.4988 6.0613 11.809 10.086 17.097 5.4278 9.0128 8.0163 20.184 16.497 27.083 11.322 1.7149 22.336-5.044 33.503-2.6312 13.221 5.597 26.202 14.449 32.534 27.666 0.88294 14.707-5.892 29.789-1.4828 44.375 8.4705 16.874 24.871 27.417 38.153 40.111 7.5267 5.5003 16.651 8.5011 25.498 10.941 14.287 1.9154 27.46-5.5357 40.634-9.7516 15.603-6.2547 28.155-17.802 41.531-27.531 14.38-7.9776 25.09-24.863 21.279-41.641-2.1404-14.567-4.467-29.122-4.8113-43.869-0.38309-8.8607-3.4427-17.372-8.5488-24.571-10.865-19.633-27.508-37.915-28.836-61.268 0.39164-3.6176-1.7066-9.8687-6.4281-8.1359-10.675 7.5995-15.112 20.959-24.969 29.475-19.749 20.007-40.711 39.095-62.608 56.606-8.2762 5.5004-16.905 10.745-23.823 17.933-3.1978 1.7979-9.764-3.6774-4.8637-5.6493 11.766-9.1979 25.075-16.628 35.597-27.38 23.164-14.359 41.663-34.867 59.435-55.209 5.568-6.9059 9.6046-15.859 7.7017-24.86 0.72846-13.096-9.9397-22.717-19.311-30.114-10.041-8.2438-19.602-17.004-28.676-26.312-7.5774-7.3597-17.305-11.788-26.319-17.055-1.4721-0.47585-3.2502-1.8523-4.7031-1.2062zm17.2 43.334c2.0003 1.5343 1.9426 4.1109-0.68124 4.7688-30.84 21.292-54.911 50.58-78.333 79.423-2.2203 2.9306-3.455 6.4442-4.2203 10.008 18.582-5.969 31.725-21.369 48.481-30.559 11.554-7.4439 22.999-15.169 34.358-22.83 7.368-3.239 14.804-10.036 23.292-7.7219 5.4884 3.7066 1.7628 11.952-3.0968 14.547-14.778 13.097-28.13 27.686-41.615 42.07-5.5525 6.418-10.511 13.625-12.874 21.866-3.2346-1.1384-3.0996-4.4941-1.5531-6.9687 5.9025-13.104 17.853-22.054 25.91-33.735 5.8337-8.108 12.533-15.675 17.846-24.115 1.2351-2.5443 1.5114-5.3978 1.825-8.1672-12.533 5.023-21.484 15.777-33.088 22.338-17.945 11.866-35.982 23.726-52.912 36.976-4.547 2.234-9.1319 6.411-14.364 5.6469-1.2306-11.793 8.3291-20.842 14.693-29.623 22.232-27.567 50.221-50.047 76.332-73.924zm74.153 102.29c2.9217 0.3956 3.6197 4.8622 0.45938 5.8406-24.758 23.23-54.714 41.353-75.491 68.656-2.3662 2.9885-2.0473 8.5862 2.5734 8.8094 13.443 3.8427 25.854-5.1604 37.572-10.236-12.321 6.3312-25.167 11.778-37.888 17.381-4.9796 2.249-10.569 1.1801-15.581 2.2424-2.8555-2.8884 1.2215-7.1336 2.5516-9.911 8.442-12.791 20.493-22.569 30.3-34.264 17.764-16.694 35.36-33.962 54.891-48.486 0.20147-0.0406 0.40785-0.0507 0.61249-0.0328zm14.577 50.391c2.8822 0.0173 6.6521 0.58653 7.8297 3.6516-15.317 17.486-33.253 32.405-52.967 44.561-3.314 1.8284-8.3901 5.4532-6.3984 9.6969 3.8262 3.9567 9.3866 6.7344 13.141 10.15-4.4898 2.2476-9.7585-0.55811-14.536 0.53594-3.9218-1.9577-1.6926-7.418-2.0281-10.928 3.518-13.588 17.517-19.76 26.864-28.603 7.0561-5.987 15.93-10.798 20.646-19.014 0.26044-1.9571 1.1484-5.5567-2.0375-4.3562-7.9085 0.74514-14.403 6.0322-21.875 8.3203-4.6647 2.0115-9.2363 4.2316-13.781 6.4984 14.652-7.774 28.033-19.67 45.144-20.512z" fill="#fcce9c"/>
<path d="m382.54 217.5c-8.9888 1.0318-10.648 11.972-17.428 16.302-9.1964 7.3596-15.319 18.072-25.946 23.664-10.529 6.3901-17.201 17.147-25.47 25.977-15.621 22.176-38.941 36.999-58.544 55.314-2.7244 2.9429-8.2951 5.4354-4.9648 9.793 6.0015 13.522 19.937 20.63 32.094 27.467 1.297 4.1131 2.7174 10.128 8.2812 9.7969 11.013-1.0198 17.993-11.291 25.412-18.335 10.14-11.026 21.012-21.358 29.952-33.442 8.1804-8.9008 17.411-16.744 25.621-25.655 12.791-12.435 25.08-25.43 38.026-37.677 5.6366-3.4066 11.221-8.5031 10.846-15.676 3.2267-21.129-18.17-38.11-37.879-37.529z" fill="#fa0101"/>
<path d="m244.28 361.9c-10.411 0.0423-20.726 3.0901-29.151 9.291-5.1042 3.0017-11.257 6.1056-12.465 12.573-2.1483 6.9258 1.6841 15.162 8.927 17.027 8.5456 4.4712 16.685 9.8494 23.018 17.281 5.2523 5.0321 10.405 10.861 16.802 14.216 5.8355-0.45885 9.8233-5.6687 14.518-8.5591 9.4449-7.6614 19.753-17.789 19.595-30.844-0.99652-12.528-12.683-20.193-22.317-26.319-5.689-3.3564-12.361-4.7726-18.927-4.6656zm-60.478 35.206c-14.342 0.5238-25.501 11.704-33.375 22.642-2.1123 3.5189-0.79277 8.4056 3.1953 9.9234 6.0096 4.1 13.851 4.4942 19.78 8.4578 13.97 13.072 21.098 32.734 37.614 43.159 4.9636 1.1797 6.5845-5.2518 9.3109-8.0078 8.4444-10.552 22.088-18.952 23.756-33.486-1.4377-10.087-12.379-13.711-19.075-19.662-12.013-9.8052-24.397-23.35-41.206-23.027zm-46.55 32.71c-12.114 1.5223-19.835 12.338-30.206 17.677-6.921 4.5058-15.023 8.899-18.873 16.559-2.2668 4.7627 0.65523 9.7973 4.7031 12.466 6.5626 5.3312 16.054 9.1078 17.983 18.225 10.257 13.613 22.823 25.495 31.289 40.418 2.5252 4.1634 7.2802 10.3 12.799 7.3804 11.287-8.5613 20.715-19.251 29.936-29.93 6.7282-6.9981 15.413-13.165 19.348-22.288-0.22994-12.31-11.784-19.351-19.502-27.178-4.7716-5.3974-7.8437-12.095-13.35-16.927-8.993-9.121-20.931-16.51-34.127-16.403zm-59.231 47.788c-6.4399 0.83345-11.676 5.5725-17.073 8.9141-10.101 7.4927-19.513 16.325-26.612 26.717-1.7834 3.3074 1.9528 5.7332 4.9047 5.7344 7.9055 1.5946 17.533 2.5888 21.635 10.641 9.3558 12.861 18.547 26.154 24.876 40.781 4.0273 12.798 1.6686 26.187 1.4062 39.28 9.048 1.9137 15.662-6.4998 20.706-12.525 7.0186-14.048 22.843-21.058 29.686-35.292 5.0828-8.4059 5.4521-20.429-2.1953-27.466-10.242-11.755-27.323-18.71-31.022-35.091-0.12304-3.8142-4.9962-4.425-6.9047-7.5188-5.3426-5.7636-10.379-14.531-19.406-14.175zm-48.347 43.345c-3.8467 0.006-8.4113 0.86089-9.2391 5.2641-5.1306 13.585-1.1289 28.949 5.4645 41.295 6.4735 10.605 15.646 19.229 22.357 29.672 6.7686 8.0839 15.745 13.976 24.311 19.917 4.284 1.5329 8.9372-1.7028 11.555-4.5109 1.767-7.7228-5.2144-14.062-4.1808-21.789-0.29277-9.3834-3.3468-18.533-8.9457-26.071-4.9186-9.4189-7.8511-20.011-15.009-28.123-5.9094-8.6299-15.409-15.911-26.312-15.655z" fill="#fdfccf"/>
<g fill="#050301">
<path d="m415.76 6.61c27.17-3.58 51.76 13.53 71.01 30.62 27.1 23.19 47.4 52.87 69.03 80.96 11.93 13.96 20.84 30.22 27.95 47.07 7.77 24.45 11.46 49.88 17.3 74.78 4.91 19.48-0.7 39.64-10.41 56.6-9.29 10.63-18.42 21.81-30.34 29.66-27.28 16.44-61.08 22.04-92.06 14.46-16.61-8.34-32.08-19.67-43.71-34.29-4.69-4.84-8.02-11.71-14.5-14.36-4 1.66-6.69 5.29-9.74 8.18-17.13 19.18-37.17 35.67-53.01 56-4.27 6.93-11.8 10.86-16.73 17.25-3.84 5.3-10.46 7.48-14.33 12.74-10.46 16.02-23.09 30.95-38.73 42.19-6.39 4.78-9.19 12.67-15.13 17.87-2.55 2.19-4.77 4.76-6.23 7.82-5.98 11.53-16.33 19.93-22.87 31.09-3.3 5.9-9.6 9.11-14.46 13.55-14.51 13.17-31.38 25.83-37.72 45.21-11.84 16.02-29.48 26.62-41.69 42.39-16.94 15.18-35.28 28.68-53.45 42.31-9.28-2.83-19.21-3.96-27.83-8.59-6.89-5.53-11.76-13.04-17.89-19.32-10.02-10.06-19.69-21.47-23.4-35.47-6.73-11.49-13.66-25.47-8.37-38.82 2.82-10.83 10.75-19.18 16.69-28.36 8.45-12.82 21.86-20.86 33.09-30.94 18.1-13.12 34.63-28.07 52.32-41.66 10.03-7.31 21.92-12.32 29.93-22.16 12.34-8.8 28.12-11.5 40.63-20.31 18.79-9.66 33.36-25.25 49.93-38.04 26.8-23.46 52.74-47.97 79.68-71.31 10.94-6.21 15.83-18.23 23.26-27.75 3.85-7.6 11.27-13.04 13.97-21.24 2.41-9.98 1.96-21.04-4.08-29.68-8.04-11.45-16.54-22.61-26-32.92-9.43-9.79-16.08-21.89-21.06-34.45-4.6-21.6 3.84-43.77 17.63-60.25 7.3-8.02 14.28-16.38 22.42-23.58 23-18.06 49.29-33.82 78.9-37.25m-3 9.92c-29.37 6.51-54.53 24.9-76.38 44.84-9.18 7.62-15.85 17.77-22.34 27.65-7.3 14.96-4.24 33.33 5.45 46.46 3.08 2.87 7.52 5.11 11.8 3.9 22.55-5.82 41.35-20.63 59.33-34.76 8.94-9.5 21.02-15.57 29.09-25.93 11.41-12.86 24.53-26.4 26.11-44.46-4.72-12.85-19.69-20.79-33.06-17.7m38.66 18.69c-4.77 2.61 0.87 9.07-0.6 13.02-8.08 20.43-24.24 35.94-39.8 50.78-15.76 13.44-31.72 26.94-49.8 37.2-10.83 4.59-21.86 8.77-31.33 15.93-1.5 2.99-0.49 6.84 1.29 9.49 4.36 6.16 5.21 14.14 10.49 19.74 8 9.28 9.64 22.97 19.12 30.99 10.68 1.24 21.29-4.42 32.13-3.12 14.19 5.82 28.14 15.05 34.83 29.3 0.88 14.5-5.24 28.79-2 43.3 7.63 16.08 22.86 26.08 35.41 37.97 6.72 6.75 16.25 9.15 24.87 12.48 13.52 3.23 26.04-3.79 38.55-7.7 16.39-5.79 29.88-17.1 43.19-27.84 13.32-6.8 24.26-20.89 23.06-36.43-1.37-10.31-2.96-20.6-4.35-30.91-1.38-13.04 0.43-27.9-8.01-38.97-11.05-20.97-28.8-39.54-30.53-64.28 0.31-2.19-0.63-8.85-4.5-6.94-9.14 7.09-13.44 18.54-21.71 26.5-19.51 20.25-40.53 38.9-62.06 56.95-8.34 6.41-18.01 10.99-25.27 18.77-3.73 4.75-10.62 0.71-11.43-4.3 12.09-10.46 26.81-17.59 37.82-29.39 22.25-13.39 39.72-32.88 57.08-51.87 6.16-7.38 12.41-16.3 10.11-26.57 1.3-17.92-17.02-26.78-27.7-37.59-11.32-8.28-19.16-20.62-31.7-27.32-5.75-2.81-11.35-7.37-17.16-9.19m-68.86 184.28c-6.7 0.77-8.64 9.13-13.11 12.96-5.96 5.69-12.24 11.09-17.45 17.53-6.15 7.1-15.72 10.05-21.66 17.36-6.78 8.23-14.64 15.57-20.34 24.64-17.65 19.87-39.88 34.97-58.94 53.32 4.6 13.49 18.45 21.67 30.71 27.9 4.01 1.43 2.87 6.84 5.56 9.59 4.18 2.69 9.06-0.56 12.69-2.77 9.92-8.02 17.93-18.08 26.87-27.13 10.21-9.24 16.75-21.78 27.8-30.21 16.64-17.35 34.07-33.91 50.84-51.14 4.52-4.68 12.75-7.24 12.54-14.84 4.65-20.85-16.26-37.71-35.51-37.21m-149.44 145.33c-8.96 1.37-15.93 7.33-23.55 11.67-7.23 4.52-8.18 17.12-0.37 21.45 6.34 2.58 11.81 6.73 17.64 10.22 8.12 7.52 15.31 16.25 24.52 22.52 4.02 0 7.09-4.02 10.52-5.78 9.51-7.45 20.08-16.51 22.02-29.13 0.98-12.09-9.65-20.16-18.69-25.98-9.39-6.9-20.61-7.41-32.09-4.97m-55.21 34.69c-10.27 2.84-18.17 10.82-24.64 18.92-2.11 2.15-3.53 6.67-0.55 8.68 5.99 4.52 13.7 5.72 20.43 8.62 14.46 12.79 21.63 32.32 37.59 43.65 2.87 1.86 4.49-1.88 5.92-3.72 7.83-12.33 23.44-20.06 25.84-35.61-1.47-9.99-12.92-12.97-19.2-19.35-12.97-10.53-26.9-25.72-45.39-21.19m-40.48 31.89c-8.21 0.75-14.19 6.96-20.59 11.44-7.55 5.9-16.71 9.61-23.33 16.67-3.26 2.66-5.69 7.13-3.86 11.37 6.37 8.8 19.95 11.23 22.49 22.9 9.55 13.01 21.81 23.99 29.75 38.25 2.79 3.53 7.05 12.52 12.82 8.79 8.88-7.41 17.39-15.42 24.64-24.46 7.3-9.08 17.73-15.5 23.28-25.96-0.53-15.61-18.36-20.88-24.4-33.62-9.42-12.96-23.95-25.36-40.8-25.38m-61.7 48.07c-15.44 7.56-28.79 19.7-39.35 33.27-2.54 4.19 1.15 4.01 3.2 4.66 6.55 1.49 14.02 2.04 19.2 6.86 10.3 13.08 19.32 27.14 27.07 41.88 5.83 13.3 3.37 28.09 2.96 42.09 7.23 1.03 12.54-6.46 17.31-11.14 6.33-14.09 21.67-20.66 28.86-34.12 4.37-6.54 6.46-15.29 2.89-22.66-10.09-15.73-32.38-22.21-35.44-42.52-9.87-4.95-13.86-20.9-26.7-18.32m-50.76 43.69c-0.4 0.16-1.21 0.49-1.61 0.66-5.81 10.3-3.87 23.24-0.13 33.94 4.19 13.34 15.38 22.68 23.1 33.9 6.08 10.15 16.62 16.38 25.78 23.38 3.51 2.46 7.54-0.84 10.44-2.77 1.59-6.91-4.43-12.21-4.07-18.99-0.38-8.44-1.68-17.07-6.62-24.18-6.61-9.34-8.3-21.26-16.09-29.9-6.4-10.35-17.93-19.12-30.8-16.04z"/>
<path d="m467.35 75.4c1.95-0.24 4.31 3.82 3.36 6.07-28.63 18.81-51.1 45.24-72.99 71.24-3.56 5.32-9.18 9.65-10.78 16.07 16.19-5.92 28.05-19.62 43.02-27.8 11.75-8.01 23.94-15.25 35.28-23.77 7.96-3.39 15.14-9.79 24.3-9.13 7.81 2.05 6.52 12.53 0.93 16.41-12.91 10.72-23.91 23.4-35.74 35.25-8.69 9.08-17.66 18.86-20.58 31.41-2.8-1.51-6.93-3.66-4.79-7.79 2.21-7.75 8.04-13.87 13.09-19.92 10.78-11.45 19.66-24.47 29.29-36.85 1.98-2.3 3.14-5.17 3.47-8.2-7.74 3.38-13.66 9.55-20.47 14.35-20.64 14.4-42.3 27.28-61.81 43.23-5.33 2.53-11.39 7.88-17.45 6.25-1.68-6.52 1.24-12.85 4.46-18.31 23.62-34.49 56.94-60.51 87.41-88.51z"/>
<path d="m539.73 178.44c3.78-2.23 7.72 2.38 6.03 5.93-23.7 22.54-51.79 40.22-73.32 65.02-1.93 3.21-6.95 6.75-4.88 11.01 12.72 5.22 24.73-2.71 35.85-8 16.9-6.92 30.67-21.04 49.25-23.8 4.61-0.83 12.32-0.56 13.49 5.32-15.13 17.11-32.41 32.4-52.08 44.12-2.68 2.51-8.19 4.12-7.96 8.56 4.26 4.16 9.57 7.08 14.25 10.72-2.12 5.91-11.41 1.31-15.98 2.81-6.39-0.1-4.33-8.77-4.39-12.82 2.84-11.64 13.24-18.36 22.23-25.07 7.84-7.64 17.88-12.76 24.66-21.51 0.92-0.98 0.85-2.36 0.83-3.6-5.81 0.05-10.63 3.75-15.87 5.76-16.21 6.15-30.97 15.5-47.13 21.81-8.88 3.86-17.51 9.71-27.77 8.33-5.7 2.81-6.92-2.49-5.21-6.13 7.42-15.25 21.5-25.32 31.82-38.35 18.16-17.3 36.41-34.64 56.18-50.11z"/>
</g>
</svg>
