<?xml version="1.0" encoding="UTF-8" standalone="no"?>
<!-- Created with Inkscape (http://www.inkscape.org/) -->

<svg
   xmlns:ns0="http://www.iki.fi/pav/software/textext/"
   xmlns:dc="http://purl.org/dc/elements/1.1/"
   xmlns:cc="http://creativecommons.org/ns#"
   xmlns:rdf="http://www.w3.org/1999/02/22-rdf-syntax-ns#"
   xmlns:svg="http://www.w3.org/2000/svg"
   xmlns="http://www.w3.org/2000/svg"
   xmlns:sodipodi="http://sodipodi.sourceforge.net/DTD/sodipodi-0.dtd"
   xmlns:inkscape="http://www.inkscape.org/namespaces/inkscape"
   version="1.1"
   id="svg2"
   xml:space="preserve"
   width="418.84399"
   height="255.10008"
   viewBox="0 0 418.84399 255.10008"
   sodipodi:docname="lagrange_objfunction_constrained.svg"
   inkscape:version="0.92.3 (2405546, 2018-03-11)"><sodipodi:namedview
     pagecolor="#ffffff"
     bordercolor="#666666"
     borderopacity="1"
     objecttolerance="10"
     gridtolerance="10"
     guidetolerance="10"
     inkscape:pageopacity="0"
     inkscape:pageshadow="2"
     inkscape:window-width="1533"
     inkscape:window-height="845"
     id="namedview4"
     showgrid="false"
     inkscape:zoom="2.6166546"
     inkscape:cx="202.05943"
     inkscape:cy="94.232987"
     inkscape:window-x="67"
     inkscape:window-y="27"
     inkscape:window-maximized="1"
     inkscape:current-layer="g10" /><metadata
     id="metadata8"><rdf:RDF><cc:Work
         rdf:about=""><dc:format>image/svg+xml</dc:format><dc:type
           rdf:resource="http://purl.org/dc/dcmitype/StillImage" /><dc:title></dc:title></cc:Work></rdf:RDF></metadata><defs
     id="defs6" /><g
     transform="matrix(1.3333333,0,0,1.3333333,0,9.0441686e-6)"
     inkscape:label="lagrange_objfunction_constrained"
     inkscape:groupmode="layer"
     id="g10"><g
   id="g12"><g
     id="g14"><path
       inkscape:connector-curvature="0"
       id="path16"
       style="fill:#ffffff;fill-opacity:1;fill-rule:evenodd;stroke:#ff0000;stroke-width:1.35599995;stroke-linecap:butt;stroke-linejoin:round;stroke-miterlimit:4;stroke-dasharray:none;stroke-opacity:1"
       d="M 88.188,20.738 V 158.176 L 248.234,131.059 V 20.195 Z" /></g><g
     id="g18"><path
       inkscape:connector-curvature="0"
       id="path20"
       style="fill:#ffffff;fill-opacity:1;fill-rule:evenodd;stroke:#ff0000;stroke-width:1.35599995;stroke-linecap:butt;stroke-linejoin:round;stroke-miterlimit:4;stroke-dasharray:none;stroke-opacity:1"
       d="m 88.188,158.176 0.011,0.004 160.047,-27.121 h -0.012 z" /></g><g
     id="g22"><path
       inkscape:connector-curvature="0"
       id="path24"
       style="fill:#ffffff;fill-opacity:1;fill-rule:evenodd;stroke:#ff0000;stroke-width:1.35599995;stroke-linecap:butt;stroke-linejoin:round;stroke-miterlimit:4;stroke-dasharray:none;stroke-opacity:1"
       d="m 248.234,20.195 h 0.012 v 110.863 h -0.012 z" /></g><g
     id="g26"><path
       inkscape:connector-curvature="0"
       id="path28"
       style="fill:#ffffff;fill-opacity:1;fill-rule:evenodd;stroke:#ff0000;stroke-width:1.35599995;stroke-linecap:butt;stroke-linejoin:round;stroke-miterlimit:4;stroke-dasharray:none;stroke-opacity:1"
       d="m 88.188,20.738 h 0.011 l 160.047,-0.543 h -0.012 z" /></g><g
     id="g30"><path
       inkscape:connector-curvature="0"
       id="path32"
       style="fill:#ffffff;fill-opacity:1;fill-rule:evenodd;stroke:#ff0000;stroke-width:1.35599995;stroke-linecap:butt;stroke-linejoin:round;stroke-miterlimit:4;stroke-dasharray:none;stroke-opacity:1"
       d="M 88.199,20.738 V 158.18 L 248.246,131.059 V 20.195 Z" /></g><g
     id="g34"><path
       inkscape:connector-curvature="0"
       id="path36"
       style="fill:#ffffff;fill-opacity:1;fill-rule:evenodd;stroke:#ff0000;stroke-width:1.35599995;stroke-linecap:butt;stroke-linejoin:round;stroke-miterlimit:4;stroke-dasharray:none;stroke-opacity:1"
       d="m 88.188,20.738 h 0.011 V 158.18 l -0.011,-0.004 z" /></g><g
     id="g38"><path
       inkscape:connector-curvature="0"
       id="path40"
       style="fill:#ffffff;fill-opacity:1;fill-rule:nonzero;stroke:#ffffff;stroke-width:0.163176;stroke-linecap:butt;stroke-linejoin:miter;stroke-miterlimit:4;stroke-dasharray:none;stroke-opacity:1"
       d="m 246.84,80.754 h 3.672 v 48.348 h -3.672 z" /></g><g
     id="g42"><path
       inkscape:connector-curvature="0"
       id="path44"
       style="fill:none;stroke:#f80000;stroke-width:1.43099201;stroke-linecap:butt;stroke-linejoin:miter;stroke-miterlimit:4;stroke-dasharray:8.585954, 8.585954;stroke-dashoffset:0;stroke-opacity:1"
       d="m 248.312,82.004 -0.066,56.297" /></g><g
     id="g46"><path
       inkscape:connector-curvature="0"
       id="path48"
       style="fill:none;stroke:#000000;stroke-width:0.55859101;stroke-linecap:butt;stroke-linejoin:miter;stroke-miterlimit:4;stroke-dasharray:none;stroke-opacity:1"
       d="M 22.238,111.777 22.094,75.004" /></g><g
     transform="matrix(0.00387661,1,-1,0.00387661,0,0)"
     id="g50"><path
       inkscape:connector-curvature="0"
       id="path52"
       style="fill:#000000;fill-opacity:1;fill-rule:evenodd;stroke:#000000;stroke-width:0.29791301;stroke-linecap:butt;stroke-linejoin:miter;stroke-miterlimit:4;stroke-dasharray:none;stroke-opacity:1"
       d="m 77.323,-21.806 1.117,-1.116 -3.91,1.117 3.91,1.117 z" /></g><g
     id="g54"><path
       inkscape:connector-curvature="0"
       id="path56"
       style="fill:none;stroke:#000000;stroke-width:0.66988802;stroke-linecap:butt;stroke-linejoin:miter;stroke-miterlimit:4;stroke-dasharray:none;stroke-opacity:1"
       d="M 22.336,111.785 39.93,98.352" /></g><g
     transform="matrix(-1,0.763397,-0.763397,-1,0,0)"
     id="g58"><path
       inkscape:connector-curvature="0"
       id="path60"
       style="fill:#000000;fill-opacity:1;fill-rule:evenodd;stroke:#000000;stroke-width:0.28398201;stroke-linecap:butt;stroke-linejoin:miter;stroke-miterlimit:4;stroke-dasharray:none;stroke-opacity:1"
       d="m 24.338,-81.397 1.066,-1.065 -3.727,1.065 3.727,1.064 z" /></g><g
     id="g62"><path
       inkscape:connector-curvature="0"
       id="path64"
       style="fill:none;stroke:#000000;stroke-width:0.594769;stroke-linecap:butt;stroke-linejoin:miter;stroke-miterlimit:4;stroke-dasharray:none;stroke-opacity:1"
       d="m 22.23,111.809 19.399,17.656" /></g><g
     transform="matrix(-1,-0.910095,0.910095,-1,0,0)"
     id="g66"><path
       inkscape:connector-curvature="0"
       id="path68"
       style="fill:#000000;fill-opacity:1;fill-rule:evenodd;stroke:#000000;stroke-width:0.23459899;stroke-linecap:butt;stroke-linejoin:miter;stroke-miterlimit:4;stroke-dasharray:none;stroke-opacity:1"
       d="m -85.455,-50.091 0.88,-0.879 -3.078,0.88 3.077,0.879 z" /></g><path
     inkscape:connector-curvature="0"
     id="path70"
     style="fill:#000000;fill-opacity:1;fill-rule:nonzero;stroke:none"
     d="m 36.41,91.027 c 0.051,-0.238 0.152,-0.648 0.152,-0.715 0,-0.187 -0.152,-0.289 -0.308,-0.289 -0.137,0 -0.324,0.086 -0.41,0.305 -0.032,0.07 -0.543,2.152 -0.614,2.442 -0.085,0.324 -0.101,0.511 -0.101,0.714 0,0.121 0,0.137 0.016,0.188 -0.254,0.582 -0.579,0.922 -1.004,0.922 -0.871,0 -0.871,-0.801 -0.871,-0.989 0,-0.339 0.05,-0.769 0.562,-2.117 0.121,-0.324 0.188,-0.476 0.188,-0.699 0,-0.477 -0.36,-0.887 -0.887,-0.887 -1.039,0 -1.434,1.586 -1.434,1.672 0,0.121 0.102,0.121 0.121,0.121 0.118,0 0.118,-0.035 0.168,-0.207 0.309,-1.004 0.719,-1.347 1.11,-1.347 0.105,0 0.273,0.019 0.273,0.359 0,0.273 -0.117,0.582 -0.203,0.77 -0.48,1.277 -0.598,1.773 -0.598,2.199 0,0.988 0.715,1.363 1.535,1.363 0.188,0 0.7,0 1.125,-0.766 0.29,0.7 1.043,0.766 1.368,0.766 0.816,0 1.297,-0.68 1.586,-1.328 0.355,-0.856 0.714,-2.32 0.714,-2.832 0,-0.598 -0.289,-0.77 -0.476,-0.77 -0.274,0 -0.547,0.289 -0.547,0.532 0,0.136 0.07,0.203 0.152,0.289 0.121,0.117 0.395,0.39 0.395,0.922 0,0.375 -0.309,1.433 -0.598,1.996 -0.273,0.578 -0.664,0.953 -1.195,0.953 -0.512,0 -0.801,-0.324 -0.801,-0.953 0,-0.293 0.07,-0.633 0.121,-0.786 z" /><path
     inkscape:connector-curvature="0"
     id="path72"
     style="fill:#000000;fill-opacity:1;fill-rule:nonzero;stroke:none"
     d="m 41.703,91.5 c 0,-0.203 0,-0.203 -0.219,-0.203 -0.496,0.476 -1.179,0.476 -1.484,0.476 v 0.274 c 0.168,0 0.68,0 1.09,-0.207 v 3.875 c 0,0.254 0,0.359 -0.75,0.359 h -0.289 v 0.27 c 0.137,0 1.074,-0.032 1.347,-0.032 0.239,0 1.196,0.032 1.364,0.032 v -0.27 h -0.289 c -0.77,0 -0.77,-0.105 -0.77,-0.359 z" /><path
     inkscape:connector-curvature="0"
     id="path74"
     style="fill:#000000;fill-opacity:1;fill-rule:nonzero;stroke:none"
     d="m 33.172,133.582 c 0.051,-0.238 0.156,-0.648 0.156,-0.715 0,-0.187 -0.156,-0.289 -0.308,-0.289 -0.137,0 -0.325,0.082 -0.411,0.305 -0.035,0.07 -0.547,2.148 -0.613,2.441 -0.086,0.324 -0.101,0.512 -0.101,0.715 0,0.121 0,0.137 0.015,0.188 -0.254,0.582 -0.578,0.921 -1.008,0.921 -0.867,0 -0.867,-0.8 -0.867,-0.988 0,-0.344 0.051,-0.769 0.563,-2.117 0.117,-0.324 0.187,-0.477 0.187,-0.699 0,-0.477 -0.359,-0.887 -0.887,-0.887 -1.043,0 -1.433,1.586 -1.433,1.672 0,0.121 0.101,0.121 0.121,0.121 0.117,0 0.117,-0.035 0.168,-0.207 0.308,-1.008 0.719,-1.348 1.109,-1.348 0.102,0 0.274,0.016 0.274,0.36 0,0.273 -0.121,0.578 -0.203,0.765 -0.481,1.282 -0.598,1.778 -0.598,2.203 0,0.989 0.715,1.364 1.535,1.364 0.188,0 0.699,0 1.125,-0.766 0.289,0.699 1.039,0.766 1.363,0.766 0.821,0 1.297,-0.684 1.59,-1.332 0.356,-0.852 0.715,-2.321 0.715,-2.832 0,-0.594 -0.289,-0.766 -0.476,-0.766 -0.274,0 -0.547,0.289 -0.547,0.527 0,0.137 0.066,0.207 0.152,0.293 0.121,0.118 0.395,0.391 0.395,0.918 0,0.375 -0.309,1.434 -0.598,1.996 -0.274,0.582 -0.664,0.957 -1.195,0.957 -0.512,0 -0.801,-0.324 -0.801,-0.957 0,-0.289 0.066,-0.629 0.117,-0.785 z" /><path
     inkscape:connector-curvature="0"
     id="path76"
     style="fill:#000000;fill-opacity:1;fill-rule:nonzero;stroke:none"
     d="m 39.766,137.516 h -0.254 c -0.02,0.172 -0.106,0.617 -0.207,0.683 -0.051,0.051 -0.629,0.051 -0.75,0.051 h -1.399 c 0.801,-0.699 1.074,-0.922 1.52,-1.277 0.562,-0.446 1.09,-0.922 1.09,-1.641 0,-0.918 -0.801,-1.484 -1.774,-1.484 -0.937,0 -1.586,0.668 -1.586,1.367 0,0.375 0.324,0.426 0.41,0.426 0.168,0 0.391,-0.137 0.391,-0.411 0,-0.136 -0.051,-0.41 -0.445,-0.41 0.242,-0.527 0.754,-0.699 1.109,-0.699 0.77,0 1.16,0.598 1.16,1.211 0,0.668 -0.476,1.18 -0.715,1.453 l -1.824,1.824 c -0.086,0.067 -0.086,0.086 -0.086,0.289 h 3.137 z" /><path
     inkscape:connector-curvature="0"
     id="path78"
     style="fill:#000000;fill-opacity:1;fill-rule:nonzero;stroke:none"
     d="M 3.191,62.75 H 4.07 c 0.207,0 0.305,0 0.305,-0.207 0,-0.113 -0.098,-0.113 -0.273,-0.113 H 3.258 l 0.207,-1.164 c 0.047,-0.207 0.191,-0.926 0.254,-1.055 0.078,-0.191 0.254,-0.352 0.48,-0.352 0.031,0 0.301,0 0.492,0.196 -0.445,0.031 -0.558,0.398 -0.558,0.539 0,0.242 0.191,0.367 0.383,0.367 0.273,0 0.558,-0.238 0.558,-0.621 0,-0.461 -0.461,-0.703 -0.875,-0.703 -0.351,0 -0.992,0.191 -1.293,1.199 C 2.84,61.043 2.809,61.152 2.57,62.43 H 1.867 c -0.207,0 -0.32,0 -0.32,0.191 0,0.129 0.098,0.129 0.289,0.129 h 0.672 l -0.754,4.023 c -0.192,0.989 -0.367,1.915 -0.891,1.915 -0.051,0 -0.289,0 -0.496,-0.192 0.481,-0.031 0.574,-0.398 0.574,-0.543 0,-0.238 -0.191,-0.367 -0.382,-0.367 -0.27,0 -0.559,0.238 -0.559,0.621 0,0.449 0.445,0.703 0.863,0.703 0.559,0 0.973,-0.605 1.149,-0.988 0.336,-0.637 0.558,-1.867 0.574,-1.949 z" /><path
     inkscape:connector-curvature="0"
     id="path80"
     style="fill:#000000;fill-opacity:1;fill-rule:nonzero;stroke:none"
     d="m 8.902,69.262 c 0,-0.032 0,-0.047 -0.175,-0.223 -1.262,-1.277 -1.594,-3.207 -1.594,-4.773 0,-1.77 0.383,-3.543 1.644,-4.805 0.125,-0.125 0.125,-0.141 0.125,-0.176 0,-0.078 -0.031,-0.109 -0.093,-0.109 -0.114,0 -1.024,0.703 -1.629,1.996 -0.512,1.117 -0.641,2.25 -0.641,3.094 0,0.8 0.113,2.027 0.672,3.191 0.621,1.246 1.484,1.918 1.598,1.918 0.062,0 0.093,-0.031 0.093,-0.113 z" /><path
     inkscape:connector-curvature="0"
     id="path82"
     style="fill:#000000;fill-opacity:1;fill-rule:nonzero;stroke:none"
     d="m 14.199,63.371 c 0.051,-0.223 0.145,-0.605 0.145,-0.668 0,-0.176 -0.145,-0.273 -0.285,-0.273 -0.129,0 -0.305,0.082 -0.383,0.289 -0.035,0.062 -0.512,2.011 -0.574,2.281 -0.082,0.305 -0.098,0.48 -0.098,0.672 0,0.109 0,0.129 0.016,0.176 -0.239,0.543 -0.543,0.859 -0.942,0.859 -0.812,0 -0.812,-0.75 -0.812,-0.926 0,-0.316 0.046,-0.715 0.527,-1.976 0.109,-0.305 0.172,-0.45 0.172,-0.657 0,-0.445 -0.332,-0.828 -0.828,-0.828 -0.973,0 -1.34,1.485 -1.34,1.563 0,0.113 0.094,0.113 0.109,0.113 0.114,0 0.114,-0.031 0.16,-0.191 0.289,-0.942 0.672,-1.262 1.039,-1.262 0.094,0 0.254,0.016 0.254,0.336 0,0.254 -0.109,0.543 -0.191,0.719 -0.445,1.195 -0.559,1.66 -0.559,2.058 0,0.926 0.672,1.278 1.438,1.278 0.176,0 0.652,0 1.055,-0.719 0.269,0.652 0.972,0.719 1.273,0.719 0.77,0 1.215,-0.641 1.484,-1.246 0.336,-0.797 0.672,-2.172 0.672,-2.649 0,-0.559 -0.269,-0.719 -0.445,-0.719 -0.258,0 -0.512,0.27 -0.512,0.492 0,0.129 0.063,0.192 0.145,0.274 0.109,0.109 0.367,0.367 0.367,0.863 0,0.348 -0.289,1.34 -0.559,1.867 -0.257,0.543 -0.625,0.891 -1.117,0.891 -0.48,0 -0.75,-0.301 -0.75,-0.891 0,-0.273 0.063,-0.593 0.11,-0.734 z" /><path
     inkscape:connector-curvature="0"
     id="path84"
     style="fill:#000000;fill-opacity:1;fill-rule:nonzero;stroke:none"
     d="m 19.156,63.812 c 0,-0.191 0,-0.191 -0.207,-0.191 -0.461,0.449 -1.101,0.449 -1.387,0.449 v 0.254 c 0.161,0 0.637,0 1.02,-0.191 v 3.625 c 0,0.238 0,0.332 -0.703,0.332 h -0.27 v 0.258 c 0.129,0 1.004,-0.032 1.262,-0.032 0.223,0 1.117,0.032 1.277,0.032 V 68.09 h -0.273 c -0.719,0 -0.719,-0.094 -0.719,-0.332 z" /><path
     inkscape:connector-curvature="0"
     id="path86"
     style="fill:#000000;fill-opacity:1;fill-rule:nonzero;stroke:none"
     d="m 23.418,66.805 c 0,-0.672 -0.254,-1.071 -0.652,-1.071 -0.336,0 -0.543,0.258 -0.543,0.543 0,0.274 0.207,0.543 0.543,0.543 0.109,0 0.254,-0.047 0.351,-0.129 0.031,-0.031 0.047,-0.031 0.047,-0.031 0.016,0 0.016,0 0.016,0.145 0,0.765 -0.352,1.371 -0.688,1.707 -0.109,0.113 -0.109,0.129 -0.109,0.16 0,0.078 0.047,0.113 0.094,0.113 0.113,0 0.941,-0.785 0.941,-1.98 z" /><path
     inkscape:connector-curvature="0"
     id="path88"
     style="fill:#000000;fill-opacity:1;fill-rule:nonzero;stroke:none"
     d="m 30.578,63.371 c 0.051,-0.223 0.145,-0.605 0.145,-0.668 0,-0.176 -0.145,-0.273 -0.285,-0.273 -0.129,0 -0.305,0.082 -0.387,0.289 -0.031,0.062 -0.508,2.011 -0.574,2.281 -0.079,0.305 -0.094,0.48 -0.094,0.672 0,0.109 0,0.129 0.015,0.176 -0.238,0.543 -0.543,0.859 -0.941,0.859 -0.816,0 -0.816,-0.75 -0.816,-0.926 0,-0.316 0.05,-0.715 0.527,-1.976 0.113,-0.305 0.176,-0.45 0.176,-0.657 0,-0.445 -0.336,-0.828 -0.828,-0.828 -0.973,0 -1.34,1.485 -1.34,1.563 0,0.113 0.094,0.113 0.109,0.113 0.113,0 0.113,-0.031 0.16,-0.191 0.289,-0.942 0.672,-1.262 1.039,-1.262 0.094,0 0.254,0.016 0.254,0.336 0,0.254 -0.113,0.543 -0.191,0.719 -0.445,1.195 -0.559,1.66 -0.559,2.058 0,0.926 0.672,1.278 1.438,1.278 0.176,0 0.652,0 1.051,-0.719 0.273,0.652 0.976,0.719 1.277,0.719 0.766,0 1.215,-0.641 1.484,-1.246 0.336,-0.797 0.672,-2.172 0.672,-2.649 0,-0.559 -0.273,-0.719 -0.449,-0.719 -0.254,0 -0.508,0.27 -0.508,0.492 0,0.129 0.063,0.192 0.141,0.274 0.113,0.109 0.367,0.367 0.367,0.863 0,0.348 -0.285,1.34 -0.559,1.867 -0.254,0.543 -0.621,0.891 -1.117,0.891 -0.476,0 -0.75,-0.301 -0.75,-0.891 0,-0.273 0.067,-0.593 0.113,-0.734 z" /><path
     inkscape:connector-curvature="0"
     id="path90"
     style="fill:#000000;fill-opacity:1;fill-rule:nonzero;stroke:none"
     d="m 36.742,67.055 h -0.238 c -0.016,0.16 -0.094,0.574 -0.192,0.636 -0.046,0.047 -0.589,0.047 -0.703,0.047 h -1.308 c 0.75,-0.652 1.008,-0.859 1.422,-1.195 0.527,-0.414 1.019,-0.863 1.019,-1.531 0,-0.864 -0.75,-1.391 -1.656,-1.391 -0.879,0 -1.484,0.625 -1.484,1.277 0,0.352 0.3,0.399 0.382,0.399 0.157,0 0.368,-0.125 0.368,-0.383 0,-0.125 -0.051,-0.383 -0.418,-0.383 0.226,-0.496 0.703,-0.652 1.039,-0.652 0.718,0 1.086,0.559 1.086,1.133 0,0.621 -0.45,1.101 -0.672,1.355 l -1.707,1.707 c -0.078,0.067 -0.078,0.082 -0.078,0.274 h 2.933 z" /><path
     inkscape:connector-curvature="0"
     id="path92"
     style="fill:#000000;fill-opacity:1;fill-rule:nonzero;stroke:none"
     d="m 40.656,64.266 c 0,-0.782 -0.113,-2.012 -0.672,-3.176 -0.605,-1.246 -1.484,-1.914 -1.578,-1.914 -0.066,0 -0.113,0.047 -0.113,0.109 0,0.035 0,0.051 0.191,0.242 1.008,1.004 1.582,2.618 1.582,4.739 0,1.757 -0.367,3.543 -1.628,4.82 -0.145,0.129 -0.145,0.144 -0.145,0.176 0,0.066 0.047,0.113 0.113,0.113 0.094,0 1.02,-0.703 1.61,-1.996 0.527,-1.117 0.64,-2.25 0.64,-3.113 z" /><g
     id="g94"><path
       inkscape:connector-curvature="0"
       id="path96"
       style="fill:none;stroke:#000000;stroke-width:0.87639397;stroke-linecap:butt;stroke-linejoin:miter;stroke-miterlimit:4;stroke-dasharray:none;stroke-opacity:1"
       d="m 70.07,106.414 c -1.234,-27.828 97.504,-223.121 188.989,-1.277" /></g><g
     id="g98"><path
       inkscape:connector-curvature="0"
       id="path100"
       style="fill:none;stroke:#000000;stroke-width:0.75;stroke-linecap:butt;stroke-linejoin:miter;stroke-miterlimit:4;stroke-dasharray:none;stroke-opacity:1"
       d="m 100.008,41.59 c 0,0 83.035,15 121.34,-4.555" /></g><g
     id="g102"><path
       inkscape:connector-curvature="0"
       id="path104"
       style="fill:none;stroke:#000000;stroke-width:0.75;stroke-linecap:butt;stroke-linejoin:miter;stroke-miterlimit:4;stroke-dasharray:none;stroke-opacity:1"
       d="m 76.52,83.148 c 0,0 80.355,34.821 173.3,2.411" /></g><g
     id="g106"><path
       inkscape:connector-curvature="0"
       id="path108"
       style="fill:none;stroke:#000000;stroke-width:0.39684999;stroke-linecap:butt;stroke-linejoin:miter;stroke-miterlimit:4;stroke-dasharray:3.174803, 1.587402;stroke-dashoffset:0;stroke-opacity:1"
       d="m 100.008,41.59 c -3.551,2.82 30.871,-17.059 121.34,-4.555" /></g><g
     id="g110"><path
       inkscape:connector-curvature="0"
       id="path112"
       style="fill:none;stroke:#000000;stroke-width:0.39684999;stroke-linecap:butt;stroke-linejoin:miter;stroke-miterlimit:4;stroke-dasharray:3.174803, 1.587402;stroke-dashoffset:0;stroke-opacity:1"
       d="m 76.52,83.148 c 1.867,0.325 111.277,-23.218 173.3,2.411" /></g><path
     inkscape:connector-curvature="0"
     id="path114"
     style="fill:#000000;fill-opacity:1;fill-rule:nonzero;stroke:none"
     d="m 264.008,27.73 h 1.039 c 0.246,0 0.359,0 0.359,-0.246 0,-0.132 -0.113,-0.132 -0.32,-0.132 h -1.004 l 0.246,-1.379 c 0.059,-0.246 0.227,-1.094 0.301,-1.246 0.098,-0.227 0.305,-0.418 0.57,-0.418 0.035,0 0.36,0 0.586,0.23 -0.531,0.035 -0.664,0.469 -0.664,0.641 0,0.285 0.227,0.433 0.453,0.433 0.324,0 0.664,-0.281 0.664,-0.734 0,-0.551 -0.55,-0.832 -1.039,-0.832 -0.418,0 -1.172,0.226 -1.531,1.418 -0.078,0.242 -0.113,0.375 -0.398,1.887 h -0.832 c -0.247,0 -0.376,0 -0.376,0.226 0,0.152 0.114,0.152 0.34,0.152 h 0.793 l -0.886,4.762 c -0.231,1.172 -0.438,2.266 -1.059,2.266 -0.059,0 -0.34,0 -0.586,-0.227 0.566,-0.035 0.68,-0.472 0.68,-0.64 0,-0.286 -0.227,-0.434 -0.453,-0.434 -0.325,0 -0.664,0.281 -0.664,0.734 0,0.532 0.531,0.832 1.023,0.832 0.66,0 1.152,-0.718 1.359,-1.171 0.395,-0.754 0.661,-2.211 0.68,-2.305 z" /><path
     inkscape:connector-curvature="0"
     id="path116"
     style="fill:#000000;fill-opacity:1;fill-rule:nonzero;stroke:none"
     d="m 279.074,28.602 c 0.188,0 0.414,0 0.414,-0.231 0,-0.242 -0.226,-0.242 -0.394,-0.242 h -7.219 c -0.172,0 -0.398,0 -0.398,0.242 0,0.231 0.226,0.231 0.398,0.231 z m 0.02,2.339 c 0.168,0 0.394,0 0.394,-0.246 0,-0.226 -0.226,-0.226 -0.414,-0.226 h -7.199 c -0.172,0 -0.398,0 -0.398,0.226 0,0.246 0.226,0.246 0.398,0.246 z" /><path
     inkscape:connector-curvature="0"
     id="path118"
     style="fill:#000000;fill-opacity:1;fill-rule:nonzero;stroke:none"
     d="m 288.965,27.977 c -0.211,0 -0.36,0 -0.531,0.152 -0.207,0.187 -0.227,0.394 -0.227,0.473 0,0.3 0.227,0.433 0.453,0.433 0.34,0 0.664,-0.305 0.664,-0.777 0,-0.586 -0.57,-1.039 -1.418,-1.039 -1.625,0 -3.23,1.722 -3.23,3.422 0,1.093 0.699,2.039 1.965,2.039 1.718,0 2.718,-1.285 2.718,-1.414 0,-0.078 -0.054,-0.172 -0.132,-0.172 -0.075,0 -0.094,0.039 -0.168,0.133 -0.946,1.191 -2.27,1.191 -2.399,1.191 -0.758,0 -1.098,-0.586 -1.098,-1.324 0,-0.492 0.247,-1.664 0.661,-2.399 0.379,-0.699 1.039,-1.211 1.703,-1.211 0.394,0 0.867,0.153 1.039,0.493 z" /><path
     inkscape:connector-curvature="0"
     id="path120"
     style="fill:#000000;fill-opacity:1;fill-rule:nonzero;stroke:none"
     d="m 293.648,32.824 h -0.281 c -0.019,0.192 -0.113,0.68 -0.226,0.758 -0.059,0.055 -0.7,0.055 -0.832,0.055 h -1.551 c 0.887,-0.774 1.191,-1.02 1.683,-1.418 0.621,-0.489 1.207,-1.02 1.207,-1.813 0,-1.019 -0.886,-1.644 -1.964,-1.644 -1.039,0 -1.758,0.738 -1.758,1.511 0,0.418 0.359,0.473 0.453,0.473 0.191,0 0.437,-0.152 0.437,-0.453 0,-0.152 -0.058,-0.453 -0.492,-0.453 0.266,-0.586 0.832,-0.774 1.227,-0.774 0.851,0 1.285,0.661 1.285,1.34 0,0.739 -0.527,1.305 -0.793,1.606 l -2.023,2.023 c -0.094,0.074 -0.094,0.094 -0.094,0.32 h 3.476 z" /><path
     inkscape:connector-curvature="0"
     id="path122"
     style="fill:#000000;fill-opacity:1;fill-rule:nonzero;stroke:none"
     d="m 284.754,79.961 h 1.039 c 0.246,0 0.359,0 0.359,-0.242 0,-0.133 -0.113,-0.133 -0.32,-0.133 h -1 l 0.242,-1.379 c 0.059,-0.246 0.227,-1.098 0.305,-1.25 0.094,-0.227 0.301,-0.414 0.566,-0.414 0.039,0 0.36,0 0.586,0.227 -0.531,0.039 -0.66,0.472 -0.66,0.64 0,0.285 0.227,0.438 0.453,0.438 0.321,0 0.66,-0.286 0.66,-0.739 0,-0.547 -0.546,-0.832 -1.039,-0.832 -0.414,0 -1.172,0.227 -1.531,1.418 -0.074,0.246 -0.113,0.379 -0.394,1.891 h -0.832 c -0.247,0 -0.379,0 -0.379,0.226 0,0.149 0.113,0.149 0.339,0.149 h 0.793 l -0.886,4.762 c -0.227,1.172 -0.434,2.269 -1.059,2.269 -0.058,0 -0.34,0 -0.586,-0.226 0.567,-0.039 0.68,-0.473 0.68,-0.645 0,-0.281 -0.227,-0.433 -0.453,-0.433 -0.321,0 -0.66,0.285 -0.66,0.738 0,0.527 0.527,0.832 1.019,0.832 0.66,0 1.152,-0.719 1.359,-1.172 0.399,-0.758 0.665,-2.211 0.68,-2.305 z" /><path
     inkscape:connector-curvature="0"
     id="path124"
     style="fill:#000000;fill-opacity:1;fill-rule:nonzero;stroke:none"
     d="m 299.82,80.832 c 0.192,0 0.418,0 0.418,-0.227 0,-0.246 -0.226,-0.246 -0.398,-0.246 h -7.219 c -0.168,0 -0.394,0 -0.394,0.246 0,0.227 0.226,0.227 0.394,0.227 z m 0.02,2.344 c 0.172,0 0.398,0 0.398,-0.246 0,-0.227 -0.226,-0.227 -0.418,-0.227 h -7.199 c -0.168,0 -0.394,0 -0.394,0.227 0,0.246 0.226,0.246 0.394,0.246 z" /><path
     inkscape:connector-curvature="0"
     id="path126"
     style="fill:#000000;fill-opacity:1;fill-rule:nonzero;stroke:none"
     d="m 309.711,80.207 c -0.207,0 -0.359,0 -0.527,0.152 -0.211,0.188 -0.227,0.399 -0.227,0.473 0,0.301 0.227,0.434 0.453,0.434 0.34,0 0.66,-0.301 0.66,-0.774 0,-0.586 -0.566,-1.039 -1.418,-1.039 -1.625,0 -3.23,1.719 -3.23,3.418 0,1.098 0.699,2.043 1.965,2.043 1.718,0 2.722,-1.285 2.722,-1.418 0,-0.074 -0.058,-0.172 -0.132,-0.172 -0.079,0 -0.094,0.039 -0.172,0.133 -0.946,1.191 -2.266,1.191 -2.399,1.191 -0.758,0 -1.097,-0.586 -1.097,-1.324 0,-0.488 0.246,-1.66 0.664,-2.398 0.375,-0.699 1.039,-1.207 1.699,-1.207 0.398,0 0.867,0.148 1.039,0.488 z" /><path
     inkscape:connector-curvature="0"
     id="path128"
     style="fill:#000000;fill-opacity:1;fill-rule:nonzero;stroke:none"
     d="m 312.961,81.223 c 0,-0.227 0,-0.227 -0.246,-0.227 -0.547,0.527 -1.305,0.527 -1.645,0.527 v 0.301 c 0.192,0 0.758,0 1.211,-0.226 v 4.289 c 0,0.285 0,0.398 -0.832,0.398 h -0.32 v 0.301 c 0.148,0 1.187,-0.035 1.492,-0.035 0.266,0 1.32,0.035 1.512,0.035 v -0.301 h -0.321 c -0.851,0 -0.851,-0.113 -0.851,-0.398 z" /><g
     id="g130"><path
       inkscape:connector-curvature="0"
       id="path132"
       style="fill:none;stroke:#000000;stroke-width:0.56692898;stroke-linecap:butt;stroke-linejoin:miter;stroke-miterlimit:4;stroke-dasharray:none;stroke-opacity:1"
       d="m 259.113,38.375 c -20.351,15.965 -49.285,7.766 -49.285,7.766" /></g><g
     transform="matrix(1,0.283314,-0.283314,1,0,0)"
     id="g134"><path
       inkscape:connector-curvature="0"
       id="path136"
       style="fill:#000000;fill-opacity:1;fill-rule:evenodd;stroke:#000000;stroke-width:0.290912;stroke-linecap:butt;stroke-linejoin:miter;stroke-miterlimit:4;stroke-dasharray:none;stroke-opacity:1"
       d="m 208.523,-12.316 1.088,-1.093 -3.815,1.092 3.816,1.091 z" /></g><g
     id="g138"><path
       inkscape:connector-curvature="0"
       id="path140"
       style="fill:none;stroke:#000000;stroke-width:0.56692898;stroke-linecap:butt;stroke-linejoin:miter;stroke-miterlimit:4;stroke-dasharray:none;stroke-opacity:1"
       d="m 279.652,88.82 c -20.351,15.965 -49.285,7.77 -49.285,7.77" /></g><g
     transform="matrix(1,0.283314,-0.283314,1,0,0)"
     id="g142"><path
       inkscape:connector-curvature="0"
       id="path144"
       style="fill:#000000;fill-opacity:1;fill-rule:evenodd;stroke:#000000;stroke-width:0.290912;stroke-linecap:butt;stroke-linejoin:miter;stroke-miterlimit:4;stroke-dasharray:none;stroke-opacity:1"
       d="m 240.765,28.995 1.09,-1.09 -3.816,1.089 3.816,1.09 z" /></g><g
     id="g146"><path
       inkscape:connector-curvature="0"
       id="path148"
       style="fill:none;stroke:#0000ff;stroke-width:0.75;stroke-linecap:butt;stroke-linejoin:miter;stroke-miterlimit:4;stroke-dasharray:none;stroke-opacity:1"
       d="m 143.383,46.234 5.625,-19.015" /></g><g
     transform="matrix(-0.295775,1,-1,-0.295775,0,0)"
     id="g150"><path
       inkscape:connector-curvature="0"
       id="path152"
       style="fill:#0000ff;fill-opacity:1;fill-rule:evenodd;stroke:#0000ff;stroke-width:0.38357401;stroke-linecap:butt;stroke-linejoin:miter;stroke-miterlimit:4;stroke-dasharray:none;stroke-opacity:1"
       d="m -12.623,-144.423 1.438,-1.437 -5.032,1.438 5.035,1.436 z" /></g><g
     id="g154"><path
       inkscape:connector-curvature="0"
       id="path156"
       style="fill:none;stroke:#0000ff;stroke-width:0.75;stroke-linecap:butt;stroke-linejoin:miter;stroke-miterlimit:4;stroke-dasharray:none;stroke-opacity:1"
       d="m 144.566,42.336 c 0,0 5.493,-0.336 3.618,4.418" /></g><g
     id="g158"><path
       inkscape:connector-curvature="0"
       id="path160"
       style="fill:#aad400;fill-opacity:1;fill-rule:nonzero;stroke:#0000ff;stroke-width:0.56692898;stroke-linecap:butt;stroke-linejoin:miter;stroke-miterlimit:4;stroke-dasharray:none;stroke-opacity:1"
       d="m 146.41,44.746 c 0,0.149 -0.137,0.27 -0.301,0.27 -0.168,0 -0.304,-0.121 -0.304,-0.27 0,-0.148 0.136,-0.266 0.304,-0.266 0.164,0 0.301,0.118 0.301,0.266 z" /></g><g
     id="g162"><path
       inkscape:connector-curvature="0"
       id="path164"
       style="fill:none;stroke:#0000ff;stroke-width:0.75;stroke-linecap:butt;stroke-linejoin:miter;stroke-miterlimit:4;stroke-dasharray:none;stroke-opacity:1"
       d="M 191.906,45.289 183.199,26.672" /></g><g
     transform="matrix(0.467626,1,-1,0.467626,0,0)"
     id="g166"><path
       inkscape:connector-curvature="0"
       id="path168"
       style="fill:#0000ff;fill-opacity:1;fill-rule:evenodd;stroke:#0000ff;stroke-width:0.36234;stroke-linecap:butt;stroke-linejoin:miter;stroke-miterlimit:4;stroke-dasharray:none;stroke-opacity:1"
       d="m 94.902,-140.094 1.358,-1.357 -4.756,1.358 4.754,1.36 z" /></g><g
     id="g170"><path
       inkscape:connector-curvature="0"
       id="path172"
       style="fill:none;stroke:#0000ff;stroke-width:0.75;stroke-linecap:butt;stroke-linejoin:miter;stroke-miterlimit:4;stroke-dasharray:none;stroke-opacity:1"
       d="m 189.82,41.82 c 0,0 5.868,-2.168 5.934,2.653" /></g><g
     id="g174"><path
       inkscape:connector-curvature="0"
       id="path176"
       style="fill:#aad400;fill-opacity:1;fill-rule:nonzero;stroke:#0000ff;stroke-width:0.56692898;stroke-linecap:butt;stroke-linejoin:miter;stroke-miterlimit:4;stroke-dasharray:none;stroke-opacity:1"
       d="m 193.547,43.078 c 0,0.149 -0.137,0.27 -0.301,0.27 -0.168,0 -0.305,-0.121 -0.305,-0.27 0,-0.148 0.137,-0.266 0.305,-0.266 0.164,0 0.301,0.118 0.301,0.266 z" /></g><g
     id="g178"><path
       inkscape:connector-curvature="0"
       id="path180"
       style="fill:#aad400;fill-opacity:1;fill-rule:nonzero;stroke:#0000ff;stroke-width:0.56692898;stroke-linecap:butt;stroke-linejoin:miter;stroke-miterlimit:4;stroke-dasharray:none;stroke-opacity:1"
       d="m 146.988,44.336 c 0,0.148 -0.136,0.269 -0.3,0.269 -0.168,0 -0.305,-0.121 -0.305,-0.269 0,-0.148 0.137,-0.266 0.305,-0.266 0.164,0 0.3,0.118 0.3,0.266 z" /></g><g
     id="g182"><path
       inkscape:connector-curvature="0"
       id="path184"
       style="fill:#ffffff;fill-opacity:1;fill-rule:nonzero;stroke:#ffffff;stroke-width:1.23492205;stroke-linecap:butt;stroke-linejoin:miter;stroke-miterlimit:4;stroke-dasharray:none;stroke-opacity:1"
       d="m 110.699,129.594 h 166.484 v 61.113 H 110.699 Z" /></g><g
     id="g186"><path
       inkscape:connector-curvature="0"
       id="path188"
       style="fill:none;stroke:#ff0000;stroke-width:1.35599995;stroke-linecap:butt;stroke-linejoin:miter;stroke-miterlimit:4;stroke-dasharray:8.136, 8.136;stroke-dashoffset:0;stroke-opacity:1"
       d="M 109.848,154.461 248.234,131.059" /></g><g
     id="g190"><path
       inkscape:connector-curvature="0"
       id="path192"
       style="fill:none;stroke:#ff0000;stroke-width:0.75;stroke-linecap:butt;stroke-linejoin:miter;stroke-miterlimit:4;stroke-dasharray:none;stroke-opacity:1"
       d="m 175.414,46.914 -2.66,-16.352" /></g><g
     transform="matrix(0.1625,1,-1,0.1625,0,0)"
     id="g194"><path
       inkscape:connector-curvature="0"
       id="path196"
       style="fill:#ff0000;fill-opacity:1;fill-rule:evenodd;stroke:#ff0000;stroke-width:0.39482099;stroke-linecap:butt;stroke-linejoin:miter;stroke-miterlimit:4;stroke-dasharray:none;stroke-opacity:1"
       d="m 57.127,-163.471 1.482,-1.482 -5.182,1.483 5.182,1.478 z" /></g><g
     id="g198"><path
       inkscape:connector-curvature="0"
       id="path200"
       style="fill:none;stroke:#ff0000;stroke-width:0.75;stroke-linecap:butt;stroke-linejoin:miter;stroke-miterlimit:4;stroke-dasharray:none;stroke-opacity:1"
       d="m 174.738,43.039 c 0,0 4.739,-1.125 4.805,3.695" /></g><g
     id="g202"><path
       inkscape:connector-curvature="0"
       id="path204"
       style="fill:none;stroke:#0000ff;stroke-width:0.75;stroke-linecap:butt;stroke-linejoin:miter;stroke-miterlimit:4;stroke-dasharray:none;stroke-opacity:1"
       d="M 174.371,46.273 171.234,26.961" /></g><g
     transform="matrix(0.1625,1,-1,0.1625,0,0)"
     id="g206"><path
       inkscape:connector-curvature="0"
       id="path208"
       style="fill:#0000ff;fill-opacity:1;fill-rule:evenodd;stroke:#0000ff;stroke-width:0.39482099;stroke-linecap:butt;stroke-linejoin:miter;stroke-miterlimit:4;stroke-dasharray:none;stroke-opacity:1"
       d="m 56.338,-162.56 1.483,-1.482 -5.182,1.482 5.181,1.479 z" /></g><g
     id="g210"><path
       inkscape:connector-curvature="0"
       id="path212"
       style="fill:none;stroke:#0000ff;stroke-width:0.75;stroke-linecap:butt;stroke-linejoin:miter;stroke-miterlimit:4;stroke-dasharray:none;stroke-opacity:1"
       d="m 173.723,43.211 c -3.903,1.625 -3.305,2.723 -3.782,3.945" /></g><g
     id="g214"><path
       inkscape:connector-curvature="0"
       id="path216"
       style="fill:#0000ff;fill-opacity:1;fill-rule:nonzero;stroke:#0000ff;stroke-width:0.82045901;stroke-linecap:butt;stroke-linejoin:miter;stroke-miterlimit:4;stroke-dasharray:none;stroke-opacity:1"
       d="m 172.574,45.383 c 0,0.148 -0.109,0.269 -0.242,0.269 -0.137,0 -0.246,-0.121 -0.246,-0.269 0,-0.145 0.109,-0.266 0.246,-0.266 0.133,0 0.242,0.121 0.242,0.266 z" /></g><g
     id="g218"><path
       inkscape:connector-curvature="0"
       id="path220"
       style="fill:#ff0000;fill-opacity:1;fill-rule:nonzero;stroke:#ff0000;stroke-width:0.82045901;stroke-linecap:butt;stroke-linejoin:miter;stroke-miterlimit:4;stroke-dasharray:none;stroke-opacity:1"
       d="m 177.105,44.82 c 0,0.149 -0.109,0.27 -0.246,0.27 -0.132,0 -0.242,-0.121 -0.242,-0.27 0,-0.148 0.11,-0.265 0.242,-0.265 0.137,0 0.246,0.117 0.246,0.265 z" /></g><g
     id="g222"><path
       inkscape:connector-curvature="0"
       id="path224"
       style="fill:none;stroke:#ff0000;stroke-width:1.35599995;stroke-linecap:butt;stroke-linejoin:miter;stroke-miterlimit:4;stroke-dasharray:none;stroke-opacity:1"
       d="M 110.164,153.359 C 131.988,79.25 147.48,-0.133 248.629,80.902" /></g><g
     id="g226"><path
       inkscape:connector-curvature="0"
       id="path228"
       style="fill:none;stroke:#ff0000;stroke-width:0.75;stroke-linecap:butt;stroke-linejoin:miter;stroke-miterlimit:4;stroke-dasharray:none;stroke-opacity:1"
       d="m 143.812,59.133 c 0,0 2.614,-5.145 5.516,0.226" /></g><g
     id="g230"><path
       inkscape:connector-curvature="0"
       id="path232"
       style="fill:#ff0000;fill-opacity:1;fill-rule:nonzero;stroke:#ff0000;stroke-width:0.82045901;stroke-linecap:butt;stroke-linejoin:miter;stroke-miterlimit:4;stroke-dasharray:none;stroke-opacity:1"
       d="m 135.77,78.828 c 0,0.149 -0.11,0.27 -0.247,0.27 -0.132,0 -0.242,-0.121 -0.242,-0.27 0,-0.148 0.11,-0.266 0.242,-0.266 0.137,0 0.247,0.118 0.247,0.266 z" /></g><g
     id="g234"><path
       inkscape:connector-curvature="0"
       id="path236"
       style="fill:#ff0000;fill-opacity:1;fill-rule:nonzero;stroke:#ff0000;stroke-width:0.35072801;stroke-linecap:butt;stroke-linejoin:miter;stroke-miterlimit:4;stroke-dasharray:none;stroke-opacity:1"
       d="m 133.477,79.082 c 0,0.23 -0.223,0.422 -0.5,0.422 -0.278,0 -0.504,-0.192 -0.504,-0.422 0,-0.234 0.226,-0.426 0.504,-0.426 0.277,0 0.5,0.192 0.5,0.426 z" /></g><g
     id="g238"><path
       inkscape:connector-curvature="0"
       id="path240"
       style="fill:none;stroke:#ff0000;stroke-width:0.75;stroke-linecap:butt;stroke-linejoin:miter;stroke-miterlimit:4;stroke-dasharray:none;stroke-opacity:1"
       d="M 133.922,81.445 118.234,73.719" /></g><g
     transform="matrix(1,0.492462,-0.492462,1,0,0)"
     id="g242"><path
       inkscape:connector-curvature="0"
       id="path244"
       style="fill:#ff0000;fill-opacity:1;fill-rule:evenodd;stroke:#ff0000;stroke-width:0.35884601;stroke-linecap:butt;stroke-linejoin:miter;stroke-miterlimit:4;stroke-dasharray:none;stroke-opacity:1"
       d="m 127.067,12.471 1.345,-1.346 -4.708,1.346 4.709,1.345 z" /></g><g
     id="g246"><path
       inkscape:connector-curvature="0"
       id="path248"
       style="fill:none;stroke:#ff0000;stroke-width:0.75;stroke-linecap:butt;stroke-linejoin:miter;stroke-miterlimit:4;stroke-dasharray:none;stroke-opacity:1"
       d="M 146.836,61.504 134.039,49.941" /></g><g
     transform="matrix(1,0.903211,-0.903211,1,0,0)"
     id="g250"><path
       inkscape:connector-curvature="0"
       id="path252"
       style="fill:#ff0000;fill-opacity:1;fill-rule:evenodd;stroke:#ff0000;stroke-width:0.29684299;stroke-linecap:butt;stroke-linejoin:miter;stroke-miterlimit:4;stroke-dasharray:none;stroke-opacity:1"
       d="m 100.887,-39.169 1.114,-1.112 -3.897,1.114 3.897,1.113 z" /></g><g
     id="g254"><path
       inkscape:connector-curvature="0"
       id="path256"
       style="fill:none;stroke:#ff0000;stroke-width:0.75;stroke-linecap:butt;stroke-linejoin:miter;stroke-miterlimit:4;stroke-dasharray:none;stroke-opacity:1"
       d="m 130.301,79.402 c 0,0 2.609,-5.144 5.511,0.227" /></g><g
     id="g258"><path
       inkscape:connector-curvature="0"
       id="path260"
       style="fill:#ff0000;fill-opacity:1;fill-rule:nonzero;stroke:#ff0000;stroke-width:0.35072801;stroke-linecap:butt;stroke-linejoin:miter;stroke-miterlimit:4;stroke-dasharray:none;stroke-opacity:1"
       d="m 146.879,58.98 c 0,0.235 -0.227,0.422 -0.504,0.422 -0.277,0 -0.504,-0.187 -0.504,-0.422 0,-0.234 0.227,-0.425 0.504,-0.425 0.277,0 0.504,0.191 0.504,0.425 z" /></g></g>
<g
   ns0:jacobian_sqrt="1.333333"
   ns0:alignment="middle center"
   ns0:scale="1.0"
   ns0:preamble="/home/kashefy/.config/inkscape/extensions/textext/default_packages.tex"
   ns0:text="$\\color{red}g(w_1,w_2) = c$"
   ns0:pdfconverter="pstoedit"
   ns0:texconverter="pdflatex"
   ns0:version="0.10.0"
   word-spacing="normal"
   letter-spacing="normal"
   font-size-adjust="none"
   font-stretch="normal"
   font-weight="normal"
   font-variant="normal"
   font-style="normal"
   stroke-miterlimit="10.433"
   xml:space="preserve"
   transform="matrix(1.1024162,0,0,-1.1024162,34.436844,875.02315)"
   id="content"
   style="font-style:normal;font-variant:normal;font-weight:normal;font-stretch:normal;letter-spacing:normal;word-spacing:normal;text-anchor:start;fill:none;fill-opacity:1;fill-rule:evenodd;stroke:#000000;stroke-linecap:butt;stroke-linejoin:miter;stroke-miterlimit:10.43299961;stroke-dasharray:none;stroke-dashoffset:0;stroke-opacity:1">
<path
   id="path1760"
   d="m 153.41,660.98 v 0.01 0.01 l 0.01,0.01 v 0.01 0.02 l 0.01,0.02 v 0.01 0.01 0.01 0.01 l 0.01,0.01 v 0.01 0.01 0 0.01 0.01 0 0.01 c 0,0.17 -0.12,0.27 -0.29,0.27 -0.1,0 -0.37,-0.07 -0.41,-0.43 -0.18,0.37 -0.53,0.63 -0.93,0.63 l 0.01,-0.22 c 0.66,0 0.8,-0.81 0.8,-0.86 0,-0.05 -0.02,-0.11 -0.03,-0.15 l -0.48,-1.89 c -0.06,-0.26 -0.29,-0.51 -0.51,-0.7 -0.2,-0.18 -0.51,-0.36 -0.8,-0.36 -0.5,0 -0.65,0.52 -0.65,0.92 0,0.47 0.29,1.65 0.56,2.15 0.27,0.49 0.69,0.89 1.11,0.89 l -0.01,0.22 c -1.13,0 -2.37,-1.4 -2.37,-2.83 0,-0.98 0.61,-1.57 1.33,-1.57 0.58,0 1.05,0.47 1.15,0.58 l 0.01,-0.01 c -0.21,-0.88 -0.33,-1.29 -0.33,-1.31 -0.04,-0.09 -0.37,-1.07 -1.43,-1.07 -0.19,0 -0.52,0.01 -0.8,0.1 0.3,0.09 0.41,0.34 0.41,0.51 0,0.16 -0.11,0.35 -0.38,0.35 -0.22,0 -0.54,-0.18 -0.54,-0.58 0,-0.4 0.37,-0.6 1.33,-0.6 1.24,0 1.96,0.77 2.11,1.37 z"
   inkscape:connector-curvature="0"
   style="fill:#ff0000;stroke:#ff0000;stroke-width:0" />
<path
   id="path1762"
   d="m 157.12,654.85 v 0.01 0 0 0.01 0 0 0.01 0 0 l -0.01,0.01 v 0 0.01 0 l -0.01,0.01 v 0 l -0.01,0.01 v 0.01 h -0.01 v 0.01 h -0.01 v 0.01 0 h -0.01 v 0.01 0 l -0.01,0.01 v 0 l -0.01,0.01 v 0 l -0.01,0.01 v 0 l -0.01,0.01 v 0.01 h -0.01 l -0.01,0.01 v 0.01 h -0.01 l -0.01,0.01 v 0.01 h -0.01 l -0.01,0.01 -0.01,0.01 c -1.24,1.25 -1.56,3.13 -1.56,4.65 0,1.73 0.38,3.45 1.6,4.7 0.13,0.12 0.13,0.14 0.13,0.17 0,0.07 -0.04,0.09 -0.1,0.09 -0.1,0 -0.99,-0.67 -1.58,-1.93 -0.51,-1.09 -0.63,-2.2 -0.63,-3.03 0,-0.78 0.11,-1.98 0.66,-3.1 0.6,-1.22 1.45,-1.87 1.55,-1.87 0.06,0 0.1,0.03 0.1,0.1 z"
   inkscape:connector-curvature="0"
   style="fill:#ff0000;stroke:#ff0000;stroke-width:0" />
<path
   id="path1764"
   d="m 162.3,660.6 0.01,0.02 v 0.03 l 0.01,0.02 v 0.02 l 0.01,0.02 0.01,0.03 0.01,0.05 0.01,0.05 0.01,0.05 0.01,0.05 0.02,0.05 v 0.02 l 0.01,0.02 v 0.02 l 0.01,0.03 v 0.02 l 0.01,0.02 v 0.02 l 0.01,0.01 v 0.02 0.02 l 0.01,0.01 v 0.01 0.01 0.01 0.01 0.01 c 0,0.18 -0.14,0.27 -0.29,0.27 -0.12,0 -0.3,-0.08 -0.37,-0.28 -0.03,-0.07 -0.49,-1.97 -0.56,-2.23 -0.07,-0.29 -0.09,-0.47 -0.09,-0.65 0,-0.11 0,-0.13 0.01,-0.18 -0.23,-0.53 -0.53,-0.84 -0.92,-0.84 -0.8,0 -0.8,0.74 -0.8,0.91 0,0.32 0.05,0.7 0.52,1.92 0.11,0.3 0.17,0.44 0.17,0.64 0,0.45 -0.33,0.82 -0.82,0.82 -0.95,0 -1.31,-1.45 -1.31,-1.53 0,-0.1 0.1,-0.1 0.11,-0.1 0.11,0 0.11,0.02 0.16,0.17 0.27,0.93 0.66,1.24 1.01,1.24 0.09,0 0.25,-0.01 0.25,-0.33 0,-0.25 -0.11,-0.53 -0.18,-0.7 -0.44,-1.17 -0.56,-1.62 -0.56,-2 0,-0.91 0.67,-1.25 1.42,-1.25 0.17,0 0.64,0 1.04,0.69 0.25,-0.64 0.94,-0.69 1.24,-0.69 0.75,0 1.19,0.62 1.45,1.22 0.34,0.77 0.66,2.1 0.66,2.58 0,0.55 -0.27,0.7 -0.44,0.7 -0.25,0 -0.5,-0.26 -0.5,-0.48 0,-0.13 0.06,-0.19 0.15,-0.27 0.11,-0.11 0.36,-0.37 0.36,-0.84 0,-0.34 -0.29,-1.32 -0.55,-1.82 -0.26,-0.53 -0.61,-0.88 -1.1,-0.88 -0.47,0 -0.74,0.3 -0.74,0.87 0,0.28 0.07,0.58 0.11,0.72 z"
   inkscape:connector-curvature="0"
   style="fill:#ff0000;stroke:#ff0000;stroke-width:0" />
<path
   id="path1766"
   d="m 167.17,660.16 v 0.01 0.01 0.01 0.01 0 0.01 0.01 0.01 0 0.01 0.01 0 0.01 0 0.01 h -0.01 v 0.01 0 0.01 0.01 0.01 h -0.01 v 0.01 l -0.01,0.01 v 0 l -0.01,0.01 v 0 h -0.01 l -0.01,0.01 h -0.01 v 0 h -0.01 -0.01 v 0 h -0.01 l -0.01,0.01 v 0 h -0.01 v 0 h -0.01 -0.01 v 0 h -0.01 -0.01 -0.01 v 0 h -0.01 -0.01 -0.01 -0.01 c -0.45,-0.44 -1.08,-0.45 -1.37,-0.45 v -0.25 c 0.17,0 0.63,0 1.01,0.2 v -3.55 c 0,-0.23 0,-0.32 -0.7,-0.32 h -0.26 v -0.25 c 0.12,0.01 0.98,0.03 1.24,0.03 0.22,0 1.1,-0.02 1.25,-0.03 v 0.25 h -0.26 c -0.7,0 -0.7,0.09 -0.7,0.32 z"
   inkscape:connector-curvature="0"
   style="fill:#ff0000;stroke:#ff0000;stroke-width:0" />
<path
   id="path1768"
   d="m 171.32,657.24 v 0.07 0.05 0.06 l -0.01,0.06 -0.01,0.05 v 0.05 l -0.01,0.06 -0.01,0.04 -0.01,0.05 -0.02,0.05 -0.01,0.04 -0.02,0.04 -0.01,0.04 -0.02,0.04 -0.02,0.04 -0.02,0.03 -0.02,0.04 -0.02,0.03 -0.03,0.02 -0.02,0.03 -0.03,0.03 -0.03,0.02 -0.02,0.02 -0.03,0.02 -0.03,0.01 -0.03,0.02 -0.03,0.01 -0.04,0.01 -0.03,0.01 h -0.03 l -0.04,0.01 h -0.04 c -0.33,0 -0.52,-0.25 -0.52,-0.53 0,-0.27 0.19,-0.53 0.52,-0.53 0.12,0 0.25,0.05 0.35,0.13 0.03,0.02 0.04,0.03 0.05,0.03 0.01,0 0.02,-0.01 0.02,-0.15 0,-0.73 -0.35,-1.33 -0.67,-1.65 -0.11,-0.11 -0.11,-0.13 -0.11,-0.16 0,-0.07 0.05,-0.11 0.09,-0.11 0.11,0 0.91,0.76 0.91,1.92 z"
   inkscape:connector-curvature="0"
   style="fill:#ff0000;stroke:#ff0000;stroke-width:0" />
<path
   id="path1770"
   d="m 178.34,660.6 v 0.02 l 0.01,0.03 v 0.02 l 0.01,0.02 v 0.02 l 0.01,0.03 0.01,0.05 0.01,0.05 0.02,0.05 0.01,0.05 0.01,0.05 0.01,0.02 v 0.02 l 0.01,0.02 v 0.03 l 0.01,0.02 v 0.02 l 0.01,0.02 v 0.01 0.02 l 0.01,0.02 v 0.01 0.01 0.01 0.01 l 0.01,0.01 v 0.01 c 0,0.18 -0.14,0.27 -0.29,0.27 -0.12,0 -0.3,-0.08 -0.37,-0.28 -0.03,-0.07 -0.5,-1.97 -0.57,-2.23 -0.07,-0.29 -0.09,-0.47 -0.09,-0.65 0,-0.11 0,-0.13 0.01,-0.18 -0.23,-0.53 -0.53,-0.84 -0.92,-0.84 -0.8,0 -0.8,0.74 -0.8,0.91 0,0.32 0.05,0.7 0.52,1.92 0.11,0.3 0.17,0.44 0.17,0.64 0,0.45 -0.33,0.82 -0.81,0.82 -0.95,0 -1.32,-1.45 -1.32,-1.53 0,-0.1 0.1,-0.1 0.12,-0.1 0.1,0 0.11,0.02 0.16,0.17 0.27,0.93 0.66,1.24 1,1.24 0.1,0 0.25,-0.01 0.25,-0.33 0,-0.25 -0.1,-0.53 -0.17,-0.7 -0.44,-1.17 -0.56,-1.62 -0.56,-2 0,-0.91 0.66,-1.25 1.41,-1.25 0.17,0 0.64,0 1.04,0.69 0.26,-0.64 0.95,-0.69 1.25,-0.69 0.74,0 1.18,0.62 1.44,1.22 0.34,0.77 0.66,2.1 0.66,2.58 0,0.55 -0.27,0.7 -0.44,0.7 -0.25,0 -0.5,-0.26 -0.5,-0.48 0,-0.13 0.06,-0.19 0.15,-0.27 0.11,-0.11 0.36,-0.37 0.36,-0.84 0,-0.34 -0.29,-1.32 -0.55,-1.82 -0.26,-0.53 -0.6,-0.88 -1.09,-0.88 -0.47,0 -0.74,0.3 -0.74,0.87 0,0.28 0.07,0.58 0.11,0.72 z"
   inkscape:connector-curvature="0"
   style="fill:#ff0000;stroke:#ff0000;stroke-width:0" />
<path
   id="path1772"
   d="m 184.39,657.01 h -0.24 c -0.02,-0.16 -0.09,-0.57 -0.18,-0.64 -0.06,-0.04 -0.59,-0.04 -0.69,-0.04 h -1.29 c 0.74,0.65 0.98,0.84 1.4,1.17 0.52,0.41 1,0.84 1,1.5 0,0.84 -0.74,1.36 -1.64,1.36 -0.86,0 -1.45,-0.61 -1.45,-1.25 0,-0.35 0.3,-0.39 0.37,-0.39 0.17,0 0.37,0.12 0.37,0.37 0,0.13 -0.05,0.37 -0.41,0.37 0.21,0.5 0.69,0.65 1.02,0.65 0.7,0 1.06,-0.54 1.06,-1.11 0,-0.6 -0.43,-1.08 -0.66,-1.33 l -1.68,-1.66 c -0.07,-0.06 -0.07,-0.07 -0.07,-0.27 h 2.88 z"
   inkscape:connector-curvature="0"
   style="fill:#ff0000;stroke:#ff0000;stroke-width:0" />
<path
   id="path1774"
   d="m 188.21,659.72 v 0.07 0.08 0.08 l -0.01,0.08 v 0.17 l -0.02,0.17 -0.01,0.18 -0.02,0.19 -0.03,0.2 -0.03,0.2 -0.04,0.2 -0.05,0.21 -0.05,0.21 -0.07,0.21 -0.06,0.21 -0.08,0.21 -0.05,0.11 -0.04,0.11 -0.05,0.1 -0.05,0.11 c -0.6,1.22 -1.45,1.86 -1.56,1.86 -0.06,0 -0.09,-0.03 -0.09,-0.09 0,-0.03 0,-0.05 0.19,-0.23 0.97,-0.99 1.54,-2.57 1.54,-4.64 0,-1.7 -0.37,-3.45 -1.61,-4.7 -0.12,-0.12 -0.12,-0.14 -0.12,-0.17 0,-0.06 0.03,-0.1 0.09,-0.1 0.11,0 1,0.68 1.59,1.94 0.51,1.09 0.63,2.19 0.63,3.03 z"
   inkscape:connector-curvature="0"
   style="fill:#ff0000;stroke:#ff0000;stroke-width:0" />
<path
   id="path1776"
   d="m 198.82,660.48 h 0.03 0.03 0.03 l 0.01,0.01 h 0.02 0.01 0.02 0.01 0.01 l 0.02,0.01 h 0.01 0.01 l 0.02,0.01 h 0.01 l 0.01,0.01 h 0.01 l 0.01,0.01 0.01,0.01 0.01,0.01 0.01,0.01 0.01,0.01 v 0 l 0.01,0.01 v 0 0.01 l 0.01,0.01 v 0 0.01 0.01 0 l 0.01,0.01 v 0.01 0.01 0.01 0 0.01 0.01 c 0,0.2 -0.19,0.2 -0.33,0.2 h -5.97 c -0.14,0 -0.33,0 -0.33,-0.2 0,-0.2 0.19,-0.2 0.34,-0.2 z"
   inkscape:connector-curvature="0"
   style="fill:#ff0000;stroke:#ff0000;stroke-width:0" />
<path
   id="path1778"
   d="m 198.83,658.56 h 0.02 0.01 0.03 0.02 0.02 0.01 0.02 0.01 0.01 l 0.02,0.01 h 0.01 0.01 l 0.02,0.01 h 0.01 l 0.01,0.01 h 0.01 l 0.01,0.01 h 0.01 l 0.01,0.01 0.01,0.01 0.01,0.01 h 0.01 v 0.01 0.01 h 0.01 v 0.01 0 l 0.01,0.01 v 0.01 0 0.01 0.01 h 0.01 v 0.01 0.01 0.01 0.01 0.01 0.01 c 0,0.19 -0.19,0.19 -0.34,0.19 h -5.95 c -0.15,0 -0.34,0 -0.34,-0.19 0,-0.2 0.19,-0.2 0.33,-0.2 z"
   inkscape:connector-curvature="0"
   style="fill:#ff0000;stroke:#ff0000;stroke-width:0" />
<path
   id="path1780"
   d="m 206.43,661.01 h -0.03 -0.03 -0.02 -0.03 -0.03 L 206.26,661 h -0.01 -0.02 -0.01 l -0.01,-0.01 h -0.02 -0.01 l -0.01,-0.01 h -0.02 l -0.01,-0.01 -0.01,-0.01 h -0.02 l -0.01,-0.01 -0.01,-0.01 h -0.02 l -0.01,-0.01 -0.01,-0.01 -0.02,-0.01 -0.01,-0.01 -0.01,-0.02 -0.02,-0.01 c -0.15,-0.15 -0.17,-0.32 -0.17,-0.39 0,-0.24 0.17,-0.34 0.36,-0.34 0.29,0 0.56,0.23 0.56,0.63 0,0.49 -0.47,0.86 -1.17,0.86 -1.35,0 -2.68,-1.42 -2.68,-2.83 0,-0.89 0.58,-1.67 1.62,-1.67 1.42,0 2.26,1.05 2.26,1.17 0,0.06 -0.06,0.13 -0.12,0.13 -0.05,0 -0.07,-0.02 -0.13,-0.1 -0.78,-0.99 -1.87,-0.99 -1.99,-0.99 -0.63,0 -0.9,0.49 -0.9,1.09 0,0.4 0.2,1.37 0.54,1.98 0.31,0.57 0.86,1 1.41,1 0.33,0 0.71,-0.13 0.85,-0.4 z"
   inkscape:connector-curvature="0"
   style="fill:#ff0000;stroke:#ff0000;stroke-width:0" />
</g>
</g></svg>