<?xml version="1.0" encoding="UTF-8" standalone="no"?>
<!-- Created with Inkscape (http://www.inkscape.org/) -->

<svg
   xmlns:ns0="http://www.iki.fi/pav/software/textext/"
   xmlns:dc="http://purl.org/dc/elements/1.1/"
   xmlns:cc="http://creativecommons.org/ns#"
   xmlns:rdf="http://www.w3.org/1999/02/22-rdf-syntax-ns#"
   xmlns:svg="http://www.w3.org/2000/svg"
   xmlns="http://www.w3.org/2000/svg"
   xmlns:sodipodi="http://sodipodi.sourceforge.net/DTD/sodipodi-0.dtd"
   xmlns:inkscape="http://www.inkscape.org/namespaces/inkscape"
   version="1.1"
   id="svg2"
   xml:space="preserve"
   width="359.71017"
   height="296.20834"
   viewBox="0 0 359.71017 296.20834"
   sodipodi:docname="section2_fig13_v2_maxmargin.svg"
   inkscape:version="0.92.3 (2405546, 2018-03-11)"><sodipodi:namedview
     pagecolor="#ffffff"
     bordercolor="#666666"
     borderopacity="1"
     objecttolerance="10"
     gridtolerance="10"
     guidetolerance="10"
     inkscape:pageopacity="0"
     inkscape:pageshadow="2"
     inkscape:window-width="1533"
     inkscape:window-height="845"
     id="namedview4"
     showgrid="false"
     inkscape:zoom="1.5934731"
     inkscape:cx="30.904084"
     inkscape:cy="95.124677"
     inkscape:window-x="67"
     inkscape:window-y="27"
     inkscape:window-maximized="1"
     inkscape:current-layer="g10" /><metadata
     id="metadata8"><rdf:RDF><cc:Work
         rdf:about=""><dc:format>image/svg+xml</dc:format><dc:type
           rdf:resource="http://purl.org/dc/dcmitype/StillImage" /><dc:title /></cc:Work></rdf:RDF></metadata><defs
     id="defs6" /><g
     transform="matrix(1.3333333,0,0,1.3333333,0,4.0718755e-6)"
     inkscape:label="section2_fig13_v2_maxmargin"
     inkscape:groupmode="layer"
     id="g10"><g
   id="g12"><path
     inkscape:connector-curvature="0"
     id="path14"
     style="fill:#0000e4;fill-opacity:0.152941;fill-rule:nonzero;stroke:none"
     d="M -84.746,87.91 27.293,-31.867 322.676,190.836 210.637,310.613 Z" /><g
     transform="matrix(0.855534,-0.914604,1,0.753949,0,0)"
     id="g16"><path
       inkscape:connector-curvature="0"
       id="path18"
       style="fill:none;stroke:#2800ff;stroke-width:0.72126198;stroke-linecap:butt;stroke-linejoin:miter;stroke-miterlimit:4;stroke-dasharray:0.721262, 0.721262;stroke-dashoffset:0;stroke-opacity:0.97524797"
       d="m -97.333,-1.474 130.959,-0.001 0.001,295.382 -130.96,0.002 z" /></g><g
     transform="scale(1,-1)"
     id="g20"><path
       inkscape:connector-curvature="0"
       id="path22"
       style="fill:none;stroke:#000000;stroke-width:0.80000001;stroke-linecap:butt;stroke-linejoin:miter;stroke-miterlimit:10;stroke-dasharray:none;stroke-opacity:1"
       d="M 0.43,-186.785 H 265.457" /></g><path
     inkscape:connector-curvature="0"
     id="path24"
     style="fill:#000000;fill-opacity:1;fill-rule:evenodd;stroke:none"
     d="m 256.902,183.234 9.614,3.536 -9.614,3.535 c 1.536,-2.086 1.528,-4.942 0,-7.071" /><g
     transform="scale(1,-1)"
     id="g26"><path
       inkscape:connector-curvature="0"
       id="path28"
       style="fill:none;stroke:#000000;stroke-width:0.947469;stroke-linecap:butt;stroke-linejoin:miter;stroke-miterlimit:10;stroke-dasharray:none;stroke-opacity:1"
       d="M 22.898,-209.297 V -1.523" /></g><path
     inkscape:connector-curvature="0"
     id="path30"
     style="fill:#000000;fill-opacity:1;fill-rule:evenodd;stroke:none"
     d="m 18.691,11.652 4.188,-11.386 4.187,11.386 c -2.468,-1.816 -5.851,-1.808 -8.375,0" /><g
     transform="scale(1,-1)"
     id="g32"><path
       inkscape:connector-curvature="0"
       id="path34"
       style="fill:none;stroke:#000000;stroke-width:0.78963798;stroke-linecap:butt;stroke-linejoin:miter;stroke-miterlimit:10;stroke-dasharray:none;stroke-opacity:1"
       d="m 18.938,-187.266 c 199.851,48 221.097,52.926 221.097,52.926" /></g><path
     inkscape:connector-curvature="0"
     id="path36"
     style="fill:#000000;fill-opacity:1;fill-rule:evenodd;stroke:none"
     d="m 236.016,135.32 -1.61,2.641 6.926,-3.926 -7.957,-0.324 2.641,1.609" /><g
     transform="scale(1,-1)"
     id="g38"><path
       inkscape:connector-curvature="0"
       id="path40"
       style="fill:none;stroke:#000000;stroke-width:0.546839;stroke-linecap:butt;stroke-linejoin:miter;stroke-miterlimit:10;stroke-dasharray:none;stroke-opacity:1"
       d="m 236.016,-135.32 -1.61,-2.641 6.926,3.926 -7.957,0.324 z" /></g><g
     transform="matrix(1,0.11463,0.118073,-0.970844,0,0)"
     id="g42"><path
       inkscape:connector-curvature="0"
       id="path44"
       style="fill:none;stroke:#000000;stroke-width:0.93745798;stroke-linecap:butt;stroke-linejoin:miter;stroke-miterlimit:10;stroke-dasharray:none;stroke-opacity:1"
       d="m 45.22,-186.239 c 112.285,174.257 95.849,149.197 95.849,149.197" /></g><path
     inkscape:connector-curvature="0"
     id="path46"
     style="fill:#000000;fill-opacity:1;fill-rule:evenodd;stroke:none"
     d="m 133.367,56.035 0.328,3.317 3.535,-7.86 -7.281,4.86 3.418,-0.317" /><g
     transform="matrix(1,0.11463,0.118073,-0.970844,0,0)"
     id="g48"><path
       inkscape:connector-curvature="0"
       id="path50"
       style="fill:none;stroke:#000000;stroke-width:0.60255098;stroke-linecap:butt;stroke-linejoin:miter;stroke-miterlimit:10;stroke-dasharray:none;stroke-opacity:1"
       d="m 138.255,-41.394 0.721,-3.331 2.544,8.396 -6.598,-5.784 z" /></g><g
     transform="scale(1,-1)"
     id="g52"><path
       inkscape:connector-curvature="0"
       id="path54"
       style="fill:#0000ff;fill-opacity:1;fill-rule:nonzero;stroke:#0000ff;stroke-width:1.60000002;stroke-linecap:butt;stroke-linejoin:miter;stroke-miterlimit:10;stroke-dasharray:none;stroke-opacity:1"
       d="M -29.535,-28.219 232.074,-227.727" /></g><path
     inkscape:connector-curvature="0"
     id="path56"
     style="fill:#ff0000;fill-opacity:1;fill-rule:nonzero;stroke:none"
     d="m 241.812,114.27 0.126,-0.165 0.132,-0.164 0.133,-0.171 0.141,-0.172 0.269,-0.348 0.141,-0.172 0.133,-0.176 0.136,-0.164 0.133,-0.164 0.129,-0.156 0.125,-0.152 0.063,-0.075 0.117,-0.14 0.058,-0.067 0.055,-0.062 0.051,-0.067 0.055,-0.054 0.05,-0.055 c 0.692,-0.797 1.61,-1.133 2.657,-1.156 v -0.692 c -0.578,0.043 -1.25,0.063 -1.832,0.063 -0.664,0 -1.844,-0.039 -2.137,-0.063 v 0.692 c 0.465,0.043 0.648,0.328 0.648,0.687 0,0.356 -0.222,0.649 -0.336,0.782 l -1.379,1.738 -1.738,-2.25 c -0.199,-0.223 -0.199,-0.27 -0.199,-0.406 0,-0.336 0.336,-0.528 0.773,-0.551 v -0.692 c -0.574,0.024 -2.046,0.063 -2.402,0.063 -0.469,0 -1.516,-0.02 -2.121,-0.063 v 0.692 c 1.562,0 1.59,0.023 2.633,1.355 l 2.207,2.871 -2.098,2.657 c -1.066,1.293 -2.383,1.336 -2.851,1.336 v 0.691 c 0.582,-0.039 1.273,-0.07 1.851,-0.07 0.645,0 1.582,0.047 2.117,0.07 v -0.691 c -0.488,-0.063 -0.648,-0.356 -0.648,-0.692 0,-0.492 0.648,-1.222 2.004,-2.828 l 1.699,2.227 c 0.176,0.246 0.465,0.601 0.465,0.734 0,0.203 -0.199,0.539 -0.797,0.559 v 0.691 c 0.66,-0.023 1.914,-0.07 2.398,-0.07 0.606,0 1.477,0.031 2.141,0.07 v -0.691 c -1.199,0 -1.602,-0.043 -2.117,-0.692 z" /><path
     inkscape:connector-curvature="0"
     id="path58"
     style="fill:#ff0000;fill-opacity:1;fill-rule:nonzero;stroke:none"
     d="m 235.633,123.168 h 11.808 v -0.914 h -11.808" /><path
     inkscape:connector-curvature="0"
     id="path60"
     style="fill:#ff0000;fill-opacity:1;fill-rule:nonzero;stroke:none"
     d="m 252.703,99.762 -0.265,0.199 -0.262,0.207 -0.25,0.211 -0.235,0.219 -0.222,0.222 -0.211,0.227 -0.199,0.238 -0.188,0.238 -0.18,0.239 -0.168,0.246 -0.16,0.254 -0.144,0.25 -0.141,0.254 -0.129,0.254 -0.117,0.261 -0.109,0.258 -0.106,0.258 -0.094,0.262 -0.085,0.261 -0.075,0.262 -0.07,0.258 -0.059,0.262 -0.058,0.253 -0.051,0.254 -0.039,0.254 -0.035,0.25 -0.028,0.246 -0.023,0.246 -0.031,0.477 -0.008,0.23 v 0.227 c 0,2.199 0.656,5.609 3.742,7.789 0.125,0 0.309,0 0.309,-0.18 0,-0.097 -0.039,-0.125 -0.153,-0.238 -2.074,-1.871 -2.839,-4.519 -2.839,-7.359 0,-4.203 1.609,-6.262 2.886,-7.414 0.067,-0.063 0.106,-0.114 0.106,-0.188 0,-0.187 -0.184,-0.187 -0.309,-0.187 z" /><path
     inkscape:connector-curvature="0"
     id="path62"
     style="fill:#ff0000;fill-opacity:1;fill-rule:nonzero;stroke:none"
     d="m 261.332,99.598 h -0.082 l -0.012,0.004 h -0.023 l -0.012,0.003 h -0.027 l -0.008,0.004 h -0.016 l -0.023,0.008 -0.012,0.016 -0.008,0.004 -0.011,0.004 -0.008,0.004 -0.008,0.011 -0.023,0.024 v 0.004 l -0.008,0.011 v 0.004 l -0.004,0.004 -0.004,0.012 v 0.015 h -0.008 v 0.024 l -0.004,0.008 v 0.019 c 0,0.074 0.051,0.125 0.141,0.239 1.34,1.226 2.84,3.335 2.84,7.351 0,3.258 -1.016,5.727 -2.7,7.242 -0.257,0.274 -0.281,0.282 -0.281,0.367 0,0.082 0.051,0.18 0.203,0.18 0.192,0 1.672,-1.019 2.7,-2.972 0.683,-1.293 1.136,-2.981 1.136,-4.801 0,-2.196 -0.656,-5.61 -3.738,-7.789 z" /><path
     inkscape:connector-curvature="0"
     id="path64"
     style="fill:#000000;fill-opacity:1;fill-rule:nonzero;stroke:none"
     d="m 153.559,39.695 0.039,-0.101 0.039,-0.098 0.039,-0.09 0.047,-0.09 0.086,-0.156 0.046,-0.074 0.051,-0.07 0.047,-0.067 0.051,-0.062 0.055,-0.055 0.05,-0.059 0.055,-0.046 0.055,-0.051 0.117,-0.086 0.059,-0.035 0.125,-0.071 0.062,-0.027 0.125,-0.047 0.066,-0.023 0.067,-0.016 0.07,-0.019 0.067,-0.012 0.07,-0.012 0.066,-0.012 0.067,-0.007 0.074,-0.004 0.141,-0.008 v -0.68 c -0.485,0.043 -1.118,0.059 -1.594,0.059 -0.637,0 -1.617,-0.039 -2.035,-0.059 v 0.68 c 0.789,0.019 1.265,0.41 1.265,1.047 0,0.133 0,0.172 -0.109,0.461 l -1.984,5.59 -2.168,-6.098 c -0.082,-0.262 -0.11,-0.305 -0.11,-0.414 0,-0.586 0.856,-0.586 1.293,-0.586 v -0.68 c -0.633,0.02 -1.742,0.059 -2.269,0.059 -0.661,0 -1.289,-0.016 -1.95,-0.059 v 0.68 c 0.809,0 1.161,0.039 1.379,0.32 0.11,0.141 0.352,0.789 0.5,1.203 l -1.879,5.285 -2.074,-5.832 c -0.109,-0.257 -0.109,-0.304 -0.109,-0.39 0,-0.586 0.855,-0.586 1.285,-0.586 v -0.68 c -0.648,0.02 -1.875,0.059 -2.375,0.059 -0.09,0 -1.246,-0.016 -2.035,-0.059 v 0.68 c 1.097,0 1.355,0.058 1.617,0.758 l 2.754,7.734 c 0.109,0.313 0.18,0.484 0.461,0.484 0.285,0 0.328,-0.132 0.437,-0.441 l 2.207,-6.18 2.227,6.2 c 0.09,0.25 0.148,0.421 0.437,0.421 0.282,0 0.348,-0.203 0.442,-0.421 z" /><path
     inkscape:connector-curvature="0"
     id="path66"
     style="fill:#000000;fill-opacity:1;fill-rule:nonzero;stroke:none"
     d="m 140.246,50.625 h 16.102 V 49.73 h -16.102" /><g
     id="g68"><path
       inkscape:connector-curvature="0"
       id="path70"
       style="fill:none;stroke:#ff0000;stroke-width:1;stroke-linecap:butt;stroke-linejoin:miter;stroke-miterlimit:4;stroke-dasharray:none;stroke-opacity:0.97524797"
       d="m 247.125,132.941 c 0,1.457 -1.18,2.633 -2.633,2.633 -1.457,0 -2.633,-1.176 -2.633,-2.633 0,-1.453 1.176,-2.632 2.633,-2.632 1.453,0 2.633,1.179 2.633,2.632 z" /></g><path
     inkscape:connector-curvature="0"
     id="path72"
     style="fill:#ff0000;fill-opacity:1;fill-rule:nonzero;stroke:none"
     d="m 257.207,111.355 0.004,0.028 v 0.055 l 0.004,0.027 v 0.062 l -0.004,0.032 v 0.031 l -0.004,0.027 v 0.031 l -0.008,0.032 -0.004,0.031 -0.007,0.031 -0.008,0.028 -0.008,0.035 -0.035,0.082 -0.02,0.027 -0.058,0.07 -0.012,0.012 -0.012,0.008 -0.012,0.012 -0.015,0.007 -0.012,0.008 -0.016,0.012 -0.031,0.016 -0.015,0.003 -0.032,0.016 -0.019,0.008 -0.039,0.008 -0.024,0.004 -0.019,0.004 h -0.02 l -0.023,0.003 h -0.047 c -0.313,0 -0.566,-0.261 -0.512,-0.515 v -0.258 l 0.278,-3.055 -2.524,1.836 c -0.18,0.098 -0.215,0.133 -0.355,0.133 -0.274,0 -0.536,-0.277 -0.536,-0.547 0,-0.316 0.196,-0.398 0.395,-0.496 l 2.805,-1.344 -2.723,-1.316 c -0.316,-0.16 -0.477,-0.242 -0.477,-0.539 0,-0.289 0.262,-0.551 0.536,-0.551 0.14,0 0.175,0 0.672,0.383 l 2.207,1.594 -0.297,-3.317 c 0,-0.414 0.355,-0.511 0.515,-0.511 0.235,0 0.532,0.144 0.532,0.511 l -0.297,3.317 2.519,-1.836 c 0.184,-0.098 0.219,-0.141 0.363,-0.141 0.27,0 0.528,0.281 0.528,0.551 0,0.297 -0.176,0.394 -0.41,0.516 -1.184,0.593 -1.227,0.593 -2.782,1.324 l 2.719,1.324 c 0.317,0.152 0.473,0.234 0.473,0.531 0,0.297 -0.258,0.547 -0.528,0.547 -0.144,0 -0.179,0 -0.675,-0.375 l -2.207,-1.594 z" /><g
     id="g74"><path
       inkscape:connector-curvature="0"
       id="path76"
       style="fill:none;stroke:#000000;stroke-width:1;stroke-linecap:butt;stroke-linejoin:miter;stroke-miterlimit:4;stroke-dasharray:none;stroke-opacity:0.97524797"
       d="m 222.496,50.688 c 0,1.457 -1.18,2.632 -2.633,2.632 -1.457,0 -2.633,-1.175 -2.633,-2.632 0,-1.454 1.176,-2.633 2.633,-2.633 1.453,0 2.633,1.179 2.633,2.633 z" /></g><g
     id="g78"><path
       inkscape:connector-curvature="0"
       id="path80"
       style="fill:none;stroke:#000000;stroke-width:1;stroke-linecap:butt;stroke-linejoin:miter;stroke-miterlimit:4;stroke-dasharray:none;stroke-opacity:0.97524797"
       d="m 148.777,16.152 c 0,1.457 -1.179,2.633 -2.632,2.633 -1.457,0 -2.633,-1.176 -2.633,-2.633 0,-1.453 1.176,-2.632 2.633,-2.632 1.453,0 2.632,1.179 2.632,2.632 z" /></g><g
     id="g82"><path
       inkscape:connector-curvature="0"
       id="path84"
       style="fill:none;stroke:#000000;stroke-width:1;stroke-linecap:butt;stroke-linejoin:miter;stroke-miterlimit:4;stroke-dasharray:none;stroke-opacity:0.97524797"
       d="m 229.137,19.473 c 0,1.457 -1.18,2.632 -2.633,2.632 -1.457,0 -2.633,-1.175 -2.633,-2.632 0,-1.453 1.176,-2.633 2.633,-2.633 1.453,0 2.633,1.18 2.633,2.633 z" /></g><g
     id="g86"><path
       inkscape:connector-curvature="0"
       id="path88"
       style="fill:none;stroke:#000000;stroke-width:1;stroke-linecap:butt;stroke-linejoin:miter;stroke-miterlimit:4;stroke-dasharray:none;stroke-opacity:0.97524797"
       d="m 258.359,56.664 c 0,1.457 -1.179,2.633 -2.632,2.633 -1.457,0 -2.633,-1.176 -2.633,-2.633 0,-1.453 1.176,-2.633 2.633,-2.633 1.453,0 2.632,1.18 2.632,2.633 z" /></g><g
     id="g90"><path
       inkscape:connector-curvature="0"
       id="path92"
       style="fill:none;stroke:#000000;stroke-width:1;stroke-linecap:butt;stroke-linejoin:miter;stroke-miterlimit:4;stroke-dasharray:none;stroke-opacity:0.97524797"
       d="m 216.52,72.602 c 0,1.457 -1.18,2.632 -2.633,2.632 -1.457,0 -2.633,-1.175 -2.633,-2.632 0,-1.454 1.176,-2.629 2.633,-2.629 1.453,0 2.633,1.175 2.633,2.629 z" /></g><g
     id="g94"><path
       inkscape:connector-curvature="0"
       id="path96"
       style="fill:none;stroke:#000000;stroke-width:1;stroke-linecap:butt;stroke-linejoin:miter;stroke-miterlimit:4;stroke-dasharray:none;stroke-opacity:0.97524797"
       d="m 189.289,54.672 c 0,1.457 -1.18,2.633 -2.633,2.633 -1.457,0 -2.633,-1.176 -2.633,-2.633 0,-1.453 1.176,-2.633 2.633,-2.633 1.453,0 2.633,1.18 2.633,2.633 z" /></g><g
     id="g98"><path
       inkscape:connector-curvature="0"
       id="path100"
       style="fill:none;stroke:#000000;stroke-width:1;stroke-linecap:butt;stroke-linejoin:miter;stroke-miterlimit:4;stroke-dasharray:none;stroke-opacity:0.97524797"
       d="m 196.594,19.473 c 0,1.457 -1.18,2.632 -2.633,2.632 -1.457,0 -2.633,-1.175 -2.633,-2.632 0,-1.453 1.176,-2.633 2.633,-2.633 1.453,0 2.633,1.18 2.633,2.633 z" /></g><g
     id="g102"><path
       inkscape:connector-curvature="0"
       id="path104"
       style="fill:none;stroke:#000000;stroke-width:1.62558401;stroke-linecap:butt;stroke-linejoin:miter;stroke-miterlimit:4;stroke-dasharray:none;stroke-opacity:1"
       d="m 8.414,158.273 5.566,5.907" /></g><g
     id="g106"><path
       inkscape:connector-curvature="0"
       id="path108"
       style="fill:none;stroke:#000000;stroke-width:1.62558401;stroke-linecap:butt;stroke-linejoin:miter;stroke-miterlimit:4;stroke-dasharray:none;stroke-opacity:1"
       d="m 13.703,158.367 -5.129,5.555" /></g><g
     id="g110"><path
       inkscape:connector-curvature="0"
       id="path112"
       style="fill:none;stroke:#000000;stroke-width:1.62558401;stroke-linecap:butt;stroke-linejoin:miter;stroke-miterlimit:4;stroke-dasharray:none;stroke-opacity:1"
       d="m 9.641,175.867 5.566,5.906" /></g><g
     id="g114"><path
       inkscape:connector-curvature="0"
       id="path116"
       style="fill:none;stroke:#000000;stroke-width:1.62558401;stroke-linecap:butt;stroke-linejoin:miter;stroke-miterlimit:4;stroke-dasharray:none;stroke-opacity:1"
       d="m 14.93,175.957 -5.129,5.559" /></g><g
     id="g118"><path
       inkscape:connector-curvature="0"
       id="path120"
       style="fill:none;stroke:#000000;stroke-width:1.62558401;stroke-linecap:butt;stroke-linejoin:miter;stroke-miterlimit:4;stroke-dasharray:none;stroke-opacity:1"
       d="m 60.77,197.746 5.566,5.902" /></g><g
     id="g122"><path
       inkscape:connector-curvature="0"
       id="path124"
       style="fill:none;stroke:#000000;stroke-width:1.62558401;stroke-linecap:butt;stroke-linejoin:miter;stroke-miterlimit:4;stroke-dasharray:none;stroke-opacity:1"
       d="m 66.059,197.836 -5.129,5.555" /></g><g
     id="g126"><path
       inkscape:connector-curvature="0"
       id="path128"
       style="fill:none;stroke:#000000;stroke-width:1.62558401;stroke-linecap:butt;stroke-linejoin:miter;stroke-miterlimit:4;stroke-dasharray:none;stroke-opacity:1"
       d="m 36.102,197.996 5.566,5.906" /></g><g
     id="g130"><path
       inkscape:connector-curvature="0"
       id="path132"
       style="fill:none;stroke:#000000;stroke-width:1.62558401;stroke-linecap:butt;stroke-linejoin:miter;stroke-miterlimit:4;stroke-dasharray:none;stroke-opacity:1"
       d="m 41.391,198.086 -5.129,5.555" /></g><g
     id="g134"><path
       inkscape:connector-curvature="0"
       id="path136"
       style="fill:none;stroke:#000000;stroke-width:1.62558401;stroke-linecap:butt;stroke-linejoin:miter;stroke-miterlimit:4;stroke-dasharray:none;stroke-opacity:1"
       d="m 8.375,209.949 5.566,5.906" /></g><g
     id="g138"><path
       inkscape:connector-curvature="0"
       id="path140"
       style="fill:none;stroke:#000000;stroke-width:1.62558401;stroke-linecap:butt;stroke-linejoin:miter;stroke-miterlimit:4;stroke-dasharray:none;stroke-opacity:1"
       d="m 13.66,210.043 -5.125,5.555" /></g><path
     inkscape:connector-curvature="0"
     id="path142"
     style="fill:#000000;fill-opacity:1;fill-rule:evenodd;stroke:none"
     d="m 255.32,197.297 0.039,-0.117 v -0.059 l 0.02,-0.078 0.019,-0.082 0.04,-0.078 0.019,-0.078 0.023,-0.098 0.04,-0.082 0.117,-0.293 0.039,-0.102 0.039,-0.097 0.058,-0.098 0.063,-0.097 0.059,-0.102 0.058,-0.078 0.059,-0.098 0.078,-0.078 0.058,-0.102 0.082,-0.078 0.098,-0.078 0.078,-0.058 0.098,-0.063 0.082,-0.058 0.059,-0.02 0.058,-0.039 0.039,-0.02 0.117,-0.039 h 0.063 l 0.039,-0.019 0.059,-0.02 h 0.136 l 0.059,-0.019 h 0.062 c 0.098,0 0.571,0 0.985,0.258 -0.551,0.097 -0.946,0.589 -0.946,1.062 0,0.316 0.215,0.691 0.75,0.691 0.434,0 1.067,-0.355 1.067,-1.144 0,-1.027 -1.168,-1.301 -1.836,-1.301 -1.149,0 -1.84,1.047 -2.074,1.5 -0.496,-1.305 -1.539,-1.5 -2.114,-1.5 -2.054,0 -3.179,2.547 -3.179,3.02 0,0.199 0.199,0.199 0.238,0.199 0.156,0 0.215,-0.043 0.258,-0.219 0.668,-2.074 1.972,-2.566 2.644,-2.566 0.375,0 1.047,0.176 1.047,1.32 0,0.613 -0.336,1.918 -1.047,4.66 -0.316,1.227 -1.008,2.055 -1.875,2.055 -0.121,0 -0.574,0 -0.988,-0.258 0.492,-0.098 0.93,-0.512 0.93,-1.066 0,-0.532 -0.438,-0.692 -0.735,-0.692 -0.59,0 -1.086,0.516 -1.086,1.149 0,0.906 0.989,1.281 1.86,1.281 1.301,0 2.012,-1.363 2.07,-1.48 0.219,0.73 0.93,1.48 2.113,1.48 2.036,0 3.161,-2.527 3.161,-3.02 0,-0.199 -0.18,-0.199 -0.239,-0.199 -0.176,0 -0.215,0.082 -0.254,0.219 -0.652,2.113 -1.996,2.586 -2.629,2.586 -0.769,0 -1.086,-0.633 -1.086,-1.305 0,-0.433 0.122,-0.867 0.336,-1.715 z" /><path
     inkscape:connector-curvature="0"
     id="path144"
     style="fill:#000000;fill-opacity:1;fill-rule:evenodd;stroke:none"
     d="m 264.621,197.438 v -0.18 l -0.019,-0.02 v -0.078 l -0.02,-0.019 v -0.02 l -0.039,-0.039 h -0.02 l -0.019,-0.02 h -0.082 l -0.02,-0.019 h -0.195 c -0.891,0.867 -2.133,0.887 -2.707,0.887 v 0.492 c 0.336,0 1.246,0 1.996,-0.395 v 7.012 c 0,0.453 0,0.629 -1.383,0.629 h -0.515 v 0.496 c 0.238,-0.019 1.937,-0.059 2.449,-0.059 0.433,0 2.172,0.04 2.469,0.059 v -0.496 h -0.512 c -1.383,0 -1.383,-0.176 -1.383,-0.629 z" /><path
     inkscape:connector-curvature="0"
     id="path146"
     style="fill:#000000;fill-opacity:1;fill-rule:evenodd;stroke:none"
     d="M 6.102,3.199 6.141,3.082 V 3.023 L 6.16,2.941 6.18,2.863 6.219,2.785 6.238,2.707 6.258,2.605 6.297,2.527 6.34,2.43 6.379,2.332 6.418,2.23 6.496,2.035 6.555,1.938 6.613,1.836 6.672,1.738 6.734,1.66 6.793,1.562 6.871,1.48 6.93,1.383 7.008,1.305 7.109,1.227 7.188,1.164 7.285,1.105 7.363,1.047 7.426,1.027 7.484,0.988 7.523,0.969 7.641,0.93 H 7.699 L 7.738,0.91 7.801,0.891 h 0.137 l 0.058,-0.02 h 0.059 c 0.101,0 0.574,0 0.988,0.254 -0.551,0.102 -0.949,0.594 -0.949,1.066 0,0.317 0.218,0.692 0.754,0.692 C 9.281,2.883 9.91,2.527 9.91,1.738 9.91,0.711 8.746,0.434 8.074,0.434 6.93,0.434 6.238,1.48 6.004,1.938 5.508,0.633 4.461,0.434 3.891,0.434 c -2.055,0 -3.18,2.55 -3.18,3.023 0,0.195 0.199,0.195 0.238,0.195 0.156,0 0.215,-0.039 0.254,-0.214 0.672,-2.075 1.977,-2.567 2.649,-2.567 0.375,0 1.046,0.176 1.046,1.32 0,0.614 -0.336,1.918 -1.046,4.661 -0.317,1.226 -1.008,2.054 -1.879,2.054 -0.118,0 -0.571,0 -0.985,-0.258 C 1.48,8.551 1.914,8.137 1.914,7.582 1.914,7.051 1.48,6.891 1.184,6.891 c -0.59,0 -1.086,0.515 -1.086,1.148 0,0.906 0.988,1.281 1.855,1.281 1.305,0 2.016,-1.363 2.074,-1.48 0.219,0.73 0.93,1.48 2.114,1.48 2.035,0 3.16,-2.527 3.16,-3.019 C 9.301,6.102 9.121,6.102 9.062,6.102 8.887,6.102 8.848,6.18 8.805,6.32 8.156,8.434 6.812,8.906 6.18,8.906 5.41,8.906 5.094,8.273 5.094,7.602 5.094,7.168 5.211,6.734 5.43,5.887 Z" /><path
     inkscape:connector-curvature="0"
     id="path148"
     style="fill:#000000;fill-opacity:1;fill-rule:evenodd;stroke:none"
     d="m 17.75,9.559 h -0.473 c -0.039,0.316 -0.179,1.125 -0.355,1.261 -0.117,0.078 -1.184,0.078 -1.383,0.078 H 13.012 C 14.453,9.617 14.945,9.242 15.777,8.59 16.805,7.781 17.75,6.93 17.75,5.629 c 0,-1.66 -1.461,-2.688 -3.238,-2.688 -1.719,0 -2.864,1.207 -2.864,2.469 0,0.692 0.594,0.77 0.731,0.77 0.316,0 0.73,-0.235 0.73,-0.731 0,-0.254 -0.097,-0.73 -0.808,-0.73 0.414,-0.985 1.363,-1.281 2.015,-1.281 1.379,0 2.09,1.066 2.09,2.191 0,1.183 -0.867,2.133 -1.301,2.625 l -3.316,3.277 c -0.141,0.121 -0.141,0.141 -0.141,0.535 h 5.688 z" /><g
     transform="matrix(1,-0.624869,0.624869,1,0,0)"
     id="g154"><path
       inkscape:connector-curvature="0"
       id="path156"
       style="fill:none;stroke:#000000;stroke-width:1.27207196;stroke-linecap:butt;stroke-linejoin:miter;stroke-miterlimit:4;stroke-dasharray:none;stroke-opacity:1"
       d="m 16.105,139.087 2.112,5.972" /></g><g
     transform="matrix(1,-0.624869,0.624869,1,0,0)"
     id="g158"><path
       inkscape:connector-curvature="0"
       id="path160"
       style="fill:none;stroke:#000000;stroke-width:1.27207196;stroke-linecap:butt;stroke-linejoin:miter;stroke-miterlimit:4;stroke-dasharray:none;stroke-opacity:1"
       d="m 82.988,118.181 2.11,5.975" /></g><g
     id="g162"><path
       inkscape:connector-curvature="0"
       id="path164"
       style="fill:none;stroke:#000000;stroke-width:2.25;stroke-linecap:butt;stroke-linejoin:miter;stroke-miterlimit:4;stroke-dasharray:none;stroke-opacity:1"
       d="M 106.133,131.973 C 127.797,106.484 145.41,85.75 159.723,68.898" /></g></g><path
   transform="rotate(-31.5)"
   d="m 19.428094,139.05564 a 8.0602245,8.0602245 0 0 1 -4.72133,10.03798 l -2.931602,-7.50819 z"
   sodipodi:end="1.1985463"
   sodipodi:start="5.9639284"
   sodipodi:ry="8.0602245"
   sodipodi:rx="8.0602245"
   sodipodi:cy="141.58543"
   sodipodi:cx="11.775162"
   sodipodi:type="arc"
   id="path971"
   style="fill:none;fill-opacity:0.15294118;stroke:#000000;stroke-width:0.99975002;stroke-miterlimit:4;stroke-dasharray:none;stroke-dashoffset:0;stroke-opacity:0.97524749" /><g
   ns0:jacobian_sqrt="1.0"
   inkscapeversion="0.92.3"
   ns0:alignment="middle center"
   ns0:scale="0.750000000002"
   ns0:preamble="/home/kashefy/.config/inkscape/extensions/textext/default_packages.tex"
   ns0:text="$\\mathrm{d}_w$"
   ns0:pdfconverter="pstoedit"
   ns0:texconverter="pdflatex"
   ns0:version="0.10.0"
   word-spacing="normal"
   letter-spacing="normal"
   font-size-adjust="none"
   font-stretch="normal"
   font-weight="normal"
   font-variant="normal"
   font-style="normal"
   stroke-miterlimit="10.433"
   xml:space="preserve"
   transform="matrix(3.6250114,0,0,-3.6250114,-402.3874,2507.1797)"
   id="content"
   style="font-style:normal;font-variant:normal;font-weight:normal;font-stretch:normal;letter-spacing:normal;word-spacing:normal;text-anchor:start;fill:none;fill-opacity:1;fill-rule:evenodd;stroke:#000000;stroke-linecap:butt;stroke-linejoin:miter;stroke-miterlimit:10.43299961;stroke-dasharray:none;stroke-dashoffset:0;stroke-opacity:1">
<path
   id="path972"
   d="m 152.5,657.78 v -0.65 l 1.47,0.1 v 0.31 c -0.7,0 -0.78,0.07 -0.78,0.56 v 6.03 l -1.44,-0.11 v -0.31 c 0.7,0 0.78,-0.07 0.78,-0.55 v -2.15 c -0.29,0.36 -0.72,0.62 -1.26,0.62 l 0.05,-0.22 c 0.34,0 0.76,-0.15 1.07,-0.6 0.11,-0.17 0.11,-0.19 0.11,-0.37 v 0 -2.03 c 0,-0.18 0,-0.2 -0.11,-0.37 -0.3,-0.48 -0.75,-0.7 -1.18,-0.7 -0.44,0 -0.8,0.26 -1.04,0.64 -0.26,0.41 -0.29,0.97 -0.29,1.38 0,0.37 0.02,0.96 0.31,1.41 0.21,0.31 0.59,0.64 1.13,0.64 l -0.05,0.22 c -1.17,0 -2.22,-0.98 -2.22,-2.26 0,-1.26 0.98,-2.24 2.11,-2.24 0.64,0 1.09,0.33 1.34,0.65 z"
   inkscape:connector-curvature="0"
   style="fill:#000000;stroke-width:0" />
<path
   id="path974"
   d="m 157.93,657.96 v 0.02 0.02 l 0.01,0.02 v 0.02 l 0.01,0.02 0.01,0.02 0.01,0.04 0.01,0.04 0.01,0.05 0.01,0.04 v 0.02 l 0.01,0.02 v 0.03 l 0.01,0.02 v 0.02 l 0.01,0.01 v 0.02 l 0.01,0.02 v 0.02 0.01 l 0.01,0.01 v 0.02 0.01 0.01 l 0.01,0.01 v 0.01 0 0 0 0.01 c 0,0.14 -0.11,0.22 -0.23,0.22 -0.14,0 -0.26,-0.08 -0.3,-0.2 -0.02,-0.06 -0.1,-0.35 -0.14,-0.52 -0.1,-0.4 -0.1,-0.42 -0.21,-0.8 -0.09,-0.39 -0.1,-0.44 -0.11,-0.64 0.03,-0.14 -0.03,-0.28 -0.19,-0.48 -0.09,-0.12 -0.23,-0.23 -0.47,-0.23 -0.28,0 -0.63,0.09 -0.63,0.64 0,0.35 0.19,0.87 0.33,1.22 0.12,0.31 0.15,0.37 0.15,0.49 0,0.33 -0.29,0.59 -0.66,0.59 -0.71,0 -1.02,-0.95 -1.02,-1.07 0,-0.09 0.09,-0.09 0.12,-0.09 0.09,0 0.1,0.04 0.12,0.11 0.17,0.58 0.48,0.85 0.75,0.85 0.12,0 0.18,-0.07 0.18,-0.24 0,-0.16 -0.06,-0.31 -0.1,-0.4 -0.4,-1.02 -0.4,-1.16 -0.4,-1.37 0,-0.82 0.75,-0.93 1.13,-0.93 0.13,0 0.47,0 0.79,0.47 0.16,-0.32 0.54,-0.47 0.97,-0.47 0.62,0 0.93,0.54 1.07,0.82 0.3,0.59 0.49,1.46 0.49,1.78 0,0.52 -0.3,0.55 -0.35,0.55 -0.18,0 -0.38,-0.19 -0.38,-0.37 0,-0.12 0.07,-0.18 0.12,-0.22 0.17,-0.14 0.26,-0.33 0.26,-0.56 0,-0.09 -0.29,-1.8 -1.18,-1.8 -0.57,0 -0.57,0.5 -0.57,0.61 0,0.19 0.03,0.3 0.13,0.7 z"
   inkscape:connector-curvature="0"
   style="fill:#000000;stroke-width:0" />
</g>
</g></svg>