<?xml version="1.0" encoding="UTF-8"?>
<!DOCTYPE svg PUBLIC "-//W3C//DTD SVG 1.1//EN" "http://www.w3.org/Graphics/SVG/1.1/DTD/svg11.dtd">
<svg version="1.1" xmlns="http://www.w3.org/2000/svg" xmlns:xlink="http://www.w3.org/1999/xlink" x="0" y="0" width="484.99" height="396.783" viewBox="0, 0, 484.99, 396.783">
  <defs>
    <clipPath id="Clip_1">
      <path d="M0,0 L484.99,0 L484.99,396.783 L0,396.783 z"/>
    </clipPath>
  </defs>
  <g id="Layer_1">
    <g clip-path="url(#Clip_1)">
      <path d="M273.061,363.8 C285.589,367.662 297.505,376.486 311.827,373.211 C314.755,371.33 316.234,367.983 319.882,368.003 C320.766,366.549 322.663,366.56 322.673,364.808 L323.402,364.814 C326.122,374.314 327.818,384.247 329.952,393.892 C281.776,396.685 235.662,396.277 185.892,397.31 C183.846,371.905 182.682,345.63 178,321.67 C176.752,310.132 174.046,298.443 171.189,287.336 C178.616,290.152 186.042,293.257 193.172,296.8 C192.863,299.864 190.8,303.5 190.633,307.292 C193.831,309.5 197.471,310.834 200.373,313.77 C200.203,318.147 198.139,321.928 197.968,326.307 C219.895,345.839 249.509,347.613 273.061,363.8 M170.802,226.625 C171.218,230.566 173.977,233.209 175.707,236.867 C170.892,236.693 166.088,234.624 162.017,231.829 C165.229,231.701 168.742,229.969 170.802,226.625 M479.826,394.444 L477.376,388.886 C476.933,363.781 469.33,340.828 462.454,318.022 C454.882,288.791 441.315,262.301 427.892,235.519 C420.664,223.656 417.967,210.069 408.397,199.361 C400.527,197.274 395.902,189.368 388.92,185.241 C387.461,185.088 386.288,186.395 385.408,186.973 C383.073,187.107 383.233,184.334 382.221,183.016 C386.209,174.427 393.54,168.339 397.819,160.046 C400.317,156.849 402.532,152.483 405.61,150.312 C412.1,138.09 422.376,127.348 426.392,113.945 C430.391,103.605 429.578,92.364 428.764,81.414 C427.849,62.73 416.41,46.758 401.589,35.291 L395.342,30.002 C384.003,22.203 371.334,17.168 358.372,13.01 C337.821,8.224 310.554,3.838 293.541,18.918 C290.01,23.716 288.225,30.126 289.504,36.117 C283.372,36.229 278.538,39.849 274.428,44.059 C270.747,49.437 272.305,58.056 274.316,63.76 C276.901,71.217 284.166,76.949 288.215,83.394 C287.584,92 290.741,101.503 289.521,110.691 C288.34,113.165 290.362,116.971 287.724,118.708 C281.854,124.22 275.401,130.021 270.402,136.56 C268.622,142.095 274.297,144.462 277.049,148.418 C288.2,163.658 293.34,183.535 310.059,195.305 C310.165,195.356 310.278,195.397 310.386,195.446 C320.8,178.031 318.769,153.464 308.495,136.123 C318.769,153.464 320.8,178.031 310.386,195.446 C317.163,198.514 325.341,197.566 332.815,196.746 C336.604,197.936 338.329,202.469 339.33,205.977 C336.689,208.735 328.378,207.229 330.971,213.519 C332.273,215.568 331.379,218.483 331.658,220.967 C329.306,223.871 325.655,224.434 322.869,226.9 C323.559,233.908 325.271,240.631 326.545,247.497 C316.134,256.341 304.129,263.131 293.423,272.266 C291.677,271.379 292.565,269.342 291.403,268.314 C275.265,257.715 262.363,242.465 245.041,234.486 C241.963,236.658 240.536,231.104 237.62,230.504 C236.597,230.936 235.284,230.929 234.837,232.239 C232.805,230.33 229.607,228.123 228.31,225.196 C228.49,219.071 221.368,214.213 216.72,210.102 C210.468,206.125 213.718,198.992 209.809,193.571 C216.097,191.272 222.958,190.872 229.536,189.159 C233.923,187.432 239.608,188.777 242.842,184.417 C243.147,182.23 242.573,180.476 241.121,179.153 C227.834,180.1 215.124,182.654 202.558,185.504 C202.268,185.064 201.54,184.768 201.835,184.186 C198.343,182.561 194.849,180.791 190.618,180.621 C184.937,178.837 178.797,180.553 173.102,181.105 L172.837,176.579 C173.183,166.949 161.242,162.504 158.958,153.443 C157.823,147.598 154.499,141.743 155.554,135.911 C160.273,127.182 162.224,117.707 161.26,107.486 C158.754,86.019 140.042,65.774 119.203,60.694 C105.514,55.509 93.097,57.775 79.934,62.662 C71.744,65.826 64.418,71.038 58.83,78.596 C43.224,76.902 27.843,87.177 20.613,101.146 C8.249,119.611 10.429,147.204 18.052,166.949 C20.776,175.575 19.55,185.928 12.365,192.163 C11.48,193.473 9.003,192.873 9.575,194.92 C13.936,198.156 18.058,191.758 22.145,191.488 C21.683,196.01 23.12,199.813 24.12,203.76 C21.73,213.524 10.749,219.591 8.942,229.651 C7.6,234.75 9.47,239.577 12.807,242.952 C17.89,247.213 23.891,244.184 28.868,241.584 C29.579,244.944 30.436,248.158 33.047,250.802 C37.696,254.621 45.29,253.79 51.279,252.948 C56.98,251.229 63.432,245.719 64.197,239.448 C65.081,237.848 65.945,239.896 67.114,239.756 C69.736,240.501 72.804,240.082 75.144,239.073 C78.541,231.795 84.191,239.414 88.713,239.586 L88.358,250.675 C86.307,252.27 83.681,251.962 81.629,253.557 C80.889,255.449 83.219,256.337 82.041,258.083 L76.353,257.613 C65.693,258.866 55.724,266.69 51.145,276.443 C43.63,298.686 43.827,325.117 46.152,349.802 C50.273,311.068 57.073,265.342 102.022,260.463 C97.694,251.682 105.031,244.428 110.902,238.621 C96.334,234.161 81.748,232.621 73.066,219.438 C41.234,171.097 59.05,117.203 84.106,73.563 C59.05,117.203 41.234,171.097 73.066,219.438 C81.748,232.621 96.334,234.161 110.902,238.621 C105.031,244.428 97.694,251.682 102.022,260.463 C57.073,265.342 50.273,311.068 46.152,349.802 C46.719,355.829 47.409,361.757 48.15,367.489 C48.308,377.98 50.065,388.077 51.054,398.187 C68.603,395.228 85.151,390.154 104.215,388.901 C112.971,388.949 124.655,387.556 131.993,380.301 C115.972,374.371 94.075,375.707 83.942,361.057 C116.063,358.318 146.774,346.818 176.044,332.39 C146.774,346.818 116.063,358.318 83.942,361.057 C94.075,375.707 115.972,374.371 131.993,380.301 C124.655,387.556 112.971,388.949 104.215,388.901 C85.151,390.154 68.603,395.228 51.054,398.187 C51.4,401.721 51.656,405.257 51.71,408.811 L49.23,408.796 C48.644,409.231 48.495,409.815 48.637,410.545 C51.26,411.143 54.309,413.786 56.655,412.049 C64.097,412.092 71.402,410.673 78.407,410.713 C79.705,413.493 78.37,417.28 80.693,419.483 C82.003,419.927 82.593,418.763 83.617,418.476 C82.315,416.425 83.211,412.929 82.931,410.738 C90.677,408.738 99.285,409.078 107.463,408.105 C121.771,407.018 136.084,405.055 150.243,404.55 C149.936,407.177 147.444,409.205 148.45,411.837 C149.473,411.843 150.784,411.998 151.519,411.125 C151.972,408.5 153.3,406.027 154.335,403.405 C163.244,402.144 172.297,401.319 181.348,400.786 C183.648,406.929 182.293,414.509 185.178,420.509 C185.762,420.366 186.782,420.664 186.93,420.08 C187.679,416.729 186.983,410.886 186.275,407.09 C185.848,405.19 185.425,402.562 186.602,400.816 C236.516,400.368 285.267,398.892 335.912,397.865 C353.207,396.294 370.474,395.68 387.682,395.604 C382.024,389.477 377.124,382.971 375.741,374.378 C365.782,329.083 390.804,291.281 395.428,247.526 C368.97,280.941 342.523,312.899 314.596,347.765 C311.663,350.668 304.332,356.464 299.971,353.521 C282.508,344.666 262.07,346.009 244.608,337.155 C224.234,326.823 218.537,301.984 211.349,282.971 C218.537,301.984 224.234,326.823 244.608,337.155 C262.07,346.009 282.508,344.666 299.971,353.521 C304.332,356.464 311.663,350.668 314.596,347.765 C342.523,312.899 368.97,280.941 395.428,247.526 C390.804,291.281 365.782,329.083 375.741,374.378 C377.124,382.971 382.024,389.477 387.682,395.604 C417.115,395.475 446.372,396.929 475.281,397.923 C479.511,398.675 477.432,404.794 480.484,406.999 C482.089,406.863 481.811,404.673 481.818,403.212 C482.268,401.319 479.656,398.532 482.577,397.963 C486.087,396.815 491.175,400.493 492.365,396.267 C489.613,392.603 484.048,395.929 479.826,394.444" fill="#332D2B"/>
      <path d="M135.744,232.925 C116.83,226.05 105.518,210.42 104.069,191.887 C104.002,191.887 103.936,191.883 103.87,191.883 C103.936,191.883 104.002,191.887 104.069,191.887 C103.957,190.441 103.886,188.984 103.894,187.505 C103.886,188.984 103.957,190.441 104.069,191.887 C117.136,191.99 130.18,194.986 141.754,202.313 C130.18,194.986 117.136,191.99 104.069,191.887 C105.518,210.42 116.83,226.05 135.744,232.925" fill="#332D2B"/>
      <path d="M425.812,87.382 C424.555,77.159 422.129,67.513 418.68,58.154 C395.804,25.918 359.982,11.852 321.603,11.489 C310.214,12.446 296.915,15.874 293.055,27.673 C291.28,31.603 293.301,35.846 294.74,39.357 C292.533,42.555 290.222,38.164 287.149,39.606 C282.765,40.602 278.369,43.789 276.156,48.3 C274.493,58.506 278.078,69.619 287.236,76.09 C290.209,66.038 291.73,55.54 291.649,44.156 C291.804,42.551 293.413,41.684 295.161,42.132 C300.232,48.874 307.645,54.023 315.661,55.82 C312.91,52.156 310.012,48.638 308.721,44.252 C311.794,42.81 314.844,45.454 317.905,46.055 C337.447,48.793 355.802,54.587 376.967,53.394 C378.717,53.84 378.415,55.592 378.409,56.905 C374.137,63.885 366.804,70.266 361.08,76.071 C359.754,78.253 356.392,79.254 355.791,82.024 C358.829,87.149 365.228,90.979 365.922,97.113 C369.248,102.385 370.38,108.959 372.83,114.372 C374.594,112.193 375.047,109.422 376.374,106.949 C379.906,101.861 386.197,99.124 392.463,100.472 C400.474,103.437 405.825,111.931 406.362,120.108 C406.011,130.612 398.811,139.328 389.452,142.777 C392.643,146.443 395.544,149.526 399.174,152.611 C403.433,147.673 407.403,142.587 410.208,136.912 C420.069,122.374 428.332,106.22 425.812,87.382" fill="#5F5D5D"/>
      <path d="M373.878,57.901 L373.88,57.316 C353.304,57.199 334.362,51.839 315.405,49.543 C315.836,50.859 317.438,51.452 317.868,52.769 C318.287,55.69 324.846,57.331 320.891,60.081 C311.552,60.028 302.965,55.603 295.853,48.704 C294.924,58.185 293.412,67.516 291.026,76.405 C291.675,90.71 294.227,104.15 292.543,118.15 C286.384,123.369 281.821,130.203 275.66,135.568 L289.671,135.647 C296.921,136.238 303.936,137.294 310.388,139.605 C309.787,138.418 309.163,137.253 308.494,136.123 C309.163,137.253 309.787,138.418 310.388,139.605 C314.189,140.967 317.797,142.764 321.14,145.165 C338.107,138.256 354.642,130.468 371.033,122.388 C368.31,113.47 365.296,104.843 361.693,96.359 C361.273,93.584 358.803,91.38 356.917,89.327 C354.744,86.541 351.547,84.481 351.271,81.268 C358.471,72.699 366.242,66.321 373.878,57.901" fill="#FCE8DA"/>
      <path d="M397.394,54.532 C403.036,63.319 408.532,71.96 410.809,82.043 C411.236,84.089 410.497,85.981 408.741,86.848 C403.354,84.627 398.56,80.369 393.321,77.713 C393.299,81.506 395.761,85.168 396.468,89.259 C395.284,92.171 393.255,89.532 391.945,88.941 C387.59,84.976 382.496,82.321 377.253,80.394 C377.257,79.665 377.116,78.788 377.995,78.356 C382.807,78.967 386.881,81.178 390.808,83.681 C391.556,80.182 386.325,76.214 390.284,73.172 C396.844,74.229 401.333,80.238 407.305,82.606 C405.754,72.821 399.966,64.032 393.885,55.68 C393.897,53.344 396.083,54.086 397.394,54.532" fill="#FEFEFE"/>
      <path d="M167.905,171.298 C159.485,163.369 154.577,153.855 152.303,143.189 C152.321,139.834 150.742,135.154 153.821,132.69 C158.551,122.21 160.233,108.356 155.48,97.384 C147.269,78.365 128.242,62.205 107.234,61.065 C92.493,61.128 78.903,64.407 68.049,74.124 C64.534,76.293 63.475,82.854 58.522,81.366 C51.377,80.451 44.938,83.479 38.793,86.217 C23.69,98.829 13.954,117.161 15.743,136.436 C14.646,149.855 21.443,160.839 22.976,173.69 L23.705,173.693 C28.296,161.899 32.89,149.52 31.51,135.503 C31.076,134.624 30.651,132.579 32.259,132.004 C33.427,132.01 34.888,131.728 35.464,133.044 C37.541,152.758 29.57,168.911 22.91,185.218 C29.659,178.981 35.535,172.155 40.54,164.595 C47.453,154.857 48.543,142.75 51.964,131.386 C60.223,113.292 64.322,94.51 80.48,80.067 C81.67,77.877 82.876,75.704 84.106,73.563 C82.876,75.704 81.67,77.877 80.48,80.067 C81.09,79.522 81.681,78.968 82.326,78.435 C83.792,77.277 85.988,76.268 87.288,78.464 C87.281,79.778 85.235,80.35 85.516,81.957 C98.302,92.098 112.682,104.292 125.188,111.952 C122.318,103.324 115.638,97.45 111.743,89.401 C110.728,88.228 110.885,86.332 112.349,85.61 C119.202,86.525 123.544,93.116 128.772,97.524 C137.613,108.52 147.181,119.665 146.076,134.398 C147.296,151.188 153.485,166.401 157.339,181.745 C160.857,178.846 165.512,181.355 169.6,181.085 C170.059,177.439 169.055,174.368 167.905,171.298" fill="#B87761"/>
      <path d="M316.693,80.052 C316.824,82.534 319.145,85.028 317.236,87.352 C313.439,87.476 310.992,81.48 306.458,83.498 C302.509,85.079 300.87,90.763 296.634,91.176 C295.188,89.272 297.39,86.948 297.692,84.906 C300.785,80.108 303.892,72.39 310.746,73.305 C313.804,74.49 314.662,77.852 316.693,80.052" fill="#332D2B"/>
      <path d="M143.262,141.826 C141.265,133.641 143.501,125.19 138.871,118.305 C135.683,114.347 134.559,106.46 127.697,107.004 C128.554,110.366 132.18,114.473 129.681,117.523 C128.66,117.371 127.198,117.802 126.18,117.212 C111.06,107.056 96.68,95.154 82.003,83.98 C78.398,86.972 75.664,90.418 73.355,94.082 C54.791,133.431 46.063,178.432 73.066,219.438 C81.625,232.435 95.923,234.122 110.285,238.44 C111.848,238.431 113.417,238.376 114.989,238.276 C120.247,237.577 125.631,240.379 129.017,235.145 C129.171,233.686 128.888,231.932 129.48,230.624 L127.721,232.074 C121.147,233.204 114.119,237.25 107.427,233.71 C100.871,231.485 99.746,224.035 99.051,217.901 C98.933,208.495 100.58,199.604 104.021,191.427 C103.932,190.132 103.886,188.825 103.893,187.505 C103.886,188.825 103.932,190.132 104.021,191.427 C106.452,185.646 109.773,180.219 114.032,175.226 C118.867,171.897 123.709,167.255 130.553,169.773 C133.61,171.105 136.803,174.333 137.075,177.838 C139.959,183.838 140.357,190.989 140.463,198.142 C144.263,196.995 148.208,196.288 151.72,194.702 C157.812,175.182 142.866,160.212 143.262,141.826" fill="#FCE8DA"/>
      <path d="M73.066,219.438 C46.063,178.432 54.791,133.431 73.354,94.081 C70.403,98.762 68.148,103.8 65.664,108.698 C58.729,122.231 55.004,135.636 51.127,150.353 C51.539,155.025 45.681,158.494 49.303,163.331 C52.32,171.667 53.29,180.867 54.41,189.19 C54.083,195.465 56.805,204.528 51.82,208.441 C64.438,228.635 86.618,238.61 110.285,238.44 C95.923,234.122 81.625,232.435 73.066,219.438" fill="#F8D1CD"/>
      <path d="M54.935,96.377 C50.112,97.664 48.765,103.639 45.099,106.83 C44.823,103.909 45.281,100.409 46.173,97.496 C46.33,95.6 47.513,92.833 45.179,92.528 C40.784,95.568 38.57,99.788 34.609,103.706 C31.806,108.943 26.529,113.146 26.348,119.421 C27.365,120.156 28.537,119.433 29.27,118.708 C31.936,111.717 36.786,105.615 41.637,99.514 L42.659,99.519 L40.834,112.497 L41.559,113.523 C45.937,113.401 48.011,107.867 50.655,104.818 C51.985,102.053 56.67,99.452 54.935,96.377" fill="#FEFEFE"/>
      <path d="M129.176,103.51 L125.96,104.514 C123.794,100.561 120.457,97.04 118.291,92.941 C121.775,96.318 126.28,99.699 129.176,103.51" fill="#FCE8DA"/>
      <path d="M400.857,113.07 C404.614,119.659 401.36,127.522 397.97,133.048 C394.292,138.573 388.304,139.415 383.19,140.261 C382.456,141.425 382.447,142.884 382.878,144.2 C368.938,157.402 351.692,161.974 336.026,170.933 C331.543,163.612 329.547,155.428 324.626,148.395 C339.992,140.455 356.663,134.42 372.033,126.188 C373.199,126.488 373.772,128.387 375.236,127.666 C380.356,125.36 380.263,116.02 387.12,116.496 C388.716,117.964 388.704,120.153 388.255,122.194 C387.52,123.212 385.178,124.219 385.316,125.97 C386.184,127.435 387.786,127.59 388.812,126.72 C391.745,124.548 393.227,120.617 392.079,116.962 C390.772,115.641 390.201,113.449 388.306,113 C383.353,111.512 379.531,116.452 376.595,119.647 C376.628,113.81 378.855,106.963 385.146,104.226 C392.164,101.931 397.97,107.51 400.857,113.07" fill="#FCE8DA"/>
      <path d="M305.981,116.476 C306.548,119.106 308.586,120.139 310.032,122.337 C309.586,123.939 307.98,123.93 306.521,123.776 C303.333,119.963 301.754,115.284 302.076,110.034 C302.808,109.452 304.123,109.023 304.849,109.757 C305.276,111.948 305.554,114.284 305.981,116.476" fill="#332D2B"/>
      <path d="M81.124,110.536 C74.122,110.059 72.183,117.345 68.799,122.142 C68.201,124.765 65.996,127.525 67.294,130.159 C68.026,129.726 68.903,129.584 69.492,128.712 C71.712,123.18 73.06,117.35 78.336,113.002 C80.239,112.136 81.102,114.477 82.41,115.213 C83.58,114.782 84.601,114.933 84.609,113.474 C83.596,112.156 82.579,111.273 81.124,110.536" fill="#332D2B"/>
      <path d="M138.35,133.041 C138.621,136.837 139.327,140.928 139.014,144.574 L140.457,147.647 C136.804,148.356 134.728,154.182 129.49,151.525 C125.414,149.753 122.523,144.772 121.961,140.975 C121.964,140.246 121.537,138.492 122.562,137.768 C128.104,138.382 124.559,146.098 129.949,147.587 C131.983,149.35 133.746,147.171 134.777,145.572 C136.554,141.059 134.685,136.085 135.294,131.564 C136.608,131.426 138.067,131.434 138.35,133.041" fill="#332D2B"/>
      <path d="M312.74,144.849 C301.59,140.004 289.103,138.524 275.643,139.071 C275.347,139.507 274.18,139.5 274.612,140.378 C284.056,148.02 285.6,158.682 292.705,167.187 C297.762,175.36 303.125,187.326 312.214,192.055 C319.105,177.84 318.624,159.848 312.74,144.849" fill="#FEFEFE"/>
      <path d="M333.93,180.262 C334.529,177.491 331.475,175.578 332.511,172.958 C327.744,164.465 325.024,155.256 318.353,147.629 C316.523,146.595 314.651,145.678 312.74,144.849 C318.623,159.848 319.105,177.84 312.213,192.055 C315.341,193.68 318.906,194.455 323.055,193.918 C321.747,192.451 323.937,192.61 323.653,191.149 C325.999,189.266 327.612,187.668 330.103,186.223 C331.861,184.774 334.497,183.038 333.93,180.262" fill="#D8EEFB"/>
      <path d="M75.225,147.279 C74.64,147.422 73.765,147.124 73.179,147.705 C71.7,151.198 74.603,153.988 75.898,157.206 C74.724,158.512 73.258,159.527 72.374,160.982 C72.371,161.71 72.513,162.295 73.094,162.737 C75.859,164.066 76.169,160.711 77.636,159.552 C79.086,161.019 80.242,163.215 82.136,163.809 C86.065,165.729 89.872,163.561 93.092,161.828 C97.933,157.476 95.932,149.877 94.501,145.052 C93.197,143.44 93.656,139.648 90.441,140.36 C87.934,145.016 93.451,150.008 90.938,155.832 C90.046,158.599 86.827,160.186 83.914,159.002 C78.967,156.494 78.267,151.236 75.225,147.279" fill="#332D2B"/>
      <path d="M396.095,155.074 C393.118,165.565 382.716,172.803 378.428,182.702 C378.269,184.891 380.012,186.506 380.876,188.263 C368.874,194.47 355.857,199.65 342.842,204.247 C340.24,200.145 339.405,192.553 332.836,192.952 C330.646,193.523 329.478,193.225 327.144,193.213 C331.987,188.279 341.497,183.953 337.464,174.736 C353.43,164.32 372.715,160.489 386.371,145.534 C389.861,148.034 393.34,151.994 396.095,155.074" fill="#FCE8DA"/>
      <path d="M126.675,158.806 C125.931,161.43 127.075,165.522 124.152,166.527 C121.529,165.637 123.878,163.314 123.159,161.267 C120.689,159.356 117.007,165.318 116.16,160.206 C119.233,158.764 123.62,157.184 126.675,158.806" fill="#332D2B"/>
      <path d="M49.209,180.113 C47.778,174.997 47.958,169.015 45.062,165.058 L38.297,174.068 C36.977,175.375 39.013,176.553 40.035,176.559 L50.441,194.421 z" fill="#B87761"/>
      <path d="M136.013,185.128 C135.445,182.351 134.438,179.719 133.577,177.087 C131.994,173.139 127.624,171.655 123.824,172.8 C117.535,175.1 111.511,182.362 110.456,188.194 C118.206,185.466 127.122,183.035 136.013,185.128" fill="#FEFEFE"/>
      <path d="M49.358,205.362 C48.517,199.083 46.068,193.376 42.449,188.103 C40.698,188.238 39.54,186.48 37.641,187.053 C35.008,188.06 35.281,191.417 35.851,193.757 C36.713,196.096 38.165,197.563 39.905,199.325 C39.321,199.614 39.316,200.342 38.876,200.778 C37.556,202.085 36.395,200.764 35.084,200.319 C32.332,196.801 30.169,191.972 31.947,187.314 C33.568,184.55 36.348,183.252 39.701,183.854 C38.69,181.952 37.683,179.32 35.501,178.286 C31.238,183.806 22.894,188.138 25.912,196.473 C28.388,197.363 28.374,199.844 28.361,202.032 C29.661,204.52 32.282,205.557 34.319,206.59 C39.128,207.785 45.833,209.428 49.358,205.362" fill="#F8D1CD"/>
      <path d="M239.347,182.938 C234.658,186.561 227.656,185.938 221.81,187.365 L200.041,191.764 C193.047,189.828 185.875,193.581 179.008,195.148 C175.939,195.568 173.458,195.846 170.691,194.809 C184.121,194.009 196.256,190.137 208.824,186.999 C218.616,184.572 229.569,183.175 239.347,182.938" fill="#DCDDDD"/>
      <path d="M198.323,185.918 C194.956,187.796 189.995,187.621 186.048,188.914 C178.592,191.206 168.37,192.315 161.537,187.753 C160.667,186.581 159.945,185.264 159.807,183.949 C163.599,184.408 167.539,184.43 171.036,185.325 C179.519,182.017 190.169,182.66 198.323,185.918" fill="#FCE8DA"/>
      <path d="M132.492,188.319 L136.27,191.112 L136.285,188.633 C134.821,189.208 133.811,187.304 132.492,188.319" fill="#EA6D87"/>
      <path d="M162.967,192.722 L156.685,194 C156.11,192.393 158.02,190.068 157.302,188.021 C159.335,189.929 160.49,191.979 162.967,192.722" fill="#FEFEFE"/>
      <path d="M389.64,277.045 C375.76,301.134 357.571,323.04 340.729,346.083 C338.821,348.262 336.326,350.583 336.162,353.356 C335.716,354.958 333.964,355.093 332.649,355.379 C330.888,357.412 327.076,360.164 326.628,362.057 C330.364,372.294 331.761,383.394 334.474,393.917 L345.711,393.98 C358.665,392.664 371.576,392.263 384.67,392.192 C380.348,387.025 376.869,381.399 375.741,374.378 C368.08,339.541 381.108,309.135 389.64,277.045" fill="#D3D3D4"/>
      <path d="M472.583,384.919 C473.025,384.191 473.607,384.195 474.34,383.908 C474.087,377.048 472.225,370.906 471.239,364.333 C460.548,319.326 446.933,275.613 423.659,235.786 C417.012,224.368 414.312,211.364 405.323,201.097 C398.936,195.077 397.848,206.892 393.018,209.345 C391.705,209.191 390.241,209.769 389.518,208.597 C391.435,205.105 395.836,201.335 396.883,196.816 C393.685,194.464 390.639,191.382 387.144,189.757 L385.671,192.23 C384.792,192.661 383.186,192.654 382.608,191.773 L360.369,201.864 C351.743,204.88 342.677,207.894 334.771,212.228 C338.535,217.502 341.861,223.064 344.894,228.774 C350.468,223.698 357.061,219.212 363.791,216.186 C373.302,211.861 386.452,208.872 396.497,213.306 C402.313,217.279 403.882,223.564 404.428,230.133 C403.333,243.261 399.761,255.499 395.024,267.147 C393.321,270.492 391.517,273.788 389.641,277.046 C381.108,309.135 368.081,339.542 375.741,374.379 C376.87,381.4 380.349,387.026 384.671,392.193 C397.703,392.122 410.914,392.376 424.526,392.383 C442.04,392.336 458.082,394.031 475.304,394.129 C474.3,391.057 473.004,388.133 472.583,384.919" fill="#FEFEFE"/>
      <path d="M125.99,228.561 L126.267,228.352 C126.118,228.259 125.96,228.174 125.811,228.081 C125.866,228.243 125.947,228.391 125.99,228.561" fill="#EA6D87"/>
      <path d="M105.703,228.737 C109.079,225.399 112.742,222.648 117.272,221.799 C117.518,221.85 117.774,221.926 118.027,221.994 C111.59,215.778 107.21,207.962 105.191,199.223 C102.687,208.79 100.525,220.121 105.703,228.737" fill="#C55C65"/>
      <path d="M119.208,188.973 C115.816,189.483 112.58,190.39 109.657,192.119 C112.057,192.293 114.45,192.576 116.826,192.971 C117.232,191.563 117.939,190.227 119.208,188.973" fill="#EA6D87"/>
      <path d="M132.359,212.105 C124.624,212.061 118.673,206.336 116.377,199.465 C116.303,197.146 116.247,194.984 116.826,192.971 C114.45,192.576 112.058,192.294 109.657,192.119 C108.55,192.771 107.487,193.532 106.481,194.447 C106.064,195.969 105.624,197.573 105.192,199.223 C107.211,207.961 111.59,215.778 118.028,221.994 C121.201,222.825 124.686,224.725 125.812,228.081 C125.961,228.174 126.118,228.259 126.268,228.352 L131.559,224.36 C129.688,219.825 134.232,216.202 132.359,212.105" fill="#EA6D87"/>
      <path d="M163.674,196.813 C155.867,197.726 148.566,199.925 141.178,201.964 C141.369,202.083 141.562,202.192 141.753,202.313 C141.562,202.192 141.369,202.083 141.178,201.964 C140.688,202.099 140.2,202.237 139.709,202.37 C137.946,202.182 137.207,200.879 136.671,199.427 C131.385,196.727 125.855,194.831 120.201,193.616 C118.602,198.798 122.808,203.335 126.111,206.817 C129.019,208.73 133.832,209.341 136.906,207.608 C141.173,201.502 149.772,203.593 155.918,200.709 C160.159,199.127 168.463,201.657 168.497,195.526 C167.034,196.248 164.986,196.965 163.674,196.813" fill="#DCDDDD"/>
      <path d="M135.655,196.655 C133.343,192.701 129.127,190.051 124.751,189.588 C123.141,190.309 121.385,191.028 120.501,192.775 C120.38,193.057 120.287,193.337 120.201,193.616 C125.855,194.831 131.385,196.727 136.671,199.427 C136.322,198.477 136.055,197.466 135.655,196.655" fill="#F5F5F5"/>
      <path d="M208.031,198.231 C206.868,197.495 205.565,195.736 204.257,194.708 C205.718,194.277 206.889,193.846 207.462,195.747 C207.163,196.766 207.889,197.354 208.031,198.231" fill="#FCE8DA"/>
      <path d="M232.345,234.415 C229.579,232.94 227.554,229.865 225.818,227.374 C225.409,222.117 220.759,218.589 217.133,214.628 C209.583,207.872 205.705,196.613 195.209,194.657 C186.88,196.507 178.246,200.689 169.938,199.037 C168.599,203.408 172.084,206.348 175.136,208.845 C179.788,211.935 186.939,211.975 192.203,210.401 C194.683,210.268 196.604,206.048 198.923,208.979 C199.208,210.149 198.183,210.872 197.886,211.746 C196.702,214.514 198.292,217.147 199.155,219.488 C199.872,221.681 203.082,221.846 202.629,224.471 C202.044,224.904 201.6,225.778 200.872,225.772 C196.653,223.415 193.761,218.727 193.935,213.475 C190.572,214.77 186.921,215.333 183.124,215.603 C187.16,224.528 194.993,232.892 203.28,238.482 C210.265,242.024 213.579,249.486 212.663,256.633 C218.239,251.264 224.259,245.022 229.253,239.213 C230.14,237.322 233.064,236.315 232.345,234.415" fill="#FCE8DA"/>
      <path d="M168.431,207.347 C165.792,209.522 163.005,212.132 159.365,210.507 C158.351,209.188 157.925,207.141 158.663,205.541 C160.717,203.802 163.638,203.381 166.411,203.25 C167.426,204.422 167.123,206.319 168.431,207.347" fill="#FCE8DA"/>
      <path d="M150.634,205.934 C149.874,211.474 144.745,215.24 141.799,219.893 C139.609,220.027 138.167,217.247 136.117,218.11 C135.546,215.917 136.29,213.587 136.593,211.4 C139.254,205.432 146.385,208.828 150.634,205.934" fill="#FCE8DA"/>
      <path d="M61.149,236.512 C61.159,234.762 59.423,231.979 61.909,230.971 C64.832,230.403 64.082,233.903 65.679,235.225 C67.858,237.28 71.214,237.298 74.137,236.586 C74.287,235.858 75.606,234.989 74.734,234.254 C64.547,229.088 54.672,220.569 48.599,210.612 C41.586,212.031 32.834,211.252 27.02,206.987 C23.326,214.992 14.974,220.928 12.883,229.672 C11.833,234.483 12.54,238.573 16.318,241.514 C23.019,243.594 28.307,237.641 32.126,233.284 C32.712,232.849 34.027,232.418 34.458,233.588 C36.492,235.353 33.129,236.498 33.12,238.104 C32.955,241.315 32.64,245.545 35.544,248.043 C40.193,252.01 47.785,251.176 53.053,248.727 C57.446,246.123 60.682,241.616 61.149,236.512" fill="#B87761"/>
      <path d="M155.072,221.282 C160.027,222.476 155.913,227.27 157.07,229.466 C152.848,227.399 148.479,225.915 144.554,222.973 C146.913,218.755 151.755,214.259 154.411,209.019 C154.1,212.521 151.733,218.053 155.072,221.282" fill="#B87761"/>
      <path d="M172.599,218.608 C172.604,217.733 172.316,217.001 171.59,216.559 L170.568,216.554 C170.723,214.949 171.465,212.763 171.185,210.574 L176.418,214.104 z" fill="#FCE8DA"/>
      <path d="M162.087,219.569 C160.482,219.416 158.434,220.28 157.57,218.231 C157.577,216.918 156.999,216.039 157.152,214.727 C160.505,215.182 164.014,214.18 167.085,213.031 C166.781,215.365 164.865,218.565 162.087,219.569" fill="#FCE8DA"/>
      <path d="M314.596,347.765 C311.662,350.668 304.331,356.464 299.971,353.521 C282.508,344.666 262.07,346.009 244.608,337.156 C226.63,328.038 220.08,307.625 213.848,289.886 C208.434,300.848 204.073,312.243 202.064,324.579 C209.625,329.436 216.742,335.461 225.192,337.991 C243.694,343.786 260.417,353.95 277.886,361.783 C288.083,365.197 297.097,371.376 308.627,371.005 C314.768,369.142 317.28,363.319 322.7,359.993 C326.216,357.386 329.304,353.317 332.674,350.855 C343.403,337.636 352.53,323.823 363.695,310.751 C373.224,295.246 385.995,281.205 392.69,264.397 C393.866,258.854 394.824,253.243 395.428,247.526 C368.97,280.941 342.523,312.899 314.596,347.765" fill="#D3D3D4"/>
      <path d="M397.044,219.876 L393.271,216.061 C382.927,212.79 370.941,216.518 361.717,221.426 C351.768,226.042 345.585,235.783 337.809,243.328 C327.363,258.01 315.75,272.829 307.051,288.396 C305.133,292.178 301.465,295.516 301.443,299.602 C301.876,300.188 302.902,299.609 303.482,300.342 C303.475,301.363 303.612,302.677 302.734,303.402 C297.479,303.81 299.63,310.535 299.612,313.6 C299.151,317.685 303.216,321.354 300.568,325.135 C298.378,325.267 298.247,322.934 297.378,321.613 C296.095,316.353 295.691,310.074 296.453,304.388 C296.749,303.952 297.193,302.642 296.172,302.637 C271.842,294.909 248.554,284.415 224.521,275.962 L221.31,275.944 C218.695,280.538 216.177,285.172 213.849,289.887 C220.081,307.625 226.63,328.038 244.608,337.155 C262.07,346.009 282.509,344.667 299.971,353.521 C304.332,356.465 311.663,350.668 314.596,347.766 C342.523,312.898 368.971,280.94 395.428,247.525 C394.824,253.242 393.867,258.854 392.691,264.396 C393.342,262.758 393.958,261.104 394.484,259.41 C397.327,247.167 404.124,232.465 397.044,219.876" fill="#FEFEFE"/>
      <path d="M206.737,246.528 C195.984,238.442 185.818,229.337 179.317,217.624 C178.586,217.912 178.445,217.181 177.86,217.325 C175.815,217.897 175.947,220.087 175.065,221.395 C173.138,226.637 176.472,230.45 179.225,234.115 C179.938,237.038 179.049,239.512 179.763,242.436 C178.736,243.305 178.585,244.034 177.414,244.612 C176.249,244.168 175.382,242.85 175.241,241.827 C164.607,238.556 154.859,233.102 144.817,228.229 C141.469,226.751 139.012,222.504 135.802,222.341 C135.505,223.36 134.622,224.669 135.49,225.843 C141.871,233.028 150.602,237.602 158.452,243.046 C158.593,243.923 158.291,245.526 156.974,246.249 C148.676,242.698 141.124,236.235 133.71,231.085 C133.59,231.38 133.501,231.681 133.418,231.983 C134.187,232.303 134.947,232.636 135.744,232.926 C134.947,232.636 134.187,232.303 133.418,231.983 C132.683,234.648 133.31,237.509 133.95,240.135 C139.023,246.438 146.731,251.153 152.831,256.294 L152.827,257.024 C152.091,258.187 150.767,260.076 149.315,258.757 C143.501,254.636 137.984,249.643 132.168,245.671 C130.643,257.336 145.367,260.048 151.314,266.501 C150.87,267.665 149.698,268.535 148.53,268.529 C143.436,266.02 138.933,262.344 133.84,259.689 C132.228,260.993 131.05,262.739 132.061,264.641 C139.781,267.167 145.875,273.475 153.004,277.309 C166.405,281.764 180.395,285.2 192.906,292.276 C193.635,292.28 194.512,292.138 194.945,293.017 C199.963,283.266 204.836,273.223 210.144,263.623 C208.276,258.212 209.921,251.362 206.737,246.528" fill="#FCE8DA"/>
      <path d="M163.79,228.043 C167.593,226.46 168.93,222.526 168.806,218.586 L164.552,222.503 C163.229,223.955 159.731,223.204 160.589,226.273 C161.167,227.445 162.329,228.473 163.79,228.043" fill="#FCE8DA"/>
      <path d="M339.211,227.284 C340.367,229.042 340.5,231.522 342.393,232.555 C339.591,237.501 334.171,240.973 330.786,245.769 C328.923,239.923 327.499,233.93 326.658,227.506 C330.315,226.067 338.246,217.502 339.211,227.284" fill="#9AD6F5"/>
      <path d="M116.811,225.736 C114.325,226.743 110.228,228.618 110.211,231.537 C114.291,232.726 119.69,232.756 123.206,230.297 C121.173,228.678 120.171,225.172 116.811,225.736" fill="#E75096"/>
      <path d="M218.881,266.882 C227.099,258.902 233.423,250.035 240.04,241.463 C243.702,238.856 239.335,236.934 237.594,235.174 C229.952,244.762 221.735,252.45 213.655,261.891 L214.371,264.374 C215.826,265.26 216.982,267.164 218.881,266.882" fill="#FEFEFE"/>
      <path d="M281.047,292.773 C286.734,293.68 291.532,297.21 296.782,297.824 C305.622,282.987 314.32,267.567 325.489,253.474 L324.761,253.47 C315.382,260.422 304.694,266.638 295.889,275.051 C296.751,277.393 298.203,278.567 299.798,280.62 C299.939,281.643 299.494,282.516 298.615,283.094 C297.301,283.377 296.283,282.642 295.561,281.618 C291.957,273.571 284.551,266.961 277.136,262.249 C266.967,253.874 257.095,244.772 245.742,239.307 C237.805,249.331 231.613,260.387 222.077,269.382 C224.116,270.124 225.416,272.464 227.603,272.915 C245.664,279.146 263.282,286.106 281.047,292.773" fill="#FEFEFE"/>
      <path d="M128.961,245.068 C128.207,249.443 128.471,254.26 131.372,257.631 L128.584,260.098 C127.721,258.049 130.516,253.979 127.608,252.066 L119.581,252.02 C119.16,249.244 118.888,245.594 118.468,242.528 C122.271,241.09 125.909,242.862 128.99,239.815 C129.71,241.716 129.411,243.027 128.961,245.068" fill="#FEFEFE"/>
      <path d="M92.21,240.627 L91.865,250.111 C94.839,251.04 98.023,251.428 101.269,251.631 C102.289,248.268 104.628,245.187 107.214,242.389 C102.198,242.182 97.139,241.248 92.21,240.627" fill="#F8D1CD"/>
      <path d="M116.083,251.561 C114.934,248.199 115.533,245.429 114.384,242.067 C112.018,242.432 109.621,242.487 107.215,242.389 C104.628,245.187 102.289,248.268 101.269,251.631 C105.815,251.917 110.487,251.834 114.911,252.285 z" fill="#FCE8DA"/>
      <path d="M56.237,408.544 C64.407,408.883 70.25,408.039 78.426,407.212 C78.094,402.419 77.859,397.604 77.613,392.794 C70.091,394.337 62.711,396.042 55.202,397.445 C55.592,401.158 55.947,404.859 56.237,408.544" fill="#FFF694"/>
      <path d="M83.942,361.057 C94.075,375.707 115.972,374.371 131.993,380.301 C124.655,387.556 112.971,388.95 104.215,388.901 C96.311,389.419 88.841,390.598 81.551,392.01 C81.853,396.748 82.171,401.483 82.519,406.211 L83.681,407.241 C105.584,405.03 128.501,403.99 150.848,400.615 C154.983,391.881 157.955,382.703 160.926,373.381 C165.844,361.949 166.964,349.56 165.986,337.191 C139.759,349.318 112.405,358.631 83.942,361.057" fill="#E4DB85"/>
      <path d="M131.993,380.301 C115.973,374.371 94.075,375.707 83.942,361.057 C112.406,358.631 139.76,349.318 165.987,337.191 C164.849,322.781 160.864,308.396 156.696,295.572 C155.262,291.187 153.244,286.796 152.686,281.979 C149.198,279.33 145.12,278.141 141.779,275.203 C137.571,271.094 131.298,270.62 127.821,266.075 C121.843,265.166 115.545,269.217 110.313,265.248 C110.462,264.664 110.029,263.787 110.762,263.5 C115.43,263.671 119.664,263.404 124.339,262.554 L124.378,255.549 C116.49,256.321 108.497,255.685 100.741,255.146 C100.744,256.852 101.115,258.622 102.023,260.463 C63.859,264.606 53.198,298.197 48.326,331.95 C49.266,353.682 52.92,375.758 55.203,397.446 C62.711,396.041 70.091,394.336 77.614,392.794 C77.259,385.88 76.88,378.976 76.144,372.173 C75.986,348.53 72.768,323.848 72.613,299.622 C73.786,298.9 75.241,299.637 76.111,300.37 C78.462,331.061 79.618,361.634 81.552,392.01 C88.842,390.598 96.311,389.419 104.216,388.901 C112.972,388.949 124.655,387.556 131.993,380.301" fill="#FFF694"/>
      <path d="M102.023,260.463 C101.115,258.622 100.744,256.852 100.741,255.146 C96.007,254.814 91.359,254.522 86.878,254.609 C83.371,255.317 87.729,258.99 87.276,261.615 C86.397,262.339 85.807,263.358 84.496,262.912 C83.201,259.549 78.087,260.687 75.315,260.525 C66.402,262.52 57.171,269.033 54.201,278.211 C48.668,295.582 47.533,313.643 48.326,331.95 C53.198,298.197 63.86,264.606 102.023,260.463" fill="#E4DB85"/>
      <path d="M212.346,285.672 C212.015,284.76 211.683,283.859 211.349,282.971 C211.683,283.859 212.015,284.76 212.346,285.672 C214.576,281.284 216.818,276.904 218.85,272.428 C216.671,270.664 214.195,269.627 211.868,268.303 C209.664,270.916 209.209,273.979 207.006,276.593 C203.011,286.201 196.687,294.777 194.876,305.274 C197.203,306.746 199.679,307.782 201.857,309.545 C204.512,301.179 208.411,293.412 212.346,285.672" fill="#FEFEFE"/>
      <path d="M156.764,283.315 L157.184,286.527 C162.643,301.882 167.371,317.523 170.198,333.885 C170.23,334.33 170.242,334.748 170.269,335.187 C172.119,334.306 173.962,333.414 175.8,332.507 C173.933,318.161 171.46,304.06 167.962,290.383 C168.731,283.381 160.695,285.088 156.764,283.315" fill="#FFF694"/>
      <path d="M170.269,335.187 C171.05,347.417 169.954,357.339 166.791,368.453 C163.957,379.236 158.501,389.275 156.544,399.917 C164.577,398.648 173.481,398.408 181.365,397.722 C180.005,375.798 178.582,353.877 175.8,332.507 C173.962,333.414 172.119,334.306 170.269,335.187" fill="#FFF694"/>
      <path d="M70.659,182.827 C70.642,185.859 73.905,188.336 77.948,188.359 C81.991,188.382 85.281,185.942 85.298,182.91 C85.315,179.878 82.052,177.402 78.01,177.378 C73.966,177.357 70.676,179.795 70.659,182.827" fill="#F3B3BC"/>
    </g>
  </g>
</svg>
