<?xml version="1.0" encoding="UTF-8" standalone="no"?>
<!-- Created with Inkscape (http://www.inkscape.org/) -->

<svg
   xmlns:ns0="http://www.iki.fi/pav/software/textext/"
   xmlns:dc="http://purl.org/dc/elements/1.1/"
   xmlns:cc="http://creativecommons.org/ns#"
   xmlns:rdf="http://www.w3.org/1999/02/22-rdf-syntax-ns#"
   xmlns:svg="http://www.w3.org/2000/svg"
   xmlns="http://www.w3.org/2000/svg"
   xmlns:xlink="http://www.w3.org/1999/xlink"
   xmlns:sodipodi="http://sodipodi.sourceforge.net/DTD/sodipodi-0.dtd"
   xmlns:inkscape="http://www.inkscape.org/namespaces/inkscape"
   sodipodi:docname="section1_fig20_mini_vdi.svg"
   viewBox="0 0 305.97693 196.09903"
   height="196.09903"
   width="305.97693"
   xml:space="preserve"
   inkscape:version="0.92.3 (2405546, 2018-03-11)"
   version="1.1"
   id="svg2"><sodipodi:namedview
     inkscape:current-layer="svg2"
     inkscape:window-maximized="1"
     inkscape:window-y="0"
     inkscape:window-x="1600"
     inkscape:cy="132.10985"
     inkscape:cx="41.951048"
     inkscape:zoom="1.6358209"
     showgrid="false"
     id="namedview4"
     inkscape:window-height="1052"
     inkscape:window-width="1920"
     inkscape:pageshadow="2"
     inkscape:pageopacity="0"
     guidetolerance="10"
     gridtolerance="10"
     objecttolerance="10"
     borderopacity="1"
     bordercolor="#666666"
     pagecolor="#ffffff" /><metadata
     id="metadata8"><rdf:RDF><cc:Work
         rdf:about=""><dc:format>image/svg+xml</dc:format><dc:type
           rdf:resource="http://purl.org/dc/dcmitype/StillImage" /><dc:title /></cc:Work></rdf:RDF></metadata><defs
     id="defs6"><marker
       inkscape:isstock="true"
       style="overflow:visible"
       id="Arrow1Mend"
       refX="0"
       refY="0"
       orient="auto"
       inkscape:stockid="Arrow1Mend"><path
         transform="matrix(-0.4,0,0,-0.4,-4,0)"
         style="fill:#000000;fill-opacity:1;fill-rule:evenodd;stroke:#000000;stroke-width:1.00000003pt;stroke-opacity:1"
         d="M 0,0 5,-5 -12.5,0 5,5 Z"
         id="path933"
         inkscape:connector-curvature="0" /></marker><marker
       inkscape:isstock="true"
       style="overflow:visible"
       id="Arrow1Lend"
       refX="0"
       refY="0"
       orient="auto"
       inkscape:stockid="Arrow1Lend"><path
         transform="matrix(-0.8,0,0,-0.8,-10,0)"
         style="fill:#000000;fill-opacity:1;fill-rule:evenodd;stroke:#000000;stroke-width:1.00000003pt;stroke-opacity:1"
         d="M 0,0 5,-5 -12.5,0 5,5 Z"
         id="path927"
         inkscape:connector-curvature="0" /></marker></defs><g
     id="g10"
     inkscape:groupmode="layer"
     inkscape:label="section1_fig20"
     transform="matrix(1.25,0,0,-1.25,-66.779045,198.70389)"><g
       id="g12"
       transform="matrix(0.1,0,0,0.1,0,-1.6)"><path
         d="m 2169.52,846.664 c 0,-38.051 -30.88,-68.934 -68.93,-68.934 -38.05,0 -68.93,30.883 -68.93,68.934 0,38.055 30.88,68.938 68.93,68.938 38.05,0 68.93,-30.883 68.93,-68.938 z"
         style="fill:none;stroke:#000000;stroke-width:8;stroke-linecap:butt;stroke-linejoin:miter;stroke-miterlimit:10;stroke-dasharray:none;stroke-opacity:1"
         id="path14"
         inkscape:connector-curvature="0" /><path
         d="M 1251.141,1476.43 C 2049.36,897.902 2049.36,897.902 2049.36,897.902"
         style="fill:none;stroke:#000000;stroke-width:8;stroke-linecap:butt;stroke-linejoin:miter;stroke-miterlimit:10;stroke-dasharray:none;stroke-opacity:1"
         id="path16"
         inkscape:connector-curvature="0" /><path
         d="m 1984.58,944.848 -44.69,-7.129 109.47,-39.817 -71.91,91.637 7.13,-44.691"
         style="fill:#000000;fill-opacity:1;fill-rule:evenodd;stroke:none"
         id="path18"
         inkscape:connector-curvature="0" /><path
         d="m 1984.58,944.848 -44.69,-7.129 109.47,-39.817 -71.91,91.637 z"
         style="fill:none;stroke:#000000;stroke-width:8;stroke-linecap:butt;stroke-linejoin:miter;stroke-miterlimit:10;stroke-dasharray:none;stroke-opacity:1"
         id="path20"
         inkscape:connector-curvature="0" /><path
         d="M 1245.766,1141.31 C 2035.38,873.312 2035.38,873.312 2035.38,873.312"
         style="fill:none;stroke:#000000;stroke-width:8;stroke-linecap:butt;stroke-linejoin:miter;stroke-miterlimit:10;stroke-dasharray:none;stroke-opacity:1"
         id="path22"
         inkscape:connector-curvature="0" /><path
         d="m 1959.62,899.023 -40.58,-20.019 116.34,-5.692 -95.77,66.297 20.01,-40.586"
         style="fill:#000000;fill-opacity:1;fill-rule:evenodd;stroke:none"
         id="path24"
         inkscape:connector-curvature="0" /><path
         d="m 1959.62,899.023 -40.58,-20.019 116.34,-5.692 -95.77,66.297 z"
         style="fill:none;stroke:#000000;stroke-width:8;stroke-linecap:butt;stroke-linejoin:miter;stroke-miterlimit:10;stroke-dasharray:none;stroke-opacity:1"
         id="path26"
         inkscape:connector-curvature="0" /><path
         d="M 2056.74,788.309 C 1231.199,436.035 1231.199,436.035 1231.199,436.035"
         style="fill:none;stroke:#000000;stroke-width:8;stroke-linecap:butt;stroke-linejoin:miter;stroke-miterlimit:10;stroke-dasharray:none;stroke-opacity:1"
         id="path28"
         inkscape:connector-curvature="0" /><path
         d="m 1983.16,756.91 -16.87,-41.992 90.45,73.391 -115.57,-14.528 41.99,-16.871"
         style="fill:#000000;fill-opacity:1;fill-rule:evenodd;stroke:none"
         id="path30"
         inkscape:connector-curvature="0" /><path
         d="m 1983.16,756.91 -16.87,-41.992 90.45,73.391 -115.57,-14.528 z"
         style="fill:none;stroke:#000000;stroke-width:8;stroke-linecap:butt;stroke-linejoin:miter;stroke-miterlimit:10;stroke-dasharray:none;stroke-opacity:1"
         id="path32"
         inkscape:connector-curvature="0" /><path
         d="m 1404.242,1007.83 h 16.4844 v 14.5156 h -16.4844 z"
         style="fill:#000000;fill-opacity:1;fill-rule:nonzero;stroke:none"
         id="path38"
         inkscape:connector-curvature="0" /><path
         d="m 1404.242,861.512 h 16.4844 v 14.5156 h -16.4844 z"
         style="fill:#000000;fill-opacity:1;fill-rule:nonzero;stroke:none"
         id="path40"
         inkscape:connector-curvature="0" /><path
         d="m 1404.242,715.195 h 16.4844 v 14.5195 h -16.4844 z"
         style="fill:#000000;fill-opacity:1;fill-rule:nonzero;stroke:none"
         id="path42"
         inkscape:connector-curvature="0" /><path
         d="m 1404.242,568.883 h 16.4844 v 14.5156 h -16.4844 z"
         style="fill:#000000;fill-opacity:1;fill-rule:nonzero;stroke:none"
         id="path44"
         inkscape:connector-curvature="0" /><path
         d="m 1243.188,1475.9 c 0,-38.05 -30.883,-68.94 -68.934,-68.94 -38.051,0 -68.934,30.89 -68.934,68.94 0,38.05 30.883,68.93 68.934,68.93 38.051,0 68.934,-30.88 68.934,-68.93 z"
         style="fill:none;stroke:#000000;stroke-width:8;stroke-linecap:butt;stroke-linejoin:miter;stroke-miterlimit:10;stroke-dasharray:none;stroke-opacity:1"
         id="path48"
         inkscape:connector-curvature="0" /><path
         d="m 1239.535,1146.33 c 0,-38.05 -30.883,-68.94 -68.933,-68.94 -38.051,0 -68.934,30.89 -68.934,68.94 0,38.05 30.883,68.94 68.934,68.94 38.05,0 68.933,-30.89 68.933,-68.94 z"
         style="fill:none;stroke:#000000;stroke-width:8;stroke-linecap:butt;stroke-linejoin:miter;stroke-miterlimit:10;stroke-dasharray:none;stroke-opacity:1"
         id="path50"
         inkscape:connector-curvature="0" /><path
         d="m 1238.766,413.926 c 0,-38.051 -30.883,-68.934 -68.938,-68.934 -38.051,0 -68.933,30.883 -68.933,68.934 0,38.051 30.882,68.933 68.933,68.933 38.055,0 68.938,-30.882 68.938,-68.933 z"
         style="fill:none;stroke:#000000;stroke-width:8;stroke-linecap:butt;stroke-linejoin:miter;stroke-miterlimit:10;stroke-dasharray:none;stroke-opacity:1"
         id="path52"
         inkscape:connector-curvature="0" /><path
         d="m 2948.7154,1485.23 c -798.22,-578.535 -798.22,-578.535 -798.22,-578.535"
         style="fill:#808080;fill-opacity:1;stroke:#808080;stroke-width:8;stroke-linecap:butt;stroke-linejoin:miter;stroke-miterlimit:10;stroke-dasharray:none;stroke-opacity:1"
         id="path60"
         inkscape:connector-curvature="0" /><path
         d="m 2883.9354,1438.28 -7.13,-44.69 71.91,91.64 -109.47,-39.82 44.69,-7.13"
         style="fill:#808080;fill-opacity:1;fill-rule:evenodd;stroke:#808080;stroke-opacity:1"
         id="path62"
         inkscape:connector-curvature="0" /><path
         d="m 2883.9354,1438.28 -7.13,-44.69 71.91,91.64 -109.47,-39.82 z"
         style="fill:#808080;fill-opacity:1;stroke:#808080;stroke-width:8;stroke-linecap:butt;stroke-linejoin:miter;stroke-miterlimit:10;stroke-dasharray:none;stroke-opacity:1"
         id="path64"
         inkscape:connector-curvature="0" /><path
         d="m 2954.0854,1150.11 c -789.61,-268.005 -789.61,-268.005 -789.61,-268.005"
         style="fill:#808080;fill-opacity:1;stroke:#808080;stroke-width:8;stroke-linecap:butt;stroke-linejoin:miter;stroke-miterlimit:10;stroke-dasharray:none;stroke-opacity:1"
         id="path66"
         inkscape:connector-curvature="0" /><path
         d="m 2878.3354,1124.4 -20.02,-40.59 95.77,66.3 -116.34,-5.7 40.59,-20.01"
         style="fill:#808080;fill-opacity:1;fill-rule:evenodd;stroke:#808080;stroke-opacity:1"
         id="path68"
         inkscape:connector-curvature="0" /><path
         d="m 2878.3354,1124.4 -20.02,-40.59 95.77,66.3 -116.34,-5.7 z"
         style="fill:#808080;fill-opacity:1;stroke:#808080;stroke-width:8;stroke-linecap:butt;stroke-linejoin:miter;stroke-miterlimit:10;stroke-dasharray:none;stroke-opacity:1"
         id="path70"
         inkscape:connector-curvature="0" /><path
         d="m 2143.1054,797.102 c 825.55,-352.27 825.55,-352.27 825.55,-352.27"
         style="fill:#808080;fill-opacity:1;stroke:#808080;stroke-width:8;stroke-linecap:butt;stroke-linejoin:miter;stroke-miterlimit:10;stroke-dasharray:none;stroke-opacity:1"
         id="path72"
         inkscape:connector-curvature="0" /><path
         d="m 2895.0754,476.23 -41.99,-16.875 115.57,-14.523 -90.46,73.391 16.88,-41.993"
         style="fill:#808080;fill-opacity:1;fill-rule:evenodd;stroke:#808080;stroke-opacity:1"
         id="path74"
         inkscape:connector-curvature="0" /><path
         d="m 2895.0754,476.23 -41.99,-16.875 115.57,-14.523 -90.46,73.391 z"
         style="fill:#808080;fill-opacity:1;stroke:#808080;stroke-width:8;stroke-linecap:butt;stroke-linejoin:miter;stroke-miterlimit:10;stroke-dasharray:none;stroke-opacity:1"
         id="path76"
         inkscape:connector-curvature="0" /><path
         d="m 2779.2454,1016.58 h 16.4844 v 14.5195 h -16.4844 z"
         style="fill:#808080;fill-opacity:1;fill-rule:nonzero;stroke:#808080;stroke-opacity:1"
         id="path78"
         inkscape:connector-curvature="0" /><path
         d="m 2779.2454,870.254 h 16.4844 v 14.5195 h -16.4844 z"
         style="fill:#808080;fill-opacity:1;fill-rule:nonzero;stroke:#808080;stroke-opacity:1"
         id="path80"
         inkscape:connector-curvature="0" /><path
         d="m 2779.2454,723.934 h 16.4844 v 14.5156 h -16.4844 z"
         style="fill:#808080;fill-opacity:1;fill-rule:nonzero;stroke:#808080;stroke-opacity:1"
         id="path82"
         inkscape:connector-curvature="0" /><path
         d="m 2779.2454,577.609 h 16.4844 v 14.5195 h -16.4844 z"
         style="fill:#808080;fill-opacity:1;fill-rule:nonzero;stroke:#808080;stroke-opacity:1"
         id="path84"
         inkscape:connector-curvature="0" /><g
         id="g86"
         transform="matrix(1.11873,0,0,-0.88127,720,0)"><path
           d="m 702.761,-1053.71 c 0,422.022 -133.379,764.532 -297.726,764.532 -164.346,0 -297.725,-342.51 -297.725,-764.532 0,-422.02 133.379,-764.53 297.725,-764.53 164.347,0 297.726,342.51 297.726,764.53 z"
           style="fill:none;stroke:#000000;stroke-width:7.4228301;stroke-linecap:butt;stroke-linejoin:miter;stroke-miterlimit:10;stroke-dasharray:none;stroke-opacity:1"
           id="path88"
           inkscape:connector-curvature="0" /></g><path
         sodipodi:nodetypes="cc"
         d="m 2055.6158,1268.0259 -414.9736,-229.766"
         style="fill:none;stroke:#000000;stroke-width:8;stroke-linecap:butt;stroke-linejoin:miter;stroke-miterlimit:10;stroke-dasharray:8, 8;stroke-dashoffset:0;stroke-opacity:1;marker-end:url(#Arrow1Mend)"
         id="path116"
         inkscape:connector-curvature="0" /><g
         transform="matrix(18.036892,0,0,-18.036892,567.50409,6013.1974)"
         id="g5142"><g
           style="font-style:normal;font-variant:normal;font-weight:normal;font-stretch:normal;letter-spacing:normal;word-spacing:normal;text-anchor:start;fill:none;fill-opacity:1;fill-rule:evenodd;stroke:#000000;stroke-linecap:butt;stroke-linejoin:miter;stroke-miterlimit:10.43299961;stroke-dasharray:none;stroke-dashoffset:0;stroke-opacity:1"
           id="content"
           transform="matrix(0.2875,0,0,-0.2875,-50.3125,376.875)"
           xml:space="preserve"
           stroke-miterlimit="10.433"
           font-style="normal"
           font-variant="normal"
           font-weight="normal"
           font-stretch="normal"
           font-size-adjust="none"
           letter-spacing="normal"
           word-spacing="normal"><path
             style="fill:#000000;stroke-width:0"
             inkscape:connector-curvature="0"
             d="m 486.84,422.74 0.08,0.23 0.09,0.21 0.09,0.21 0.1,0.2 0.1,0.18 0.1,0.18 0.11,0.17 0.11,0.16 0.11,0.15 0.12,0.14 0.12,0.13 0.12,0.13 0.13,0.11 0.12,0.11 0.14,0.1 0.13,0.1 0.13,0.08 0.14,0.08 0.14,0.07 0.14,0.07 0.15,0.06 0.15,0.06 0.14,0.04 0.15,0.05 0.16,0.03 0.15,0.04 0.16,0.02 0.16,0.03 0.15,0.01 0.16,0.02 0.17,0.01 0.16,0.01 v 1.54 h -8.27 v -1.54 c 1.79,-0.05 2.89,-0.95 2.89,-2.39 0,-0.31 0,-0.4 -0.25,-1.05 l -4.53,-12.76 -4.93,13.9 c -0.2,0.6 -0.25,0.7 -0.25,0.95 0,1.35 1.94,1.35 2.93,1.35 v 1.54 H 469 v -1.54 c 1.84,0 2.64,-0.11 3.14,-0.75 0.25,-0.3 0.8,-1.8 1.15,-2.74 l -4.29,-12.06 -4.73,13.3 c -0.25,0.6 -0.25,0.7 -0.25,0.9 0,1.35 1.94,1.35 2.94,1.35 v 1.54 H 456.9 v -1.54 c 2.49,0 3.08,-0.15 3.68,-1.75 l 6.28,-17.63 c 0.25,-0.7 0.4,-1.1 1.05,-1.1 0.64,0 0.74,0.3 0.99,1 l 5.03,14.1 5.09,-14.15 c 0.19,-0.55 0.34,-0.95 0.99,-0.95 0.65,0 0.8,0.45 1,0.95 z"
             id="path5145" /><path
             style="fill:#000000;stroke-width:0"
             inkscape:connector-curvature="0"
             d="m 510.62,436.66 v 0.12 0.12 l -0.01,0.12 -0.01,0.12 -0.01,0.11 -0.01,0.1 -0.01,0.11 -0.02,0.1 -0.02,0.09 -0.02,0.1 -0.02,0.09 -0.02,0.08 -0.03,0.08 -0.02,0.08 -0.03,0.08 -0.03,0.08 -0.03,0.07 -0.03,0.06 -0.03,0.07 -0.03,0.06 -0.04,0.06 -0.03,0.06 -0.04,0.05 -0.03,0.06 -0.04,0.04 -0.04,0.05 -0.08,0.09 -0.07,0.08 -0.08,0.07 -0.08,0.06 -0.08,0.05 -0.08,0.05 -0.08,0.04 -0.07,0.03 -0.07,0.03 -0.07,0.03 -0.07,0.02 -0.06,0.01 -0.05,0.01 -0.06,0.01 -0.04,0.01 h -0.04 -0.03 -0.02 -0.01 c -0.91,0 -1.89,-0.94 -1.89,-1.85 0,-0.59 0.35,-0.87 0.6,-1.08 0.59,-0.48 1.29,-1.39 1.29,-2.78 0,-1.58 -2.31,-9.07 -6.45,-9.07 -2.83,0 -2.83,2.51 -2.83,3.1 0,1.61 0.63,3.56 1.92,6.8 0.28,0.73 0.49,1.26 0.49,1.85 0,1.81 -1.54,3 -3.31,3 -3.49,0 -5.06,-4.78 -5.06,-5.34 0,-0.45 0.49,-0.45 0.59,-0.45 0.49,0 0.52,0.17 0.63,0.56 0.84,2.86 2.34,4.25 3.73,4.25 0.59,0 0.87,-0.38 0.87,-1.22 0,-0.8 -0.28,-1.54 -0.62,-2.34 -1.5,-3.87 -1.89,-5.37 -1.89,-6.62 0,-3.45 2.72,-4.57 5.37,-4.57 5.86,0 8.3,10.15 8.3,13.01 z"
             id="path5147" /><path
             style="fill:#000000;stroke-width:0"
             inkscape:connector-curvature="0"
             d="m 521.97,450.58 v 0 0.01 0 0 l 0.01,0.01 v 0.01 l 0.01,0.01 0.01,0.02 0.01,0.02 0.01,0.02 v 0.02 l 0.01,0.02 0.02,0.02 0.01,0.03 0.01,0.03 0.01,0.02 0.01,0.03 0.01,0.04 0.01,0.03 0.01,0.03 0.01,0.03 0.01,0.04 0.01,0.03 0.01,0.04 0.01,0.04 0.01,0.03 0.01,0.04 v 0.04 l 0.01,0.03 0.01,0.04 v 0.04 0.03 0.04 l 0.01,0.03 c 0,0.9 -0.8,1.47 -1.55,1.47 -1.02,0 -1.29,-0.77 -1.42,-1.14 l -3.84,-10.79 c -0.09,-0.29 -0.09,-0.37 -0.09,-0.4 0,-0.39 1.04,-0.64 1.07,-0.64 0.22,0 0.27,0.12 0.42,0.42 z"
             id="path5149" /><path
             style="fill:#000000;stroke-width:0"
             inkscape:connector-curvature="0"
             d="m 545.62,436.66 v 0.12 0.12 l -0.01,0.12 -0.01,0.12 -0.01,0.11 -0.01,0.1 -0.01,0.11 -0.02,0.1 -0.02,0.09 -0.02,0.1 -0.02,0.09 -0.02,0.08 -0.03,0.08 -0.02,0.08 -0.03,0.08 -0.03,0.08 -0.03,0.07 -0.03,0.06 -0.03,0.07 -0.03,0.06 -0.04,0.06 -0.03,0.06 -0.04,0.05 -0.03,0.06 -0.04,0.04 -0.04,0.05 -0.08,0.09 -0.07,0.08 -0.08,0.07 -0.08,0.06 -0.08,0.05 -0.08,0.05 -0.08,0.04 -0.07,0.03 -0.07,0.03 -0.07,0.03 -0.07,0.02 -0.06,0.01 -0.05,0.01 -0.06,0.01 -0.04,0.01 h -0.04 -0.03 -0.02 -0.01 c -0.91,0 -1.89,-0.94 -1.89,-1.85 0,-0.59 0.35,-0.87 0.6,-1.08 0.59,-0.48 1.29,-1.39 1.29,-2.78 0,-1.58 -2.31,-9.07 -6.45,-9.07 -2.83,0 -2.83,2.51 -2.83,3.1 0,1.61 0.63,3.56 1.92,6.8 0.28,0.73 0.49,1.26 0.49,1.85 0,1.81 -1.54,3 -3.31,3 -3.49,0 -5.06,-4.78 -5.06,-5.34 0,-0.45 0.49,-0.45 0.59,-0.45 0.49,0 0.52,0.17 0.63,0.56 0.84,2.86 2.34,4.25 3.73,4.25 0.59,0 0.87,-0.38 0.87,-1.22 0,-0.8 -0.28,-1.54 -0.62,-2.34 -1.5,-3.87 -1.89,-5.37 -1.89,-6.62 0,-3.45 2.72,-4.57 5.37,-4.57 5.86,0 8.3,10.15 8.3,13.01 z"
             id="path5151" /><path
             style="fill:#000000;stroke-width:0"
             inkscape:connector-curvature="0"
             d="m 503.3,414.79 v 0.06 l -0.01,0.05 v 0.05 l -0.01,0.06 -0.01,0.06 -0.02,0.05 -0.01,0.06 -0.02,0.06 -0.03,0.05 -0.02,0.06 -0.03,0.05 -0.03,0.06 -0.03,0.05 -0.03,0.05 -0.04,0.05 -0.04,0.05 -0.05,0.05 -0.04,0.05 -0.05,0.04 -0.06,0.05 -0.05,0.04 -0.06,0.03 -0.06,0.04 -0.07,0.03 -0.07,0.03 -0.07,0.02 -0.07,0.02 -0.08,0.02 -0.08,0.02 -0.08,0.01 h -0.09 l -0.09,0.01 c -0.94,0 -1.95,-0.91 -1.95,-1.92 0,-0.59 0.45,-1.32 1.39,-1.32 1.02,0 1.96,0.97 1.96,1.91 z"
             id="path5153" /><path
             style="fill:#000000;stroke-width:0"
             inkscape:connector-curvature="0"
             d="m 496.18,397.08 -0.05,-0.17 -0.05,-0.17 -0.03,-0.08 -0.03,-0.09 -0.02,-0.08 -0.03,-0.09 -0.02,-0.09 -0.02,-0.09 -0.01,-0.1 -0.02,-0.09 -0.01,-0.1 -0.01,-0.05 v -0.05 -0.05 l -0.01,-0.06 v -0.05 -0.06 c 0,-1.63 1.4,-2.96 3.31,-2.96 3.49,0 5.02,4.81 5.02,5.33 0,0.46 -0.45,0.46 -0.56,0.46 -0.48,0 -0.52,-0.21 -0.66,-0.59 -0.8,-2.79 -2.33,-4.22 -3.69,-4.22 -0.7,0 -0.88,0.45 -0.88,1.22 0,0.8 0.25,1.46 0.56,2.23 0.35,0.94 0.74,1.88 1.12,2.79 0.31,0.84 1.57,4.01 1.71,4.43 0.1,0.34 0.21,0.77 0.21,1.11 0,1.64 -1.4,2.97 -3.31,2.97 -3.46,0 -5.06,-4.74 -5.06,-5.34 0,-0.45 0.49,-0.45 0.59,-0.45 0.49,0 0.52,0.17 0.63,0.56 0.91,2.99 2.44,4.25 3.73,4.25 0.56,0 0.87,-0.28 0.87,-1.22 0,-0.8 -0.21,-1.32 -1.08,-3.48 z"
             id="path5155" /><path
             style="fill:#000000;stroke-width:0"
             inkscape:connector-curvature="0"
             d="m 521.31,414.79 v 0.06 l -0.01,0.06 v 0.05 l -0.01,0.06 -0.01,0.06 -0.02,0.06 -0.02,0.05 -0.02,0.06 -0.02,0.06 -0.03,0.05 -0.02,0.06 -0.03,0.05 -0.04,0.06 -0.03,0.05 -0.04,0.05 -0.05,0.05 -0.04,0.04 -0.05,0.05 -0.05,0.04 -0.05,0.04 -0.06,0.04 -0.06,0.04 -0.06,0.03 -0.06,0.03 -0.07,0.03 -0.07,0.03 -0.07,0.02 -0.08,0.01 -0.07,0.02 -0.09,0.01 H 520 l -0.09,0.01 c -1.01,0 -1.95,-0.98 -1.95,-1.92 0,-0.56 0.42,-1.32 1.39,-1.32 0.95,0 1.96,0.9 1.96,1.91 z"
             id="path5157" /><path
             style="fill:#000000;stroke-width:0"
             inkscape:connector-curvature="0"
             d="m 513.91,391.29 -0.05,-0.22 -0.07,-0.22 -0.07,-0.22 -0.08,-0.22 -0.09,-0.21 -0.09,-0.21 -0.1,-0.2 -0.11,-0.2 -0.11,-0.2 -0.12,-0.19 -0.12,-0.19 -0.13,-0.18 -0.13,-0.17 -0.14,-0.17 -0.14,-0.16 -0.14,-0.15 -0.16,-0.15 -0.15,-0.14 -0.16,-0.13 -0.16,-0.13 -0.17,-0.12 -0.17,-0.1 -0.17,-0.1 -0.18,-0.09 -0.17,-0.08 -0.18,-0.07 -0.19,-0.07 -0.18,-0.05 -0.19,-0.03 -0.19,-0.03 -0.19,-0.02 -0.19,-0.01 c -0.46,0 -0.87,0.07 -1.26,0.21 0.91,0.42 1.19,1.26 1.19,1.78 0,0.84 -0.67,1.29 -1.36,1.29 -1.08,0 -1.99,-0.94 -1.99,-2.06 0,-1.32 1.36,-2.19 3.45,-2.19 2.09,0 6.17,1.25 7.25,5.5 l 3.14,12.49 c 0.11,0.38 0.18,0.7 0.18,1.22 0,1.92 -1.64,3.28 -3.74,3.28 -3.87,0 -6.1,-4.85 -6.1,-5.34 0,-0.45 0.49,-0.45 0.6,-0.45 0.42,0 0.45,0.11 0.69,0.62 0.88,2.03 2.69,4.19 4.71,4.19 0.87,0 1.19,-0.59 1.19,-1.71 0,-0.38 -0.07,-0.87 -0.11,-1.05 z"
             id="path5159" /></g></g><g
         style="fill:#008000;fill-opacity:1"
         id="g5820"
         transform="matrix(18.467617,0,0,-18.467617,438.18552,5247.439)"><g
           word-spacing="normal"
           letter-spacing="normal"
           font-size-adjust="none"
           font-stretch="normal"
           font-weight="normal"
           font-variant="normal"
           font-style="normal"
           stroke-miterlimit="10.433"
           xml:space="preserve"
           transform="matrix(0.2875,0,0,-0.2875,-50.3125,376.875)"
           id="g5822"
           style="font-style:normal;font-variant:normal;font-weight:normal;font-stretch:normal;letter-spacing:normal;word-spacing:normal;text-anchor:start;fill:#008000;fill-opacity:1;fill-rule:evenodd;stroke:#000000;stroke-linecap:butt;stroke-linejoin:miter;stroke-miterlimit:10.43299961;stroke-dasharray:none;stroke-dashoffset:0;stroke-opacity:1"><path
             id="path5824"
             d="m 470.3,440.02 v 0.01 0 0.01 0.01 0.01 l -0.01,0.01 v 0.02 0.02 0.02 l -0.01,0.02 v 0.02 l -0.01,0.02 -0.01,0.03 -0.01,0.02 -0.01,0.03 -0.01,0.02 -0.01,0.02 -0.02,0.03 -0.02,0.02 -0.02,0.03 -0.02,0.02 -0.01,0.01 -0.02,0.01 -0.01,0.01 -0.01,0.01 -0.02,0.01 -0.01,0.01 -0.02,0.01 -0.02,0.01 -0.01,0.01 -0.02,0.01 -0.02,0.01 h -0.02 l -0.02,0.01 -0.02,0.01 h -0.02 l -0.03,0.01 h -0.02 l -0.03,0.01 h -0.02 -0.03 l -0.02,0.01 h -0.03 -0.03 -0.03 c -1.15,0 -4.78,-0.4 -6.08,-0.5 -0.4,-0.05 -0.95,-0.1 -0.95,-1 0,-0.59 0.45,-0.59 1.2,-0.59 2.39,0 2.49,-0.35 2.49,-0.85 l -0.15,-0.99 -7.22,-28.7 c -0.2,-0.69 -0.2,-0.8 -0.2,-1.09 0,-1.15 0.99,-1.4 1.44,-1.4 0.8,0 1.6,0.6 1.85,1.3 l 0.94,3.78 1.1,4.49 c 0.3,1.09 0.6,2.19 0.85,3.34 0.1,0.29 0.49,1.94 0.54,2.23 0.15,0.45 1.7,3.24 3.39,4.59 1.1,0.8 2.64,1.74 4.78,1.74 2.15,0 2.69,-1.69 2.69,-3.49 0,-2.68 -1.89,-8.11 -3.09,-11.15 -0.39,-1.15 -0.64,-1.75 -0.64,-2.74 0,-2.34 1.74,-4.09 4.08,-4.09 4.69,0 6.53,7.28 6.53,7.67 0,0.5 -0.45,0.5 -0.6,0.5 -0.5,0 -0.5,-0.15 -0.75,-0.89 -0.74,-2.64 -2.34,-6.18 -5.08,-6.18 -0.84,0 -1.19,0.5 -1.19,1.64 0,1.25 0.44,2.44 0.89,3.54 0.8,2.14 3.04,8.07 3.04,10.96 0,3.24 -1.99,5.33 -5.72,5.33 -3.15,0 -5.54,-1.55 -7.38,-3.84 z"
             inkscape:connector-curvature="0"
             style="fill:#008000;fill-opacity:1;stroke-width:0" /><path
             id="path5826"
             d="m 502.62,436.66 v 0.12 0.12 l -0.01,0.12 -0.01,0.12 -0.01,0.11 -0.01,0.1 -0.01,0.11 -0.02,0.1 -0.02,0.09 -0.02,0.1 -0.02,0.09 -0.02,0.08 -0.03,0.08 -0.02,0.08 -0.03,0.08 -0.03,0.08 -0.03,0.07 -0.03,0.06 -0.03,0.07 -0.03,0.06 -0.04,0.06 -0.03,0.06 -0.04,0.05 -0.03,0.06 -0.04,0.04 -0.04,0.05 -0.08,0.09 -0.07,0.08 -0.08,0.07 -0.08,0.06 -0.08,0.05 -0.08,0.05 -0.08,0.04 -0.07,0.03 -0.07,0.03 -0.07,0.03 -0.07,0.02 -0.06,0.01 -0.05,0.01 -0.06,0.01 -0.04,0.01 h -0.04 -0.03 -0.02 -0.01 c -0.91,0 -1.89,-0.94 -1.89,-1.85 0,-0.59 0.35,-0.87 0.6,-1.08 0.59,-0.48 1.29,-1.39 1.29,-2.78 0,-1.58 -2.31,-9.07 -6.45,-9.07 -2.83,0 -2.83,2.51 -2.83,3.1 0,1.61 0.63,3.56 1.92,6.8 0.28,0.73 0.49,1.26 0.49,1.85 0,1.81 -1.54,3 -3.31,3 -3.49,0 -5.06,-4.78 -5.06,-5.34 0,-0.45 0.49,-0.45 0.59,-0.45 0.49,0 0.52,0.17 0.63,0.56 0.84,2.86 2.34,4.25 3.73,4.25 0.59,0 0.87,-0.38 0.87,-1.22 0,-0.8 -0.28,-1.54 -0.62,-2.34 -1.5,-3.87 -1.89,-5.37 -1.89,-6.62 0,-3.45 2.72,-4.57 5.37,-4.57 5.86,0 8.3,10.15 8.3,13.01 z"
             inkscape:connector-curvature="0"
             style="fill:#008000;fill-opacity:1;stroke-width:0" /><path
             id="path5828"
             d="m 513.97,450.58 v 0 0.01 0 0 l 0.01,0.01 v 0.01 l 0.01,0.01 0.01,0.02 0.01,0.02 0.01,0.02 v 0.02 l 0.01,0.02 0.02,0.02 0.01,0.03 0.01,0.03 0.01,0.02 0.01,0.03 0.01,0.04 0.01,0.03 0.01,0.03 0.01,0.03 0.01,0.04 0.01,0.03 0.01,0.04 0.01,0.04 0.01,0.03 0.01,0.04 v 0.04 l 0.01,0.03 0.01,0.04 v 0.04 0.03 0.04 l 0.01,0.03 c 0,0.9 -0.8,1.47 -1.55,1.47 -1.02,0 -1.29,-0.77 -1.42,-1.14 l -3.84,-10.79 c -0.09,-0.29 -0.09,-0.37 -0.09,-0.4 0,-0.39 1.04,-0.64 1.07,-0.64 0.22,0 0.27,0.12 0.42,0.42 z"
             inkscape:connector-curvature="0"
             style="fill:#008000;fill-opacity:1;stroke-width:0" /><path
             id="path5830"
             d="m 495.3,414.79 v 0.06 l -0.01,0.05 v 0.05 l -0.01,0.06 -0.01,0.06 -0.02,0.05 -0.01,0.06 -0.02,0.06 -0.03,0.05 -0.02,0.06 -0.03,0.05 -0.03,0.06 -0.03,0.05 -0.03,0.05 -0.04,0.05 -0.04,0.05 -0.05,0.05 -0.04,0.05 -0.05,0.04 -0.06,0.05 -0.05,0.04 -0.06,0.03 -0.06,0.04 -0.07,0.03 -0.07,0.03 -0.07,0.02 -0.07,0.02 -0.08,0.02 -0.08,0.02 -0.08,0.01 h -0.09 l -0.09,0.01 c -0.94,0 -1.95,-0.91 -1.95,-1.92 0,-0.59 0.45,-1.32 1.39,-1.32 1.02,0 1.96,0.97 1.96,1.91 z"
             inkscape:connector-curvature="0"
             style="fill:#008000;fill-opacity:1;stroke-width:0" /><path
             id="path5832"
             d="m 488.18,397.08 -0.05,-0.17 -0.05,-0.17 -0.03,-0.08 -0.03,-0.09 -0.02,-0.08 -0.03,-0.09 -0.02,-0.09 -0.02,-0.09 -0.01,-0.1 -0.02,-0.09 -0.01,-0.1 -0.01,-0.05 v -0.05 -0.05 l -0.01,-0.06 v -0.05 -0.06 c 0,-1.63 1.4,-2.96 3.31,-2.96 3.49,0 5.02,4.81 5.02,5.33 0,0.46 -0.45,0.46 -0.56,0.46 -0.48,0 -0.52,-0.21 -0.66,-0.59 -0.8,-2.79 -2.33,-4.22 -3.69,-4.22 -0.7,0 -0.88,0.45 -0.88,1.22 0,0.8 0.25,1.46 0.56,2.23 0.35,0.94 0.74,1.88 1.12,2.79 0.31,0.84 1.57,4.01 1.71,4.43 0.1,0.34 0.21,0.77 0.21,1.11 0,1.64 -1.4,2.97 -3.31,2.97 -3.46,0 -5.06,-4.74 -5.06,-5.34 0,-0.45 0.49,-0.45 0.59,-0.45 0.49,0 0.52,0.17 0.63,0.56 0.91,2.99 2.44,4.25 3.73,4.25 0.56,0 0.87,-0.28 0.87,-1.22 0,-0.8 -0.21,-1.32 -1.08,-3.48 z"
             inkscape:connector-curvature="0"
             style="fill:#008000;fill-opacity:1;stroke-width:0" /></g></g><g
         style="fill:#0000ff;fill-opacity:1"
         transform="matrix(14.430752,0,0,-14.430752,-287.9151,4852.2772)"
         id="g6053"><g
           style="font-style:normal;font-variant:normal;font-weight:normal;font-stretch:normal;letter-spacing:normal;word-spacing:normal;text-anchor:start;fill:#0000ff;fill-opacity:1;fill-rule:evenodd;stroke:#000000;stroke-linecap:butt;stroke-linejoin:miter;stroke-miterlimit:10.43299961;stroke-dasharray:none;stroke-dashoffset:0;stroke-opacity:1"
           id="g6055"
           transform="matrix(0.2875,0,0,-0.2875,-50.3125,376.875)"
           xml:space="preserve"
           stroke-miterlimit="10.433"
           font-style="normal"
           font-variant="normal"
           font-weight="normal"
           font-stretch="normal"
           font-size-adjust="none"
           letter-spacing="normal"
           word-spacing="normal"><path
             style="fill:#0000ff;fill-opacity:1;stroke-width:0"
             inkscape:connector-curvature="0"
             d="m 470.3,440.02 v 0.01 0 0.01 0.01 0.01 l -0.01,0.01 v 0.02 0.02 0.02 l -0.01,0.02 v 0.02 l -0.01,0.02 -0.01,0.03 -0.01,0.02 -0.01,0.03 -0.01,0.02 -0.01,0.02 -0.02,0.03 -0.02,0.02 -0.02,0.03 -0.02,0.02 -0.01,0.01 -0.02,0.01 -0.01,0.01 -0.01,0.01 -0.02,0.01 -0.01,0.01 -0.02,0.01 -0.02,0.01 -0.01,0.01 -0.02,0.01 -0.02,0.01 h -0.02 l -0.02,0.01 -0.02,0.01 h -0.02 l -0.03,0.01 h -0.02 l -0.03,0.01 h -0.02 -0.03 l -0.02,0.01 h -0.03 -0.03 -0.03 c -1.15,0 -4.78,-0.4 -6.08,-0.5 -0.4,-0.05 -0.95,-0.1 -0.95,-1 0,-0.59 0.45,-0.59 1.2,-0.59 2.39,0 2.49,-0.35 2.49,-0.85 l -0.15,-0.99 -7.22,-28.7 c -0.2,-0.69 -0.2,-0.8 -0.2,-1.09 0,-1.15 0.99,-1.4 1.44,-1.4 0.8,0 1.6,0.6 1.85,1.3 l 0.94,3.78 1.1,4.49 c 0.3,1.09 0.6,2.19 0.85,3.34 0.1,0.29 0.49,1.94 0.54,2.23 0.15,0.45 1.7,3.24 3.39,4.59 1.1,0.8 2.64,1.74 4.78,1.74 2.15,0 2.69,-1.69 2.69,-3.49 0,-2.68 -1.89,-8.11 -3.09,-11.15 -0.39,-1.15 -0.64,-1.75 -0.64,-2.74 0,-2.34 1.74,-4.09 4.08,-4.09 4.69,0 6.53,7.28 6.53,7.67 0,0.5 -0.45,0.5 -0.6,0.5 -0.5,0 -0.5,-0.15 -0.75,-0.89 -0.74,-2.64 -2.34,-6.18 -5.08,-6.18 -0.84,0 -1.19,0.5 -1.19,1.64 0,1.25 0.44,2.44 0.89,3.54 0.8,2.14 3.04,8.07 3.04,10.96 0,3.24 -1.99,5.33 -5.72,5.33 -3.15,0 -5.54,-1.55 -7.38,-3.84 z"
             id="path6057" /><path
             style="fill:#0000ff;fill-opacity:1;stroke-width:0"
             inkscape:connector-curvature="0"
             d="m 502.62,436.66 v 0.12 0.12 l -0.01,0.12 -0.01,0.12 -0.01,0.11 -0.01,0.1 -0.01,0.11 -0.02,0.1 -0.02,0.09 -0.02,0.1 -0.02,0.09 -0.02,0.08 -0.03,0.08 -0.02,0.08 -0.03,0.08 -0.03,0.08 -0.03,0.07 -0.03,0.06 -0.03,0.07 -0.03,0.06 -0.04,0.06 -0.03,0.06 -0.04,0.05 -0.03,0.06 -0.04,0.04 -0.04,0.05 -0.08,0.09 -0.07,0.08 -0.08,0.07 -0.08,0.06 -0.08,0.05 -0.08,0.05 -0.08,0.04 -0.07,0.03 -0.07,0.03 -0.07,0.03 -0.07,0.02 -0.06,0.01 -0.05,0.01 -0.06,0.01 -0.04,0.01 h -0.04 -0.03 -0.02 -0.01 c -0.91,0 -1.89,-0.94 -1.89,-1.85 0,-0.59 0.35,-0.87 0.6,-1.08 0.59,-0.48 1.29,-1.39 1.29,-2.78 0,-1.58 -2.31,-9.07 -6.45,-9.07 -2.83,0 -2.83,2.51 -2.83,3.1 0,1.61 0.63,3.56 1.92,6.8 0.28,0.73 0.49,1.26 0.49,1.85 0,1.81 -1.54,3 -3.31,3 -3.49,0 -5.06,-4.78 -5.06,-5.34 0,-0.45 0.49,-0.45 0.59,-0.45 0.49,0 0.52,0.17 0.63,0.56 0.84,2.86 2.34,4.25 3.73,4.25 0.59,0 0.87,-0.38 0.87,-1.22 0,-0.8 -0.28,-1.54 -0.62,-2.34 -1.5,-3.87 -1.89,-5.37 -1.89,-6.62 0,-3.45 2.72,-4.57 5.37,-4.57 5.86,0 8.3,10.15 8.3,13.01 z"
             id="path6059" /><path
             style="fill:#0000ff;fill-opacity:1;stroke-width:0"
             inkscape:connector-curvature="0"
             d="m 499.31,414.79 v 0.06 l -0.01,0.06 v 0.05 l -0.01,0.06 -0.01,0.06 -0.02,0.06 -0.02,0.05 -0.02,0.06 -0.02,0.06 -0.03,0.05 -0.02,0.06 -0.03,0.05 -0.04,0.06 -0.03,0.05 -0.04,0.05 -0.05,0.05 -0.04,0.04 -0.05,0.05 -0.05,0.04 -0.05,0.04 -0.06,0.04 -0.06,0.04 -0.06,0.03 -0.06,0.03 -0.07,0.03 -0.07,0.03 -0.07,0.02 -0.08,0.01 -0.07,0.02 -0.09,0.01 H 498 l -0.09,0.01 c -1.01,0 -1.95,-0.98 -1.95,-1.92 0,-0.56 0.42,-1.32 1.4,-1.32 0.94,0 1.95,0.9 1.95,1.91 z"
             id="path6061" /><path
             style="fill:#0000ff;fill-opacity:1;stroke-width:0"
             inkscape:connector-curvature="0"
             d="m 491.91,391.29 -0.05,-0.22 -0.07,-0.22 -0.07,-0.22 -0.08,-0.22 -0.09,-0.21 -0.09,-0.21 -0.1,-0.2 -0.11,-0.2 -0.11,-0.2 -0.12,-0.19 -0.12,-0.19 -0.13,-0.18 -0.13,-0.17 -0.14,-0.17 -0.14,-0.16 -0.14,-0.15 -0.16,-0.15 -0.15,-0.14 -0.16,-0.13 -0.16,-0.13 -0.17,-0.12 -0.17,-0.1 -0.17,-0.1 -0.18,-0.09 -0.17,-0.08 -0.18,-0.07 -0.19,-0.07 -0.18,-0.05 -0.19,-0.03 -0.19,-0.03 -0.19,-0.02 -0.19,-0.01 c -0.46,0 -0.87,0.07 -1.26,0.21 0.91,0.42 1.19,1.26 1.19,1.78 0,0.84 -0.67,1.29 -1.36,1.29 -1.08,0 -1.99,-0.94 -1.99,-2.06 0,-1.32 1.36,-2.19 3.45,-2.19 2.09,0 6.17,1.25 7.25,5.5 l 3.14,12.49 c 0.11,0.38 0.18,0.7 0.18,1.22 0,1.92 -1.64,3.28 -3.73,3.28 -3.88,0 -6.11,-4.85 -6.11,-5.34 0,-0.45 0.49,-0.45 0.6,-0.45 0.42,0 0.45,0.11 0.69,0.62 0.88,2.03 2.69,4.19 4.71,4.19 0.87,0 1.19,-0.59 1.19,-1.71 0,-0.38 -0.07,-0.87 -0.11,-1.05 z"
             id="path6063" /></g></g></g></g><g
     id="g2110"
     style="stroke-width:0.0000001"
     ns0:page_width=""
     ns0:preamble=""
     ns0:text="parents $P(v\',i)$"
     transform="matrix(2.4108428,0,0,2.4108428,-539.33749,-134.82531)"><defs
   id="defs2061">
<g
   id="g2059">
<symbol
   id="textext-6169a234-0"
   overflow="visible"
   style="overflow:visible">
<path
   id="path2008"
   d=""
   style="stroke:none"
   inkscape:connector-curvature="0" />
</symbol>
<symbol
   id="textext-6169a234-1"
   overflow="visible"
   style="overflow:visible">
<path
   id="path2011"
   d="m 1.71875,-3.75 v -0.65625 l -1.4375,0.109375 v 0.3125 c 0.703125,0 0.78125,0.0625 0.78125,0.5 v 4.65625 C 1.0625,1.625 0.953125,1.625 0.28125,1.625 V 1.9375 C 0.625,1.921875 1.140625,1.90625 1.390625,1.90625 c 0.28125,0 0.78125,0.015625 1.125,0.03125 V 1.625 C 1.859375,1.625 1.75,1.625 1.75,1.171875 V -0.59375 c 0.046875,0.171875 0.46875,0.703125 1.21875,0.703125 1.1875,0 2.21875,-0.984375 2.21875,-2.265625 0,-1.265625 -0.953125,-2.25 -2.078125,-2.25 -0.78125,0 -1.203125,0.4375 -1.390625,0.65625 z M 1.75,-1.140625 v -2.21875 C 2.03125,-3.875 2.515625,-4.15625 3.03125,-4.15625 c 0.734375,0 1.328125,0.875 1.328125,2 0,1.203125 -0.6875,2.046875 -1.421875,2.046875 -0.40625,0 -0.78125,-0.203125 -1.046875,-0.609375 C 1.75,-0.921875 1.75,-0.9375 1.75,-1.140625 Z m 0,0"
   style="stroke:none"
   inkscape:connector-curvature="0" />
</symbol>
<symbol
   id="textext-6169a234-2"
   overflow="visible"
   style="overflow:visible">
<path
   id="path2014"
   d="m 3.3125,-0.75 c 0.046875,0.390625 0.3125,0.8125 0.78125,0.8125 0.21875,0 0.828125,-0.140625 0.828125,-0.953125 v -0.5625 h -0.25 v 0.5625 c 0,0.578125 -0.25,0.640625 -0.359375,0.640625 -0.328125,0 -0.375,-0.453125 -0.375,-0.5 v -1.984375 c 0,-0.421875 0,-0.8125 -0.359375,-1.1875 C 3.1875,-4.3125 2.6875,-4.46875 2.21875,-4.46875 c -0.828125,0 -1.515625,0.46875 -1.515625,1.125 0,0.296875 0.203125,0.46875 0.46875,0.46875 0.28125,0 0.453125,-0.203125 0.453125,-0.453125 0,-0.125 -0.046875,-0.453125 -0.515625,-0.453125 C 1.390625,-4.140625 1.875,-4.25 2.1875,-4.25 c 0.5,0 1.0625,0.390625 1.0625,1.28125 v 0.359375 c -0.515625,0.03125 -1.203125,0.0625 -1.828125,0.359375 -0.75,0.34375 -1,0.859375 -1,1.296875 0,0.8125 0.96875,1.0625 1.59375,1.0625 0.65625,0 1.109375,-0.40625 1.296875,-0.859375 z M 3.25,-2.390625 v 1 c 0,0.9375 -0.71875,1.28125 -1.171875,1.28125 -0.484375,0 -0.890625,-0.34375 -0.890625,-0.84375 0,-0.546875 0.421875,-1.375 2.0625,-1.4375 z m 0,0"
   style="stroke:none"
   inkscape:connector-curvature="0" />
</symbol>
<symbol
   id="textext-6169a234-3"
   overflow="visible"
   style="overflow:visible">
<path
   id="path2017"
   d="M 1.671875,-3.3125 V -4.40625 L 0.28125,-4.296875 v 0.3125 c 0.703125,0 0.78125,0.0625 0.78125,0.5625 V -0.75 c 0,0.4375 -0.109375,0.4375 -0.78125,0.4375 V 0 c 0.390625,-0.015625 0.859375,-0.03125 1.140625,-0.03125 0.390625,0 0.859375,0 1.265625,0.03125 V -0.3125 H 2.46875 c -0.734375,0 -0.75,-0.109375 -0.75,-0.46875 V -2.3125 c 0,-0.984375 0.421875,-1.875 1.171875,-1.875 0.0625,0 0.09375,0 0.109375,0.015625 -0.03125,0 -0.234375,0.125 -0.234375,0.390625 0,0.265625 0.21875,0.421875 0.4375,0.421875 0.171875,0 0.421875,-0.125 0.421875,-0.4375 0,-0.3125 -0.3125,-0.609375 -0.734375,-0.609375 -0.734375,0 -1.09375,0.671875 -1.21875,1.09375 z m 0,0"
   style="stroke:none"
   inkscape:connector-curvature="0" />
</symbol>
<symbol
   id="textext-6169a234-4"
   overflow="visible"
   style="overflow:visible">
<path
   id="path2020"
   d="M 1.109375,-2.515625 C 1.171875,-4 2.015625,-4.25 2.359375,-4.25 c 1.015625,0 1.125,1.34375 1.125,1.734375 z m 0,0.21875 h 2.78125 c 0.21875,0 0.25,0 0.25,-0.21875 0,-0.984375 -0.546875,-1.953125 -1.78125,-1.953125 -1.15625,0 -2.078125,1.03125 -2.078125,2.28125 0,1.328125 1.046875,2.296875 2.1875,2.296875 C 3.6875,0.109375 4.140625,-1 4.140625,-1.1875 4.140625,-1.28125 4.0625,-1.3125 4,-1.3125 c -0.078125,0 -0.109375,0.0625 -0.125,0.140625 -0.34375,1.03125 -1.25,1.03125 -1.34375,1.03125 -0.5,0 -0.890625,-0.296875 -1.125,-0.671875 -0.296875,-0.46875 -0.296875,-1.125 -0.296875,-1.484375 z m 0,0"
   style="stroke:none"
   inkscape:connector-curvature="0" />
</symbol>
<symbol
   id="textext-6169a234-5"
   overflow="visible"
   style="overflow:visible">
<path
   id="path2023"
   d="M 1.09375,-3.421875 V -0.75 c 0,0.4375 -0.109375,0.4375 -0.78125,0.4375 V 0 c 0.359375,-0.015625 0.859375,-0.03125 1.140625,-0.03125 0.25,0 0.765625,0.015625 1.109375,0.03125 v -0.3125 c -0.671875,0 -0.78125,0 -0.78125,-0.4375 V -2.59375 C 1.78125,-3.625 2.5,-4.1875 3.125,-4.1875 c 0.640625,0 0.75,0.53125 0.75,1.109375 V -0.75 c 0,0.4375 -0.109375,0.4375 -0.78125,0.4375 V 0 c 0.34375,-0.015625 0.859375,-0.03125 1.125,-0.03125 0.25,0 0.78125,0.015625 1.109375,0.03125 v -0.3125 c -0.515625,0 -0.765625,0 -0.765625,-0.296875 v -1.90625 c 0,-0.859375 0,-1.15625 -0.3125,-1.515625 -0.140625,-0.171875 -0.46875,-0.375 -1.046875,-0.375 C 2.46875,-4.40625 2,-3.984375 1.71875,-3.359375 V -4.40625 L 0.3125,-4.296875 v 0.3125 c 0.703125,0 0.78125,0.0625 0.78125,0.5625 z m 0,0"
   style="stroke:none"
   inkscape:connector-curvature="0" />
</symbol>
<symbol
   id="textext-6169a234-6"
   overflow="visible"
   style="overflow:visible">
<path
   id="path2026"
   d="m 1.71875,-3.984375 h 1.4375 v -0.3125 H 1.71875 V -6.125 h -0.25 c 0,0.8125 -0.296875,1.875 -1.28125,1.921875 v 0.21875 h 0.84375 v 2.75 c 0,1.21875 0.9375,1.34375 1.296875,1.34375 0.703125,0 0.984375,-0.703125 0.984375,-1.34375 v -0.5625 h -0.25 V -1.25 c 0,0.734375 -0.296875,1.109375 -0.671875,1.109375 -0.671875,0 -0.671875,-0.90625 -0.671875,-1.078125 z m 0,0"
   style="stroke:none"
   inkscape:connector-curvature="0" />
</symbol>
<symbol
   id="textext-6169a234-7"
   overflow="visible"
   style="overflow:visible">
<path
   id="path2029"
   d="m 2.078125,-1.9375 c 0.21875,0.046875 1.03125,0.203125 1.03125,0.921875 0,0.5 -0.34375,0.90625 -1.125,0.90625 -0.84375,0 -1.203125,-0.5625 -1.390625,-1.421875 C 0.5625,-1.65625 0.5625,-1.6875 0.453125,-1.6875 c -0.125,0 -0.125,0.0625 -0.125,0.234375 V -0.125 c 0,0.171875 0,0.234375 0.109375,0.234375 0.046875,0 0.0625,-0.015625 0.25,-0.203125 0.015625,-0.015625 0.015625,-0.03125 0.203125,-0.21875 0.4375,0.40625 0.890625,0.421875 1.09375,0.421875 1.140625,0 1.609375,-0.671875 1.609375,-1.390625 0,-0.515625 -0.296875,-0.828125 -0.421875,-0.9375 C 2.84375,-2.546875 2.453125,-2.625 2.03125,-2.703125 1.46875,-2.8125 0.8125,-2.9375 0.8125,-3.515625 c 0,-0.359375 0.25,-0.765625 1.109375,-0.765625 1.09375,0 1.15625,0.90625 1.171875,1.203125 0,0.09375 0.09375,0.09375 0.109375,0.09375 0.140625,0 0.140625,-0.046875 0.140625,-0.234375 v -1.015625 c 0,-0.15625 0,-0.234375 -0.109375,-0.234375 -0.046875,0 -0.078125,0 -0.203125,0.125 -0.03125,0.03125 -0.125,0.125 -0.171875,0.15625 -0.375,-0.28125 -0.78125,-0.28125 -0.9375,-0.28125 -1.21875,0 -1.59375,0.671875 -1.59375,1.234375 0,0.34375 0.15625,0.625 0.421875,0.84375 0.328125,0.25 0.609375,0.3125 1.328125,0.453125 z m 0,0"
   style="stroke:none"
   inkscape:connector-curvature="0" />
</symbol>
<symbol
   id="textext-6169a234-8"
   overflow="visible"
   style="overflow:visible">
<path
   id="path2032"
   d="m 3.296875,2.390625 c 0,-0.03125 0,-0.046875 -0.171875,-0.21875 C 1.890625,0.921875 1.5625,-0.96875 1.5625,-2.5 c 0,-1.734375 0.375,-3.46875 1.609375,-4.703125 0.125,-0.125 0.125,-0.140625 0.125,-0.171875 0,-0.078125 -0.03125,-0.109375 -0.09375,-0.109375 -0.109375,0 -1,0.6875 -1.59375,1.953125 -0.5,1.09375 -0.625,2.203125 -0.625,3.03125 0,0.78125 0.109375,1.984375 0.65625,3.125 C 2.25,1.84375 3.09375,2.5 3.203125,2.5 c 0.0625,0 0.09375,-0.03125 0.09375,-0.109375 z m 0,0"
   style="stroke:none"
   inkscape:connector-curvature="0" />
</symbol>
<symbol
   id="textext-6169a234-9"
   overflow="visible"
   style="overflow:visible">
<path
   id="path2035"
   d="m 2.875,-2.5 c 0,-0.765625 -0.109375,-1.96875 -0.65625,-3.109375 -0.59375,-1.21875 -1.453125,-1.875 -1.546875,-1.875 -0.0625,0 -0.109375,0.046875 -0.109375,0.109375 0,0.03125 0,0.046875 0.1875,0.234375 0.984375,0.984375 1.546875,2.5625 1.546875,4.640625 0,1.71875 -0.359375,3.46875 -1.59375,4.71875 C 0.5625,2.34375 0.5625,2.359375 0.5625,2.390625 0.5625,2.453125 0.609375,2.5 0.671875,2.5 0.765625,2.5 1.671875,1.8125 2.25,0.546875 2.765625,-0.546875 2.875,-1.65625 2.875,-2.5 Z m 0,0"
   style="stroke:none"
   inkscape:connector-curvature="0" />
</symbol>
<symbol
   id="textext-6169a234-10"
   overflow="visible"
   style="overflow:visible">
<path
   id="path2038"
   d=""
   style="stroke:none"
   inkscape:connector-curvature="0" />
</symbol>
<symbol
   id="textext-6169a234-11"
   overflow="visible"
   style="overflow:visible">
<path
   id="path2041"
   d="M 3.015625,-3.15625 H 4.71875 c 1.40625,0 2.796875,-1.03125 2.796875,-2.140625 0,-0.78125 -0.65625,-1.515625 -1.96875,-1.515625 h -3.21875 c -0.1875,0 -0.296875,0 -0.296875,0.1875 0,0.125 0.078125,0.125 0.28125,0.125 0.125,0 0.3125,0.015625 0.421875,0.015625 0.171875,0.03125 0.21875,0.046875 0.21875,0.171875 0,0.03125 0,0.0625 -0.03125,0.1875 l -1.34375,5.34375 c -0.09375,0.390625 -0.109375,0.46875 -0.90625,0.46875 -0.15625,0 -0.265625,0 -0.265625,0.1875 C 0.40625,0 0.515625,0 0.546875,0 0.828125,0 1.53125,-0.03125 1.8125,-0.03125 c 0.21875,0 0.4375,0.015625 0.640625,0.015625 0.21875,0 0.4375,0.015625 0.640625,0.015625 0.078125,0 0.203125,0 0.203125,-0.203125 0,-0.109375 -0.09375,-0.109375 -0.28125,-0.109375 -0.359375,0 -0.640625,0 -0.640625,-0.171875 0,-0.0625 0.015625,-0.109375 0.03125,-0.171875 z M 3.734375,-6.125 C 3.828125,-6.46875 3.84375,-6.5 4.28125,-6.5 h 0.953125 c 0.828125,0 1.359375,0.265625 1.359375,0.953125 0,0.390625 -0.203125,1.25 -0.59375,1.609375 -0.5,0.453125 -1.09375,0.53125 -1.53125,0.53125 H 3.0625 Z m 0,0"
   style="stroke:none"
   inkscape:connector-curvature="0" />
</symbol>
<symbol
   id="textext-6169a234-12"
   overflow="visible"
   style="overflow:visible">
<path
   id="path2044"
   d="m 4.671875,-3.703125 c 0,-0.546875 -0.265625,-0.703125 -0.4375,-0.703125 -0.25,0 -0.5,0.265625 -0.5,0.484375 0,0.125 0.046875,0.1875 0.15625,0.296875 0.21875,0.203125 0.34375,0.453125 0.34375,0.8125 0,0.421875 -0.609375,2.703125 -1.765625,2.703125 -0.515625,0 -0.75,-0.34375 -0.75,-0.875 0,-0.546875 0.28125,-1.28125 0.578125,-2.109375 0.078125,-0.171875 0.125,-0.3125 0.125,-0.5 0,-0.4375 -0.3125,-0.8125 -0.8125,-0.8125 -0.9375,0 -1.3125,1.453125 -1.3125,1.53125 0,0.109375 0.09375,0.109375 0.109375,0.109375 0.109375,0 0.109375,-0.03125 0.15625,-0.1875 0.296875,-1 0.71875,-1.234375 1.015625,-1.234375 0.078125,0 0.25,0 0.25,0.3125 0,0.25 -0.109375,0.53125 -0.171875,0.703125 -0.4375,1.15625 -0.5625,1.609375 -0.5625,2.046875 0,1.078125 0.875,1.234375 1.328125,1.234375 1.671875,0 2.25,-3.296875 2.25,-3.8125 z m 0,0"
   style="stroke:none"
   inkscape:connector-curvature="0" />
</symbol>
<symbol
   id="textext-6169a234-13"
   overflow="visible"
   style="overflow:visible">
<path
   id="path2047"
   d="m 2.03125,-0.015625 c 0,-0.65625 -0.25,-1.046875 -0.640625,-1.046875 -0.328125,0 -0.53125,0.25 -0.53125,0.53125 C 0.859375,-0.265625 1.0625,0 1.390625,0 1.5,0 1.640625,-0.046875 1.734375,-0.125 1.765625,-0.15625 1.78125,-0.15625 1.78125,-0.15625 c 0.015625,0 0.015625,0 0.015625,0.140625 0,0.75 -0.34375,1.34375 -0.671875,1.671875 -0.109375,0.109375 -0.109375,0.125 -0.109375,0.15625 0,0.078125 0.046875,0.109375 0.09375,0.109375 0.109375,0 0.921875,-0.765625 0.921875,-1.9375 z m 0,0"
   style="stroke:none"
   inkscape:connector-curvature="0" />
</symbol>
<symbol
   id="textext-6169a234-14"
   overflow="visible"
   style="overflow:visible">
<path
   id="path2050"
   d="m 2.828125,-6.234375 c 0,-0.203125 -0.140625,-0.359375 -0.359375,-0.359375 -0.28125,0 -0.546875,0.265625 -0.546875,0.53125 0,0.1875 0.140625,0.359375 0.375,0.359375 0.234375,0 0.53125,-0.234375 0.53125,-0.53125 z m -0.75,3.75 c 0.109375,-0.28125 0.109375,-0.3125 0.21875,-0.578125 0.078125,-0.203125 0.125,-0.34375 0.125,-0.53125 0,-0.4375 -0.3125,-0.8125 -0.8125,-0.8125 -0.9375,0 -1.3125,1.453125 -1.3125,1.53125 0,0.109375 0.09375,0.109375 0.109375,0.109375 0.109375,0 0.109375,-0.03125 0.15625,-0.1875 0.28125,-0.9375 0.671875,-1.234375 1.015625,-1.234375 0.078125,0 0.25,0 0.25,0.3125 0,0.21875 -0.078125,0.421875 -0.109375,0.53125 -0.078125,0.25 -0.53125,1.40625 -0.6875,1.84375 -0.109375,0.25 -0.234375,0.578125 -0.234375,0.796875 0,0.46875 0.34375,0.8125 0.8125,0.8125 0.9375,0 1.3125,-1.4375 1.3125,-1.53125 0,-0.109375 -0.09375,-0.109375 -0.125,-0.109375 -0.09375,0 -0.09375,0.03125 -0.140625,0.1875 -0.1875,0.625 -0.515625,1.234375 -1.015625,1.234375 -0.171875,0 -0.25,-0.09375 -0.25,-0.328125 0,-0.25 0.0625,-0.390625 0.296875,-1 z m 0,0"
   style="stroke:none"
   inkscape:connector-curvature="0" />
</symbol>
<symbol
   id="textext-6169a234-15"
   overflow="visible"
   style="overflow:visible">
<path
   id="path2053"
   d=""
   style="stroke:none"
   inkscape:connector-curvature="0" />
</symbol>
<symbol
   id="textext-6169a234-16"
   overflow="visible"
   style="overflow:visible">
<path
   id="path2056"
   d="m 2.015625,-3.296875 c 0.0625,-0.109375 0.0625,-0.171875 0.0625,-0.21875 0,-0.21875 -0.1875,-0.375 -0.40625,-0.375 -0.265625,0 -0.34375,0.21875 -0.375,0.328125 L 0.375,-0.546875 c -0.015625,0.015625 -0.046875,0.09375 -0.046875,0.109375 0,0.078125 0.21875,0.15625 0.28125,0.15625 0.046875,0 0.046875,-0.015625 0.09375,-0.125 z m 0,0"
   style="stroke:none"
   inkscape:connector-curvature="0" />
</symbol>
</g>
</defs>
<g
   id="textext-6169a234-17">
<g
   id="g2073"
   style="fill:#000000;fill-opacity:1">
  <use
   id="use2063"
   y="134.765"
   x="223.43201"
   xlink:href="#textext-6169a234-1"
   width="100%"
   height="100%" />
  <use
   id="use2065"
   y="134.765"
   x="228.96722"
   xlink:href="#textext-6169a234-2"
   width="100%"
   height="100%" />
  <use
   id="use2067"
   y="134.765"
   x="233.94852"
   xlink:href="#textext-6169a234-3"
   width="100%"
   height="100%" />
  <use
   id="use2069"
   y="134.765"
   x="237.85088"
   xlink:href="#textext-6169a234-4"
   width="100%"
   height="100%" />
  <use
   id="use2071"
   y="134.765"
   x="242.27824"
   xlink:href="#textext-6169a234-5"
   width="100%"
   height="100%" />
</g>
<g
   id="g2079"
   style="fill:#000000;fill-opacity:1">
  <use
   id="use2075"
   y="134.765"
   x="247.53452"
   xlink:href="#textext-6169a234-6"
   width="100%"
   height="100%" />
  <use
   id="use2077"
   y="134.765"
   x="251.40897"
   xlink:href="#textext-6169a234-7"
   width="100%"
   height="100%" />
</g>
<g
   id="g2083"
   style="fill:#000000;fill-opacity:1">
  <use
   id="use2081"
   y="134.765"
   x="258.66101"
   xlink:href="#textext-6169a234-11"
   width="100%"
   height="100%" />
</g>
<g
   id="g2087"
   style="fill:#000000;fill-opacity:1">
  <use
   id="use2085"
   y="134.765"
   x="266.44101"
   xlink:href="#textext-6169a234-8"
   width="100%"
   height="100%" />
</g>
<g
   id="g2091"
   style="fill:#000000;fill-opacity:1">
  <use
   id="use2089"
   y="134.765"
   x="270.315"
   xlink:href="#textext-6169a234-12"
   width="100%"
   height="100%" />
</g>
<g
   id="g2095"
   style="fill:#000000;fill-opacity:1">
  <use
   id="use2093"
   y="131.14999"
   x="275.50201"
   xlink:href="#textext-6169a234-16"
   width="100%"
   height="100%" />
</g>
<g
   id="g2099"
   style="fill:#000000;fill-opacity:1">
  <use
   id="use2097"
   y="134.765"
   x="278.297"
   xlink:href="#textext-6169a234-13"
   width="100%"
   height="100%" />
</g>
<g
   id="g2103"
   style="fill:#000000;fill-opacity:1">
  <use
   id="use2101"
   y="134.765"
   x="282.72836"
   xlink:href="#textext-6169a234-14"
   width="100%"
   height="100%" />
</g>
<g
   id="g2107"
   style="fill:#000000;fill-opacity:1">
  <use
   id="use2105"
   y="134.765"
   x="286.15701"
   xlink:href="#textext-6169a234-9"
   width="100%"
   height="100%" />
</g>
</g>
</g></svg>